<svg width="469" height="469" fill="none" xmlns="http://www.w3.org/2000/svg"><path d="M387.435 234.5L234.5 387.435 82.492 234.5 234.5 82.492 387.435 234.5zm-25.026-127.909L304.943 0H164.057l-57.466 106.591L0 164.057v140.886l106.591 57.466L164.057 469h140.886l57.466-106.591L469 304.943V164.057l-106.591-57.466z" fill="url(#paint0_linear)" fill-opacity=".55"/><path d="M266.941 82.492l177.96 96.395v81.566L266.941 82.492zm24.098 363.336h-81.565l177.961-177.96-96.396 177.96zM23.172 291.039v-82.492l177.96 177.961-177.96-95.469zM177.96 23.172h81.566L82.492 202.059 177.96 23.172z" fill="url(#paint1_linear)" fill-opacity=".55"/><defs><linearGradient id="paint0_linear" x1="234.5" y1="0" x2="234.5" y2="469" gradientUnits="userSpaceOnUse"><stop stop-color="#fff"/><stop offset="1" stop-color="#fff" stop-opacity="0"/></linearGradient><linearGradient id="paint1_linear" x1="234.036" y1="23.172" x2="234.036" y2="445.828" gradientUnits="userSpaceOnUse"><stop stop-color="#fff"/><stop offset="1" stop-color="#fff" stop-opacity="0"/></linearGradient></defs></svg>