<svg width="20" height="20" fill="none" xmlns="http://www.w3.org/2000/svg"><path d="M20 5.739C20 2.483 17.689 0 14.433 0H5.944C2.69 0 0 2.761 0 6.017v8.489C0 17.76 2.411 20 5.667 20h9.044C17.967 20 20 17.761 20 14.506V5.739zm-1.944 8.667c0 2.083-1.362 3.65-3.445 3.65H5.767c-2.084 0-3.823-1.567-3.823-3.65V5.839c0-2.083 1.74-3.895 3.823-3.895h8.566c2.084 0 3.723 1.812 3.723 3.895v8.567z" fill="#fff"/><path d="M10.19 5.097a5.17 5.17 0 00-5.165 5.164 5.17 5.17 0 005.164 5.164 5.17 5.17 0 005.164-5.164 5.17 5.17 0 00-5.164-5.164zm3.113 5.164a3.118 3.118 0 01-3.114 3.114 3.118 3.118 0 01-3.114-3.114 3.118 3.118 0 013.114-3.114 3.118 3.118 0 013.114 3.114zm1.872-6.647a1.194 1.194 0 100 2.388 1.194 1.194 0 000-2.388z" fill="#fff"/></svg>