<svg width="18" height="10" fill="none" xmlns="http://www.w3.org/2000/svg"><path fill-rule="evenodd" clip-rule="evenodd" d="M8.807 9.958h1.076s.325-.035.49-.209c.153-.16.148-.46.148-.46s-.02-1.406.65-1.613c.66-.204 1.508 1.359 2.407 1.96.68.454 1.197.355 1.197.355l2.403-.033s1.258-.075.662-1.038c-.05-.079-.348-.712-1.788-2.014-1.507-1.362-1.305-1.142.51-3.499 1.106-1.435 1.548-2.311 1.41-2.686-.132-.358-.945-.263-.945-.263l-2.706.016s-.2-.026-.35.06c-.145.085-.239.283-.239.283s-.428 1.11-1 2.055c-1.205 1.993-1.686 2.098-1.883 1.975-.459-.289-.344-1.16-.344-1.777 0-1.932.3-2.737-.586-2.945-.294-.07-.51-.115-1.263-.123-.966-.01-1.783.003-2.246.224-.308.147-.545.474-.4.493.178.023.583.106.798.391.277.367.268 1.193.268 1.193s.159 2.273-.373 2.556c-.364.193-.865-.202-1.94-2.01-.55-.926-.965-1.95-.965-1.95s-.08-.191-.224-.294C3.401.481 3.16.442 3.16.442L.587.458S.2.468.059.632c-.126.146-.01.446-.01.446s2.013 4.588 4.293 6.9c2.09 2.12 4.465 1.98 4.465 1.98z" fill="#fff"/></svg>