<svg width="48" height="33" fill="none" xmlns="http://www.w3.org/2000/svg"><path d="M46.8 4.264h-2.566V.222c-1.956 1.987-9.42 2.707-13.076 2.95-5.01.331-6.476 2.261-6.476 2.261v23.13c2.933 0 11.012-.407 13.687-1.325 4.276-1.466 5.865-3.533 5.865-3.533V6.25h1.465v23.073H2.2V6.25h1.466v17.455s1.589 2.067 5.865 3.533c2.675.918 10.754 1.325 13.687 1.325V5.433s-1.465-1.931-6.476-2.262C13.085 2.93 5.62 2.21 3.665.221v4.043H1.101C.49 4.264 0 4.71 0 5.257V31.09c0 .549.493.994 1.1.994h45.702c.608 0 1.1-.445 1.1-.994V5.257c0-.548-.494-.993-1.101-.993zm-5.106 16.501c-.098.034-2.467.866-8.11 1.586-4.155.53-5.341 1.794-5.38 1.838a.76.76 0 01-.588.266.784.784 0 01-.427-.124c-.329-.213-.405-.627-.169-.924.14-.178 1.513-1.749 6.36-2.369 5.435-.693 7.754-1.498 7.776-1.506.376-.133.803.034.95.374.148.34-.036.725-.413.859zm0-4.964c-.098.034-2.467.864-8.11 1.585-4.155.53-5.341 1.795-5.38 1.838a.76.76 0 01-.588.267.784.784 0 01-.427-.124c-.329-.214-.405-.627-.169-.925.14-.176 1.513-1.748 6.36-2.367 5.435-.693 7.754-1.498 7.776-1.506.376-.135.803.034.95.375.148.339-.036.722-.413.857zm0-4.964c-.098.035-2.467.865-8.11 1.586-4.155.53-5.341 1.794-5.38 1.838a.76.76 0 01-.588.266.784.784 0 01-.427-.124c-.329-.213-.405-.627-.169-.924.14-.177 1.513-1.748 6.36-2.367 5.435-.694 7.754-1.499 7.776-1.507.376-.133.803.035.95.375.148.34-.036.723-.413.857zm0-4.964c-.098.035-2.467.865-8.11 1.585-4.155.53-5.341 1.794-5.38 1.838a.758.758 0 01-.588.266.784.784 0 01-.427-.124c-.329-.213-.405-.627-.169-.925.14-.178 1.513-1.748 6.36-2.367 5.435-.695 7.754-1.498 7.776-1.506.376-.134.803.034.95.374.148.34-.036.726-.413.859zm-35.9-.858c.147-.34.573-.507.95-.374.022.008 2.34.812 7.777 1.506 4.845.619 6.218 2.19 6.359 2.368.236.297.16.711-.17.924a.783.783 0 01-.426.124.76.76 0 01-.588-.265c-.04-.045-1.226-1.307-5.381-1.839-5.641-.72-8.011-1.55-8.11-1.585-.375-.134-.56-.52-.411-.859zm0 4.965c.147-.34.573-.508.95-.375.022.008 2.34.813 7.777 1.507 4.845.618 6.218 2.19 6.359 2.367.236.297.16.712-.17.924a.784.784 0 01-.426.124.76.76 0 01-.588-.266c-.04-.044-1.226-1.308-5.381-1.838-5.641-.72-8.011-1.551-8.11-1.586-.375-.134-.56-.518-.411-.857zm0 4.963c.147-.341.573-.509.95-.375.022.008 2.34.812 7.777 1.506 4.845.619 6.218 2.19 6.359 2.367.236.298.16.712-.17.925a.784.784 0 01-.426.123.76.76 0 01-.588-.266c-.04-.043-1.226-1.306-5.381-1.838-5.641-.72-8.011-1.551-8.11-1.586-.375-.133-.56-.516-.411-.856zm0 4.963c.147-.34.573-.507.95-.374.022.008 2.34.813 7.777 1.506 4.845.62 6.218 2.19 6.359 2.369.236.297.16.71-.17.924a.784.784 0 01-.426.124.76.76 0 01-.588-.266c-.04-.044-1.226-1.307-5.381-1.838-5.641-.72-8.011-1.552-8.11-1.586-.375-.134-.56-.519-.411-.859z" fill="#fff"/></svg>