<svg width="48" height="36" fill="none" xmlns="http://www.w3.org/2000/svg"><path d="M46.8 5.124h-2.566V.708c-1.956 2.17-9.42 2.957-13.076 3.222-5.01.362-6.476 2.47-6.476 2.47v25.266c2.933 0 11.012-.445 13.687-1.447 4.276-1.602 5.865-3.86 5.865-3.86V7.294h1.465v25.203H2.2V7.293h1.466V26.36s1.589 2.257 5.865 3.859c2.675 1.002 10.754 1.447 13.687 1.447V6.4s-1.465-2.109-6.476-2.47C13.085 3.665 5.62 2.879 3.665.708v4.416H1.101C.49 5.124 0 5.61 0 6.209v28.217c0 .6.493 1.087 1.1 1.087h45.702c.608 0 1.1-.487 1.1-1.087V6.21c0-.6-.494-1.085-1.101-1.085zm-5.106 18.024c-.098.038-2.467.946-8.11 1.732-4.155.58-5.341 1.96-5.38 2.008a.734.734 0 01-1.015.155.717.717 0 01-.169-1.01c.14-.194 1.513-1.91 6.36-2.586 5.435-.758 7.754-1.637 7.776-1.646a.738.738 0 01.95.409.722.722 0 01-.413.938zm0-5.423c-.098.038-2.467.945-8.11 1.732-4.155.58-5.341 1.96-5.38 2.008a.734.734 0 01-1.015.156.717.717 0 01-.169-1.01c.14-.193 1.513-1.91 6.36-2.586 5.435-.758 7.754-1.637 7.776-1.645a.736.736 0 01.95.41.72.72 0 01-.413.935zm0-5.421c-.098.037-2.467.944-8.11 1.732-4.155.579-5.341 1.96-5.38 2.008a.734.734 0 01-1.015.155.717.717 0 01-.169-1.01c.14-.193 1.513-1.91 6.36-2.586 5.435-.757 7.754-1.636 7.776-1.645a.738.738 0 01.95.409.72.72 0 01-.413.937zm0-5.423c-.098.039-2.467.945-8.11 1.732-4.155.58-5.341 1.959-5.38 2.008a.733.733 0 01-.588.29.737.737 0 01-.427-.136.717.717 0 01-.169-1.01c.14-.194 1.513-1.91 6.36-2.586 5.435-.758 7.754-1.636 7.776-1.645a.738.738 0 01.95.409.72.72 0 01-.413.938zm-35.9-.937a.736.736 0 01.95-.409c.022.009 2.34.887 7.777 1.646 4.845.676 6.218 2.391 6.359 2.586a.716.716 0 01-.17 1.01.735.735 0 01-.426.135.734.734 0 01-.588-.29c-.04-.049-1.226-1.427-5.381-2.008-5.641-.786-8.011-1.694-8.11-1.732a.72.72 0 01-.411-.938zm0 5.423a.736.736 0 01.95-.409c.022.009 2.34.888 7.777 1.645 4.845.676 6.218 2.393 6.359 2.586a.716.716 0 01-.17 1.01.736.736 0 01-1.014-.155c-.04-.048-1.226-1.429-5.381-2.008-5.641-.787-8.011-1.695-8.11-1.732a.719.719 0 01-.411-.937zm0 5.421a.736.736 0 01.95-.41c.022.01 2.34.888 7.777 1.646 4.845.676 6.218 2.393 6.359 2.586a.716.716 0 01-.17 1.01.735.735 0 01-1.014-.155c-.04-.049-1.226-1.428-5.381-2.01-5.641-.785-8.011-1.693-8.11-1.731a.717.717 0 01-.411-.936zm0 5.422a.736.736 0 01.95-.409c.022.009 2.34.888 7.777 1.646 4.845.675 6.218 2.392 6.359 2.587a.716.716 0 01-.17 1.01.736.736 0 01-1.014-.156c-.04-.048-1.226-1.427-5.381-2.008-5.641-.786-8.011-1.694-8.11-1.732a.72.72 0 01-.411-.938z" fill="#fff"/></svg>