<svg width="2500" height="960" fill="none" xmlns="http://www.w3.org/2000/svg"><g clip-path="url(#clip0)"><path d="M1532.08 691.675c.1.277.2.462.3.739-.2-.277-.2-.554-.3-.739zm7.97 25.054c0-.185-.1-.37-.1-.647.1.277.1.462.1.647z" fill="#DBDBDB" fill-opacity=".94"/><path d="M2114.54 655.557l5.37-6.311.14 1.095-4.47 5.216-.81.279-.23-.279zm4.48 0l2.69-3.284.45.752-2.05 2.447-.78.407-.31-.322zm-16.2-4.66l.46-.558 4.94 5.13-1.71-.451-3.69-4.121z" fill="#C9C9C9"/><path d="M1283.24 794l-2.86-165.05 173.97-106.206L1483.5 506l419.15 11.96 32.98 23.442H1960l3.35 44.97 216.03 8.133V794h-896.14z" fill="#fff"/><path d="M1815.19 502.513l-2.87-2.772c5.5-6.526 12.65-4.146 14.43-2.748 4.8 3.778 2.08 7.514-.18 9.961 6.55 2.516 2.38 7.677 0 9.541-5.69 4.474-12.33.699-14.93-1.748l2.4-4.015 3.09 1.717c8.59 1.374 4.81-3.435 1.72-3.435l1.72-4.121c1.71.343 1.71 0 3.43-.687 1.72-4.122-5.15-5.496-8.81-1.693zm-81.42-8.391c1.37.818 5.1.901 5.1-.003 0-1.133.7 8.614-1.99 12.681a19.51 19.51 0 01-1.99 2.447c.23.553 5.27-1.932 7.25-4.43 2.52-3.17 5.04-10.868 2.52-14.264l4.58 2.037c.23 4.302-.99 13.981-7.94 16.879 1.6.83 4.82 2.05 5.19 1.688.37-.363-1.83 3.396-1.83 3.396s-2.78-.51-4.47-1.132c-1.53-.565-3.77-1.812-3.77-1.812s-2.19 1.812-4.8 1.812c-.87 0-1.59-.837-1.59-.837s-.93-.974-.93-1.427c3.77-2.115 4.92-14.163 4.67-17.035zm-36.98 17.297c8.82-5.313 4.25-13.464 2.19-15.112-2.06-1.649-4.45-1.308-5.03-1.374 0-.344-.47 2.404-.71 3.435.71 0 2.61.531 2.99 1.03 2.28 3.356-.39 6.281-2.28 7.213-2.28 1.118-3.8-.896-4.27-2.061-1.69-6.182 2.61-12.463 5.33-14.327.29 1.957 3.68 2.68 5.34 2.796l2.84-4.956c-3.13.839-5.02.135-4.9-1.03.29-1.398 3.36-1.936 4.9-1.704l1.78-3.146c-4.83-1.678-9.36.699-11.02 2.097l-1.15-1.369c-1.71-2.796-1.72-2.747-2.07-3.434-.66.281-2.74 2.404-2.74 2.706.29 1.242 2.8 3.266 3.82 4.196-3.98 2.516-6.78 9.751-7.26 13.362-1.42 12.864 8.21 13.542 12.24 11.678z" fill="#D6D6D6"/><path d="M1703.19 485.33c1.99 1.957-1.18 3.379-2.49 3.845-.59 1.048-.71 3.286-.71 3.845 5.41 1.118 8.18-2.098 8.89-3.845 1.14-3.636-2.13-6.292-3.91-6.991l-1.78 3.146z" fill="#D6D6D6"/><mask id="path-11-outside-1" maskUnits="userSpaceOnUse" x="1506.51" y="456.585" width="59" height="57" fill="#000"><path fill="#fff" d="M1506.51 456.585h59v57h-59z"/><path fill-rule="evenodd" clip-rule="evenodd" d="M1538.73 460.777c.61.06 1.21.141 1.8.243-.07-.021-.14-.041-.2-.061.37.08.9.049 1.15-.495.3-.667.84-1.801 1.07-2.285l2.36.598-.25 2.49c-.02.24.08.763.56 1.045.53.205 1.05.427 1.57.666a.89.89 0 00.65-.373c.47-.613 1.3-1.65 1.66-2.091l2.18 1.142-.91 2.484c-.06.199-.1.613.12.974.55.388 1.09.797 1.61 1.227.26.129.6.166.93-.075.6-.43 1.65-1.147 2.09-1.452l1.75 1.68-1.49 2.03c-.11.165-.26.536-.15.93.45.54.88 1.099 1.28 1.676-.1-.186-.2-.364-.29-.532.21.312.61.658 1.18.439.69-.27 1.88-.709 2.39-.895l1.26 2.054-1.96 1.601c-.19.172-.52.66-.31 1.235.04.095.01.082-.05-.015.2.451.39.909.57 1.374.18.195.45.332.83.276.77-.113 2.1-.282 2.67-.352l.75 2.318-2.42 1.149c-.21.114-.61.454-.64.965.07.424.13.852.18 1.283 0-.016 0-.031.01-.046l-.01.068.06.501c.09.286.29.558.72.624.73.114 1.99.333 2.52.429l.02 2.399-2.51.397a1.24 1.24 0 00-.74.498c-.04.405-.08.807-.14 1.207v-.003.004c-.02.18-.05.359-.08.538.01.355.15.755.58.935.68.29 1.84.81 2.33 1.034l-.59 2.329-2.53-.233c-.23-.01-.71.077-1 .475-.22.578-.46 1.146-.72 1.702.04.202.15.403.38.573.63.459 1.69 1.265 2.14 1.611l-1.14 2.156-2.54-.871a1.345 1.345 0 00-.87.061c-.47.666-.96 1.309-1.49 1.925-.05.345.08.662.17.816l1.53 2.172-1.81 1.654c-.46-.337-1.53-1.13-2.15-1.604a.94.94 0 00-.6-.209c-.53.442-1.07.863-1.63 1.26-.22.355-.18.753-.11.943l.89 2.342-2.13 1.173c-.35-.409-1.16-1.369-1.63-1.938-.21-.263-.5-.345-.78-.337-.67.312-1.35.594-2.05.847-.16.255-.2.536-.19.694l.28 2.488-2.36.615c-.23-.482-.78-1.612-1.09-2.277a.807.807 0 00-.49-.464c-.79.149-1.6.261-2.42.334-.3.213-.46.544-.5.73l-.49 2.595-2.47-.093c-.08-.557-.27-1.863-.36-2.627a.857.857 0 00-.29-.575c-.69-.051-1.37-.13-2.04-.236a1.28 1.28 0 00-.77.591l-1.05 2.28-2.35-.653c.05-.533.17-1.779.25-2.504a.845.845 0 00-.3-.765c-.72-.247-1.42-.526-2.11-.835-.28.073-.49.236-.59.348l-1.6 1.95-2.11-1.207c.18-.504.61-1.683.87-2.365.09-.23.08-.432.02-.604-.73-.477-1.42-.992-2.09-1.54-.31-.006-.58.101-.72.188l-2.19 1.518-1.7-1.767c.34-.454 1.13-1.515 1.61-2.125.13-.171.19-.342.21-.503a22.48 22.48 0 01-1.41-1.738 1.268 1.268 0 00-.85-.047l-2.38.903-1.21-2.083c.41-.347 1.38-1.158 1.96-1.619.25-.204.34-.448.33-.682-.5-1.016-.94-2.071-1.29-3.161a1.404 1.404 0 00-.75-.245l-2.68.128-.48-2.386c.54-.206 1.79-.683 2.52-.947a.94.94 0 00.48-.355c-.11-.693-.18-1.396-.23-2.108-.2-.337-.54-.503-.73-.549l-2.5-.486.11-2.397c.54-.077 1.8-.251 2.53-.339.33-.039.56-.23.7-.461.08-.736.2-1.461.35-2.176a1.291 1.291 0 00-.5-.517l-2.29-1.082.71-2.295c.54.058 1.81.198 2.54.293.28.037.5-.038.66-.164.3-.751.63-1.483.99-2.195a1.28 1.28 0 00-.36-.806l-1.99-1.777 1.39-2.014c.52.226 1.75.759 2.46 1.084.25.114.47.118.66.061.4-.53.82-1.043 1.26-1.539.15-.408.01-.81-.1-.987l-1.41-2.081 1.8-1.617c.44.32 1.45 1.074 2.04 1.525.31.242.63.23.89.124.56-.44 1.14-.856 1.74-1.247.1-.285.07-.569.03-.72l-.84-2.362 2.15-1.125c.34.417 1.14 1.396 1.59 1.976.16.211.36.31.56.339.76-.34 1.55-.643 2.36-.905.19-.261.24-.563.24-.733l-.15-2.635 2.42-.485c.21.522.71 1.747.99 2.467.08.224.21.371.36.465.68-.104 1.36-.181 2.04-.231a.853.853 0 00.53-.662c.12-.72.35-1.95.45-2.475h2.44l.39 2.475c.03.18.17.505.48.717zm17.49 9.821l-.11-.2c.03.06.06.129.11.2zm-15.89-9.639l-.22-.068c.06.026.13.05.22.068zm-19.63 19.497l5.95-2.93v21.078s4.05-2.093 6.77-4.358c2.01-1.676 3.31-3.287 3.31-3.287s2.77 2.912 4.41 4.144a37.212 37.212 0 005.73 3.501l2.21-1.858s-3.46-1.643-5.81-3.358c-2.35-1.715-4.93-4.573-4.93-4.573s3.31-4.144 4.78-9.788c1.47-5.645.81-10.933.81-10.933l-2.94-1.286c.49 7.136-.96 12.719-2.06 14.934s-3.45 6.43-5.95 8.86c-.81.786-2.81 2.701-3.09 2.643v-20.649l-7.87 4.001-1.32 3.859zm37.38 4.271c0 11.804-9.73 21.373-21.74 21.373-12.01 0-21.75-9.569-21.75-21.373 0-11.803 9.74-21.372 21.75-21.372s21.74 9.569 21.74 21.372z"/></mask><path fill-rule="evenodd" clip-rule="evenodd" d="M1538.73 460.777c.61.06 1.21.141 1.8.243-.07-.021-.14-.041-.2-.061.37.08.9.049 1.15-.495.3-.667.84-1.801 1.07-2.285l2.36.598-.25 2.49c-.02.24.08.763.56 1.045.53.205 1.05.427 1.57.666a.89.89 0 00.65-.373c.47-.613 1.3-1.65 1.66-2.091l2.18 1.142-.91 2.484c-.06.199-.1.613.12.974.55.388 1.09.797 1.61 1.227.26.129.6.166.93-.075.6-.43 1.65-1.147 2.09-1.452l1.75 1.68-1.49 2.03c-.11.165-.26.536-.15.93.45.54.88 1.099 1.28 1.676-.1-.186-.2-.364-.29-.532.21.312.61.658 1.18.439.69-.27 1.88-.709 2.39-.895l1.26 2.054-1.96 1.601c-.19.172-.52.66-.31 1.235.04.095.01.082-.05-.015.2.451.39.909.57 1.374.18.195.45.332.83.276.77-.113 2.1-.282 2.67-.352l.75 2.318-2.42 1.149c-.21.114-.61.454-.64.965.07.424.13.852.18 1.283 0-.016 0-.031.01-.046l-.01.068.06.501c.09.286.29.558.72.624.73.114 1.99.333 2.52.429l.02 2.399-2.51.397a1.24 1.24 0 00-.74.498c-.04.405-.08.807-.14 1.207v-.003.004c-.02.18-.05.359-.08.538.01.355.15.755.58.935.68.29 1.84.81 2.33 1.034l-.59 2.329-2.53-.233c-.23-.01-.71.077-1 .475-.22.578-.46 1.146-.72 1.702.04.202.15.403.38.573.63.459 1.69 1.265 2.14 1.611l-1.14 2.156-2.54-.871a1.345 1.345 0 00-.87.061c-.47.666-.96 1.309-1.49 1.925-.05.345.08.662.17.816l1.53 2.172-1.81 1.654c-.46-.337-1.53-1.13-2.15-1.604a.94.94 0 00-.6-.209c-.53.442-1.07.863-1.63 1.26-.22.355-.18.753-.11.943l.89 2.342-2.13 1.173c-.35-.409-1.16-1.369-1.63-1.938-.21-.263-.5-.345-.78-.337-.67.312-1.35.594-2.05.847-.16.255-.2.536-.19.694l.28 2.488-2.36.615c-.23-.482-.78-1.612-1.09-2.277a.807.807 0 00-.49-.464c-.79.149-1.6.261-2.42.334-.3.213-.46.544-.5.73l-.49 2.595-2.47-.093c-.08-.557-.27-1.863-.36-2.627a.857.857 0 00-.29-.575c-.69-.051-1.37-.13-2.04-.236a1.28 1.28 0 00-.77.591l-1.05 2.28-2.35-.653c.05-.533.17-1.779.25-2.504a.845.845 0 00-.3-.765c-.72-.247-1.42-.526-2.11-.835-.28.073-.49.236-.59.348l-1.6 1.95-2.11-1.207c.18-.504.61-1.683.87-2.365.09-.23.08-.432.02-.604-.73-.477-1.42-.992-2.09-1.54-.31-.006-.58.101-.72.188l-2.19 1.518-1.7-1.767c.34-.454 1.13-1.515 1.61-2.125.13-.171.19-.342.21-.503a22.48 22.48 0 01-1.41-1.738 1.268 1.268 0 00-.85-.047l-2.38.903-1.21-2.083c.41-.347 1.38-1.158 1.96-1.619.25-.204.34-.448.33-.682-.5-1.016-.94-2.071-1.29-3.161a1.404 1.404 0 00-.75-.245l-2.68.128-.48-2.386c.54-.206 1.79-.683 2.52-.947a.94.94 0 00.48-.355c-.11-.693-.18-1.396-.23-2.108-.2-.337-.54-.503-.73-.549l-2.5-.486.11-2.397c.54-.077 1.8-.251 2.53-.339.33-.039.56-.23.7-.461.08-.736.2-1.461.35-2.176a1.291 1.291 0 00-.5-.517l-2.29-1.082.71-2.295c.54.058 1.81.198 2.54.293.28.037.5-.038.66-.164.3-.751.63-1.483.99-2.195a1.28 1.28 0 00-.36-.806l-1.99-1.777 1.39-2.014c.52.226 1.75.759 2.46 1.084.25.114.47.118.66.061.4-.53.82-1.043 1.26-1.539.15-.408.01-.81-.1-.987l-1.41-2.081 1.8-1.617c.44.32 1.45 1.074 2.04 1.525.31.242.63.23.89.124.56-.44 1.14-.856 1.74-1.247.1-.285.07-.569.03-.72l-.84-2.362 2.15-1.125c.34.417 1.14 1.396 1.59 1.976.16.211.36.31.56.339.76-.34 1.55-.643 2.36-.905.19-.261.24-.563.24-.733l-.15-2.635 2.42-.485c.21.522.71 1.747.99 2.467.08.224.21.371.36.465.68-.104 1.36-.181 2.04-.231a.853.853 0 00.53-.662c.12-.72.35-1.95.45-2.475h2.44l.39 2.475c.03.18.17.505.48.717zm17.49 9.821l-.11-.2c.03.06.06.129.11.2zm-15.89-9.639l-.22-.068c.06.026.13.05.22.068zm-19.63 19.497l5.95-2.93v21.078s4.05-2.093 6.77-4.358c2.01-1.676 3.31-3.287 3.31-3.287s2.77 2.912 4.41 4.144a37.212 37.212 0 005.73 3.501l2.21-1.858s-3.46-1.643-5.81-3.358c-2.35-1.715-4.93-4.573-4.93-4.573s3.31-4.144 4.78-9.788c1.47-5.645.81-10.933.81-10.933l-2.94-1.286c.49 7.136-.96 12.719-2.06 14.934s-3.45 6.43-5.95 8.86c-.81.786-2.81 2.701-3.09 2.643v-20.649l-7.87 4.001-1.32 3.859zm37.38 4.271c0 11.804-9.73 21.373-21.74 21.373-12.01 0-21.75-9.569-21.75-21.373 0-11.803 9.74-21.372 21.75-21.372s21.74 9.569 21.74 21.372z" fill="#D6D6D6"/><path d="M1540.53 461.02l-.17.986.46-1.943-.29.957zm-1.8-.243l-.57.82.21.15.26.026.1-.996zm2.75-.313l-.91-.411.91.411zm1.07-2.285l.24-.969-.79-.201-.35.738.9.432zm2.36.598l1 .103.09-.86-.84-.212-.25.969zm-.25 2.49l-1-.103v.048l1 .055zm.56 1.045l-.51.861.07.042.08.03.36-.933zm1.57.666l-.43.907.24.111.27-.021-.08-.997zm.65-.373l-.79-.61.79.61zm1.66-2.091l.46-.886-.72-.38-.52.638.78.628zm2.18 1.142l.94.343.3-.823-.77-.406-.47.886zm-.91 2.484l-.93-.343-.01.021-.01.022.95.3zm.12.974l-.86.509.11.186.17.125.58-.82zm1.61 1.227l-.64.77.09.078.11.052.44-.9zm.93-.075l-.58-.813.58.813zm2.09-1.452l.7-.72-.59-.565-.67.459.56.826zm1.75 1.68l.8.592.52-.705-.63-.607-.69.72zm-1.49 2.03l-.81-.592-.01.019-.02.019.84.554zm-.15.93l-.97.259.06.214.14.17.77-.643zm1.28 1.676l-.81.574 1.69-1.057-.88.483zm.89-.093l.36.931-.36-.931zm2.39-.895l.85-.523-.43-.696-.76.28.34.939zm1.26 2.054l.63.774.68-.553-.46-.744-.85.523zm-1.96 1.601l-.63-.774-.02.014-.02.016.67.744zm-.31 1.235l-.94.345.94-.345zm-.05-.015l.82-.565-1.73.977.91-.412zm.57 1.374l-.94.354.07.182.13.143.74-.679zm.83.276l.14.99-.14-.99zm2.67-.352l.95-.306-.25-.788-.82.102.12.992zm.75 2.318l.43.903.79-.376-.27-.833-.95.306zm-2.42 1.149l-.43-.903-.02.009-.02.011.47.883zm-.64.965l-1-.07-.01.121.02.119.99-.17zm.18 1.283l-.99.116 1.99-.023-1-.093zm.01-.046l.99.041-1.99-.176 1 .135zm-.01.068l-1-.041v.078l.01.077.99-.114zm.06.501l-1 .094.01.107.03.102.96-.303zm.72.624l-.15.988.15-.988zm2.52.429l1-.009-.01-.83-.81-.146-.18.985zm.02 2.399l.16.988.85-.134-.01-.863-1 .009zm-2.51.397l-.16-.988-.02.003-.02.005.2.98zm-.74.498l-.83-.563-.14.215-.03.261 1 .087zm-.14 1.207l-.99-.138 1.92.513-.93-.375zm0-.003l.96.291-1.88-.673.92.382zm0 .004l-.95-.291-.03.076-.01.078.99.137zm-.08.538l-.99-.161-.01.098v.1l1-.037zm.58.935l-.39.92.39-.92zm2.33 1.034l.97.244.2-.811-.76-.344-.41.911zm-.59 2.329l-.09.996.86.078.2-.83-.97-.244zm-2.53-.233l.09-.996-.02-.002-.03-.001-.04.999zm-1 .475l-.81-.593-.08.111-.05.129.94.353zm-.72 1.702l-.9-.424-.14.284.06.31.98-.17zm.38.573l-.59.807.59-.807zm2.14 1.611l.88.469.4-.749-.67-.514-.61.794zm-1.14 2.156l-.33.945.81.278.4-.755-.88-.468zm-2.54-.871l.33-.946-.02-.007-.03-.006-.28.959zm-.87.061l-.41-.915-.25.113-.16.231.82.571zm-1.49 1.925l-.76-.65-.2.227-.03.296.99.127zm.17.816l-.84.537.01.019.02.018.81-.574zm1.53 2.172l.67.739.65-.593-.5-.721-.82.575zm-1.81 1.654l-.59.806.66.485.6-.552-.67-.739zm-2.15-1.604l.61-.793-.61.793zm-.6-.209l-.03-.999-.35.009-.26.224.64.766zm-1.63 1.26l-.58-.817-.18.123-.1.183.86.511zm-.11.943l-.95.313v.023l.01.022.94-.358zm.89 2.342l.49.876.76-.421-.31-.813-.94.358zm-2.13 1.173l-.76.65.53.619.72-.393-.49-.876zm-1.63-1.938l.78-.633-.78.633zm-.78-.337l-.03-.999-.21.006-.19.088.43.905zm-2.05.847l-.34-.94-.32.116-.18.287.84.537zm-.19.694l-.99.063v.047l.99-.11zm.28 2.488l.25.968.84-.219-.09-.86-1 .111zm-2.36.615l-.9.439.36.735.79-.206-.25-.968zm-1.09-2.277l-.91.418.91-.418zm-.49-.464l.33-.943-.25-.09-.27.05.19.983zm-2.42.334l-.08-.996-.27.023-.21.15.56.823zm-.5.73l-.98-.23v.045l.98.185zm-.49 2.595l-.04.999.86.033.16-.847-.98-.185zm-2.47-.093l-.99.145.12.823.83.032.04-1zm-.36-2.627l-.99.122.99-.122zm-.29-.575l.67-.744-.25-.228-.34-.025-.08.997zm-2.04-.236l.15-.988-.2-.031-.19.049.24.97zm-.77.591l-.88-.462-.01.022-.01.021.9.419zm-1.05 2.28l-.27.963.82.228.36-.772-.91-.419zm-2.35-.653l-.99-.089-.08.829.81.223.26-.963zm.25-2.504l-1-.112 1 .112zm-.3-.765l.64-.768-.15-.117-.17-.06-.32.945zm-2.11-.835l.41-.911-.32-.145-.34.089.25.967zm-.59.348l-.74-.669-.02.018-.01.018.77.633zm-1.6 1.95l-.49.868.73.42.54-.654-.78-.634zm-2.11-1.207l-.94-.338-.28.789.73.417.49-.868zm.87-2.365l-.93-.36.93.36zm.02-.604l.94-.35-.12-.306-.27-.179-.55.835zm-2.09-1.54l.63-.773-.27-.22-.34-.007-.02 1zm-.72.188l-.53-.847-.02.011-.02.013.57.823zm-2.19 1.518l-.73.693.59.613.7-.484-.56-.822zm-1.7-1.767l-.8-.598-.51.679.59.612.72-.693zm1.61-2.125l.79.616-.79-.616zm.21-.503l.99.071.03-.419-.28-.315-.74.663zm-1.41-1.738l.81-.592-.16-.219-.25-.107-.4.918zm-.85-.047l-.31-.95-.02.007-.03.008.36.935zm-2.38.903l-.86.503.43.733.79-.301-.36-.935zm-1.21-2.083l-.64-.765-.65.541.43.727.86-.503zm1.96-1.619l.63.78-.63-.78zm.33-.682l1-.019v-.225l-.1-.201-.9.445zm-1.29-3.161l.95-.312-.11-.312-.26-.191-.58.815zm-.75-.245v-1l-.03.001-.02.001.05.998zm-2.68.128l-.98.194.16.845.86-.041-.04-.998zm-.48-2.386l-.36-.933-.78.302.16.825.98-.194zm2.52-.947l.34.941-.34-.941zm.48-.355l.83.552.21-.321-.05-.382-.99.151zm-.23-2.108l1-.062-.02-.24-.12-.207-.86.509zm-.73-.549l.23-.972-.02-.006-.02-.004-.19.982zm-2.5-.486l-1-.046-.04.863.85.165.19-.982zm.11-2.397l-.14-.99-.82.116-.04.828 1 .046zm2.53-.339l-.11-.993.11.993zm.7-.461l.85.522.12-.188.02-.22-.99-.114zm.35-2.176l.98.205.07-.344-.16-.314-.89.453zm-.5-.517l.47-.884-.02-.011-.02-.009-.43.904zm-2.29-1.082l-.96-.297-.26.831.79.371.43-.905zm.71-2.295l.11-.994-.82-.087-.24.785.95.296zm2.54.293l.13-.991-.13.991zm.66-.164l.61.791.22-.169.1-.258-.93-.364zm.99-2.195l.89.457.13-.243-.02-.272-1 .058zm-.36-.806l.7-.715-.02-.016-.02-.015-.66.746zm-1.99-1.777l-.82-.566-.5.725.66.587.66-.746zm1.39-2.014l.39-.918-.75-.326-.47.678.83.566zm2.46 1.084l.41-.91-.41.91zm.66.061l.29.958.31-.094.2-.264-.8-.6zm1.26-1.539l.75.663.12-.142.07-.178-.94-.343zm-.1-.987l.85-.522-.01-.021-.01-.019-.83.562zm-1.41-2.081l-.67-.745-.65.584.49.723.83-.562zm1.8-1.617l.59-.805-.65-.483-.61.543.67.745zm2.04 1.525l-.62.791.62-.791zm.89.124l.37.929.14-.054.11-.088-.62-.787zm1.74-1.247l.55.838.28-.185.12-.32-.95-.333zm.03-.72l.96-.291-.01-.023-.01-.023-.94.337zm-.84-2.362l-.47-.887-.77.402.29.821.95-.336zm2.15-1.125l.78-.632-.52-.631-.72.376.46.887zm1.59 1.976l.79-.614-.79.614zm.56.339l-.15.989.29.042.26-.117-.4-.914zm2.36-.905l.31.951.31-.102.19-.266-.81-.583zm.24-.733l1-.012v-.046l-1 .058zm-.15-2.635l-.2-.98-.85.171.05.867 1-.058zm2.42-.485l.93-.379-.32-.764-.81.162.2.981zm.99 2.467l.93-.357-.93.357zm.36.465l-.53.849.32.196.37-.057-.16-.988zm2.04-.231l.08.998.16-.012.16-.066-.4-.92zm.53-.662l.98.167-.98-.167zm.45-2.475v-1h-.82l-.16.81.98.19zm2.44 0l.99-.152-.13-.848h-.86v1zm.39 2.475l-.99.152v.024l.01.023.98-.199zm17.86 10.338l.88-.481-1.8.877.92-.396zm-16-9.507l.29-.956-.67 1.882.38-.926zm-13.46 16.635h1v-1.606l-1.44.709.44.897zm-5.95 2.93l-.95-.325-.79 2.291 2.18-1.069-.44-.897zm5.95 18.148h-1v1.643l1.46-.755-.46-.888zm6.77-4.358l.64.768-.64-.768zm3.31-3.287l.72-.69-.79-.825-.71.887.78.628zm4.41 4.144l.6-.799-.6.799zm5.73 3.501l-.42.905.58.273.49-.413-.65-.765zm2.21-1.858l.64.765 1.19-1-1.4-.668-.43.903zm-5.81-3.358l-.59.808.59-.808zm-4.93-4.573l-.78-.624-.53.663.57.631.74-.67zm4.78-9.788l-.96-.253.96.253zm.81-10.933l.99-.124-.07-.564-.52-.228-.4.916zm-2.94-1.286l.4-.916-1.51-.661.11 1.646 1-.069zm-2.06 14.934l-.89-.446.89.446zm-5.95 8.86l.69.717-.69-.717zm-3.09 2.643h-1v.819l.8.162.2-.981zm0-20.649h1v-1.631l-1.46.74.46.891zm-7.87 4.001l-.45-.891-.36.183-.14.384.95.324zm18.68-16.563c-.62-.106-1.24-.19-1.87-.252l-.2 1.991c.58.057 1.16.135 1.73.233l.34-1.972zm-.66 1.882c.06.02.13.04.2.061l.58-1.914c-.07-.021-.14-.041-.2-.061l-.58 1.914zm.53-1.863c-.01.007-.01.006 0-.001 0-.007.01-.017.02-.027a.252.252 0 01.06-.034c.01-.002 0 .001-.02.001a.394.394 0 01-.09-.01l-.42 1.954c.29.063.7.098 1.13-.036.46-.145.89-.476 1.14-1.025l-1.82-.822zm1.08-2.306c-.23.484-.78 1.627-1.08 2.306l1.82.822c.3-.656.83-1.78 1.06-2.264l-1.8-.864zm3.51.061l-2.37-.598-.49 1.939 2.37.598.49-1.939zm.49 3.562l.26-2.49-1.99-.206-.26 2.49 1.99.206zm.08.081c-.02-.008-.02-.016-.03-.024a.138.138 0 01-.03-.042c0-.021-.01-.042-.01-.061-.01-.021 0-.024-.01-.002l-1.99-.11c-.03.459.14 1.421 1.05 1.961l1.02-1.722zm1.48.621c-.54-.249-1.08-.48-1.63-.693l-.72 1.866c.51.197 1.01.41 1.5.64l.85-1.813zm-.34 1.903c.5-.04.99-.276 1.36-.76l-1.58-1.22c-.01.012-.01.016-.01.014 0-.001 0-.006.01-.011.01-.005.02-.01.03-.012a.103.103 0 01.03-.004l.16 1.993zm1.36-.76c.47-.603 1.29-1.632 1.65-2.073l-1.56-1.256c-.36.442-1.19 1.486-1.67 2.109l1.58 1.22zm.41-1.815l2.18 1.142.93-1.772-2.19-1.142-.92 1.772zm1.7-.087l-.9 2.484 1.87.686.91-2.484-1.88-.686zm-.92 2.527c-.12.379-.19 1.106.21 1.783l1.72-1.017c-.01-.014-.02-.043-.02-.093-.01-.024 0-.046 0-.064v-.009l-1.91-.6zm3.32 1.732c-.54-.448-1.1-.874-1.68-1.277l-1.15 1.639c.54.371 1.05.764 1.55 1.177l1.28-1.539zm-.29-.119c-.01.007-.01.004.01-.001a.128.128 0 01.05-.009c.03-.001.05.009.02-.002l-.87 1.8c.52.25 1.25.34 1.96-.162l-1.17-1.626zm2.11-1.465c-.45.305-1.5 1.028-2.11 1.465l1.17 1.626c.58-.423 1.62-1.134 2.07-1.439l-1.13-1.652zm3 1.786l-1.74-1.68-1.39 1.44 1.74 1.68 1.39-1.44zm-1.38 3.341l1.49-2.029-1.61-1.184-1.49 2.03 1.61 1.183zm.01.08c0-.011 0-.035.01-.074 0-.019.01-.036.01-.047.01-.014.01-.013 0 .003l-1.67-1.107c-.22.331-.48.996-.28 1.743l1.93-.518zm1.14 1.362c-.42-.602-.86-1.184-1.34-1.746l-1.53 1.286c.44.517.85 1.053 1.24 1.607l1.63-1.147zm.06.09c-.1-.185-.2-.363-.29-.53l-1.75.963c.09.168.19.347.29.533l1.75-.966zm-2 .504c.16.25.44.561.84.761.44.218.97.274 1.53.056l-.73-1.863c-.01.004-.01.004 0 .003 0-.001.01-.002.03-.002l.04.006c.01.004.02.007.02.009.01.004 0 .003-.01-.013a.332.332 0 01-.06-.063l-1.66 1.106zm2.37.817c.68-.265 1.86-.7 2.37-.886l-.68-1.879c-.51.186-1.72.628-2.42.902l.73 1.863zm1.18-1.302l1.26 2.054 1.7-1.047-1.26-2.054-1.7 1.047zm1.48.756l-1.96 1.601 1.27 1.548 1.95-1.601-1.26-1.548zm-2 1.631c-.35.315-.99 1.209-.58 2.324l1.88-.689c-.01-.019-.01-.029-.01-.035 0-.008.01-.021.01-.042a.189.189 0 01.04-.061c.01-.021.02-.023 0-.01l-1.34-1.487zm-.58 2.324v-.024a.296.296 0 01-.03-.105c0-.028-.01-.08-.01-.146 0-.054 0-.188.06-.348a.973.973 0 01.57-.589.993.993 0 011.05.208c.04.034.06.062.07.07.01.018.01.025 0 .009l-1.65 1.13c.03.033.06.078.09.122.02.022.05.06.1.101.01.012.14.148.35.228.12.044.4.121.72-.004.35-.137.51-.417.58-.594.06-.162.06-.299.06-.357a.587.587 0 00-.02-.159c-.01-.111-.05-.204-.06-.231l-1.88.689zm2.39.66a23.88 23.88 0 00-.59-1.431l-1.82.823c.19.432.37.87.54 1.316l1.87-.708zm-.25-.359l-.02.002c.01 0 .02.002.03.007l.03.017c.01.005.01.008.01.007l-1.47 1.359c.39.415.98.695 1.71.587l-.29-1.979zm2.7-.355c-.57.07-1.91.24-2.7.355l.29 1.979c.77-.111 2.09-.279 2.66-.349l-.25-1.985zm1.82 3.004l-.75-2.318-1.9.612.75 2.318 1.9-.612zm-2.94 2.358l2.42-1.149-.86-1.806-2.42 1.149.86 1.806zm-.08.133c0-.009.01-.035.04-.08a.538.538 0 01.06-.058c.02-.017.03-.021.02-.015l-.94-1.766c-.38.201-1.1.789-1.17 1.778l1.99.141zm.18 1.096c-.05-.449-.11-.894-.19-1.336l-1.97.339c.07.406.13.816.18 1.229l1.98-.232zm-1.98-.065c0 .029 0 .058-.01.088l2 .186v-.004l-1.99-.27zm1.99.244v-.068l-1.99-.082-.01.068 2 .082zm.05.367c-.02-.175-.03-.349-.05-.523l-1.99.229c.02.16.03.32.05.481l1.99-.187zm-1.95.396c.18.558.64 1.172 1.53 1.309l.3-1.976c-.01-.002-.01-.004.01.004.01.007.03.019.04.034.03.029.04.047.03.023l-1.91.606zm1.53 1.309c.72.112 1.96.33 2.49.425l.36-1.969c-.54-.095-1.8-.316-2.55-.432l-.3 1.976zm1.67-.551l.02 2.4 2-.018-.02-2.399-2 .017zm.87 1.403l-2.52.397.31 1.975 2.52-.396-.31-1.976zm-2.56.405c-.37.076-.97.334-1.37.915l1.66 1.126c0-.014.03-.035.06-.058l.05-.023c.01-.005.01-.004 0-.001l-.4-1.959zm.31 2.823c.06-.417.11-.836.15-1.258l-2-.174c-.03.388-.07.773-.13 1.156l1.98.276zm-1.91-.523v.009l1.85.751v.004l-1.85-.764zm1.88.678v-.005l-1.91-.582v.004l1.91.583zm-.05.406c.03-.186.06-.372.08-.56l-1.98-.275a8.99 8.99 0 01-.08.514l1.98.321zm-1.99-.123c.02.554.26 1.424 1.19 1.818l.78-1.84.01.004c0 .004.01.009.01.014.02.013.02.024.03.027 0 .003-.01-.004-.01-.022s-.01-.044-.01-.075l-2 .074zm1.19 1.818c.67.285 1.81.801 2.31 1.025l.82-1.822c-.49-.224-1.66-.748-2.35-1.043l-.78 1.84zm1.75-.13l-.59 2.329 1.94.488.59-2.329-1.94-.488zm.48 1.577l-2.54-.233-.18 1.992 2.53.233.19-1.992zm-2.59-.236c-.42-.019-1.29.122-1.85.881l1.62 1.186c0-.012.02-.031.07-.049a.357.357 0 01.07-.017c.02-.004.02-.002 0-.003l.09-1.998zm-.85 3.6c.27-.58.52-1.171.75-1.774l-1.88-.705c-.2.554-.43 1.098-.68 1.631l1.81.848zm.06-.659c-.02-.016-.02-.017-.01.002.01.009.01.02.02.032 0 .012.01.022.01.031l-1.97.34c.08.464.33.892.77 1.21l1.18-1.615zm2.16 1.625c-.45-.346-1.52-1.158-2.16-1.625l-1.18 1.615c.62.452 1.67 1.253 2.12 1.598l1.22-1.588zm-.87 3.418l1.14-2.155-1.76-.937-1.15 2.155 1.77.937zm-3.74-.393l2.53.87.65-1.891-2.53-.871-.65 1.892zm-.15.031a.261.261 0 01.11-.022c.03-.001.05.001.07.003.02.002.02.004.01.001l.56-1.918c-.35-.103-.95-.16-1.56.105l.81 1.831zm-1.13 1.659c.55-.641 1.06-1.31 1.55-2.004l-1.64-1.142c-.45.639-.93 1.255-1.43 1.846l1.52 1.3zm.26-.371v-.005c-.01-.012-.01-.03-.02-.05-.01-.042-.01-.076-.01-.097l-1.98-.254c-.08.628.13 1.177.32 1.48l1.69-1.074zm1.5 2.134l-1.53-2.172-1.63 1.149 1.52 2.173 1.64-1.15zm-1.96 2.968l1.81-1.654-1.34-1.478-1.82 1.654 1.35 1.478zm-3.43-1.55c.63.482 1.71 1.28 2.17 1.617l1.18-1.612c-.46-.337-1.52-1.124-2.13-1.591l-1.22 1.586zm.04-.002l-.03-.001-.02-.006-.01-.003c0 .001.01.004.02.012l1.22-1.586a1.924 1.924 0 00-1.24-.415l.06 1.999zm-1.09 1.077c.59-.413 1.16-.851 1.7-1.311l-1.28-1.532c-.51.424-1.03.828-1.57 1.209l1.15 1.634zm-1.43-1.328c-.4.67-.33 1.386-.2 1.767l1.9-.626v-.044c0-.04.01-.063.01-.074l-1.71-1.023zm-.19 1.812l.9 2.342 1.87-.716-.9-2.342-1.87.716zm1.35 1.108l-2.13 1.173.97 1.752 2.13-1.173-.97-1.752zm-.89 1.399c-.35-.409-1.16-1.361-1.61-1.921l-1.55 1.265c.47.579 1.29 1.547 1.64 1.956l1.52-1.3zm-1.61-1.921c-.46-.566-1.09-.719-1.59-.703l.06 1.999c.03-.001.04.004.02-.001 0-.003-.01-.008-.02-.015l-.02-.015 1.55-1.265zm-3.26 2.083c.72-.263 1.43-.557 2.12-.881l-.85-1.811c-.64.298-1.29.57-1.96.812l.69 1.88zm-1.19-1.477c-.29.459-.36.958-.34 1.294l1.99-.126v.012c0-.006.01-.018.01-.032.01-.03.02-.056.03-.073l-1.69-1.075zm-.34 1.341l.28 2.488 1.99-.221-.28-2.488-1.99.221zm1.02 1.41l-2.36.615.5 1.936 2.36-.615-.5-1.936zm-1.21 1.144c-.24-.482-.78-1.602-1.08-2.255l-1.82.835c.32.677.87 1.816 1.1 2.298l1.8-.878zm-1.08-2.255c-.23-.51-.63-.834-1.07-.99l-.66 1.885a.12.12 0 01-.06-.036c-.03-.021-.03-.035-.03-.024l1.82-.835zm-3.73 1.283c.85-.076 1.69-.192 2.52-.348l-.38-1.965c-.76.143-1.53.251-2.31.321l.17 1.992zm.38-.037v-.005a.46.46 0 00.03-.051.367.367 0 01.07-.081l-1.13-1.645c-.56.387-.83.959-.92 1.323l1.95.459zm-.48 2.551l.49-2.596-1.96-.369-.49 2.595 1.96.37zm-3.49.722l2.47.092.08-1.998-2.47-.093-.08 1.999zm-1.31-3.505c.09.777.28 2.092.36 2.65l1.98-.289c-.08-.558-.27-1.854-.36-2.605l-1.98.244zm.04.047c-.01-.005-.02-.012-.02-.021-.01-.009-.02-.018-.02-.026-.01-.018-.01-.021 0 0l1.98-.244a1.871 1.871 0 00-.61-1.197l-1.33 1.488zm-1.54.008c.7.11 1.41.192 2.13.245l.15-1.994c-.67-.049-1.32-.125-1.97-.227l-.31 1.976zm-.08-1.958c-.76.189-1.23.742-1.41 1.099l1.77.924c-.01.017-.01.016 0 .004.01-.011.02-.025.04-.039a.186.186 0 01.08-.048l-.48-1.94zm-1.43 1.142l-1.06 2.279 1.82.839 1.05-2.28-1.81-.838zm.12 1.735l-2.35-.653-.53 1.927 2.34.653.54-1.927zm-1.62.399c.05-.532.16-1.768.24-2.48l-1.99-.224c-.08.738-.2 1.995-.24 2.527l1.99.177zm.24-2.48a1.847 1.847 0 00-.65-1.645l-1.28 1.537c0 .002-.02-.014-.04-.053-.01-.019-.01-.038-.01-.052-.01-.015-.01-.019-.01-.011l1.99.224zm-3.81-.8c.71.321 1.44.612 2.19.869l.65-1.891c-.69-.237-1.36-.505-2.02-.801l-.82 1.823zm.56.106c-.01.011-.01.012 0 .007 0-.005.01-.012.02-.02.03-.017.06-.03.09-.037l-.51-1.935a2.22 2.22 0 00-1.08.646l1.48 1.339zm-1.56 1.914l1.59-1.95-1.54-1.267-1.6 1.95 1.55 1.267zm-3.38-.973l2.11 1.207.99-1.736-2.11-1.207-.99 1.736zm.43-3.593c-.27.695-.7 1.883-.88 2.387l1.88.676c.18-.505.61-1.673.87-2.344l-1.87-.719zm.01.106c-.01-.021-.01-.049-.01-.077v-.029l1.87.719c.17-.455.17-.91.02-1.313l-1.88.7zm-1.79-1.117c.7.571 1.42 1.106 2.18 1.602l1.1-1.67c-.7-.458-1.37-.952-2.01-1.478l-1.27 1.546zm.66-1.773c-.53-.011-.99.167-1.27.341l1.06 1.695c-.01.005 0 .003.01-.002s.03-.011.04-.017a.427.427 0 01.12-.017l.04-2zm-1.31.365l-2.19 1.518 1.13 1.645 2.2-1.517-1.14-1.646zm-.9 1.648l-1.7-1.767-1.44 1.386 1.69 1.767 1.45-1.386zm-1.62-.476c.34-.454 1.13-1.507 1.6-2.107l-1.58-1.232c-.48.62-1.29 1.689-1.62 2.143l1.6 1.196zm1.6-2.107c.25-.317.39-.675.41-1.048l-1.99-.141c0-.021 0-.038.01-.05 0-.012 0-.009-.01.007l1.58 1.232zm-2.79-2.265c.46.625.94 1.229 1.46 1.809l1.49-1.326c-.47-.535-.92-1.091-1.34-1.667l-1.61 1.184zm1.2-1.51a2.269 2.269 0 00-1.56-.079l.62 1.9c-.01.005-.01.004 0 .002a.295.295 0 01.15.013l.79-1.836zm-1.61-.064l-2.37.903.71 1.87 2.37-.903-.71-1.87zm-1.15 1.335l-1.21-2.083-1.73 1.006 1.21 2.083 1.73-1.006zm-1.43-.815c.41-.347 1.37-1.151 1.94-1.604l-1.26-1.56c-.58.47-1.56 1.286-1.97 1.634l1.29 1.53zm1.94-1.604c.51-.411.71-.96.7-1.481l-2 .038c0-.011 0-.041.02-.077.01-.017.02-.03.02-.038.01-.008.01-.008 0-.002l1.26 1.56zm-2.54-4.311c.37 1.136.82 2.236 1.35 3.294l1.79-.89c-.49-.973-.9-1.984-1.24-3.028l-1.9.624zm1.53-1.127a2.371 2.371 0 00-1.33-.43v2c-.01 0 0 0 .01.002s.03.006.05.012c.05.012.08.03.11.046l1.16-1.63zm-1.38-.428l-2.68.127.09 1.997 2.69-.127-.1-1.997zm-1.65.931l-.48-2.386-1.96.389.48 2.386 1.96-.389zm-1.1-1.258c.54-.205 1.78-.679 2.5-.939l-.68-1.882c-.74.269-2 .749-2.54.955l.72 1.866zm2.5-.939c.42-.15.75-.407.97-.744l-1.67-1.105c.01-.007.01-.015.02-.022.01-.007.01-.012.02-.016.01-.008.01-.004-.02.005l.68 1.882zm-1.09-3.341c.05.741.13 1.473.24 2.196l1.98-.302c-.11-.664-.18-1.338-.22-2.019l-2 .125zm.03.359c-.02-.003-.01-.004 0 .002s.03.014.05.026c.03.024.05.047.06.06l1.72-1.019c-.37-.63-.98-.921-1.36-1.012l-.47 1.943zm-2.45-.475l2.5.485.38-1.963-2.5-.486-.38 1.964zm-.7-3.425l-.11 2.397 2 .092.11-2.398-2-.091zm3.42-1.286c-.75.089-2.03.265-2.56.342l.28 1.98c.54-.077 1.79-.25 2.51-.336l-.23-1.986zm-.04.01c-.02.022-.02.02-.01.009l.03-.014a.083.083 0 01.02-.005l.23 1.986c.7-.083 1.17-.504 1.43-.932l-1.7-1.044zm.22-1.859a24.25 24.25 0 00-.37 2.268l1.99.227c.08-.705.19-1.4.34-2.085l-1.96-.41zm.02.572c-.02-.007-.02-.008-.01-.003s.02.013.03.024c.02.023.04.046.05.065l1.78-.906a2.252 2.252 0 00-.92-.948l-.93 1.768zm-2.26-1.061l2.3 1.082.85-1.809-2.3-1.082-.85 1.809zm.19-3.496l-.72 2.294 1.91.594.72-2.295-1.91-.593zm3.62-.402c-.75-.098-2.02-.238-2.56-.296l-.21 1.989c.54.058 1.79.196 2.51.29l.26-1.983zm-.08.035c.01-.01.04-.022.06-.03.03-.007.04-.003.02-.005l-.26 1.983c.55.071 1.03-.079 1.4-.365l-1.22-1.583zm.71-1.859c-.38.742-.72 1.504-1.03 2.286l1.86.729c.29-.719.6-1.42.95-2.102l-1.78-.913zm1.89.398c-.04-.68-.4-1.204-.66-1.463l-1.4 1.429c-.01-.008-.01-.006 0 .007.01.013.02.03.03.05a.15.15 0 01.03.094l2-.117zm-.7-1.494l-1.98-1.776-1.33 1.491 1.98 1.776 1.33-1.491zm-1.82-.465l1.38-2.014-1.65-1.132-1.38 2.014 1.65 1.132zm.16-1.662c.53.226 1.74.756 2.44 1.075l.83-1.819c-.72-.329-1.95-.866-2.48-1.092l-.79 1.836zm2.44 1.075c.47.213.94.238 1.37.11l-.57-1.916c0-.002.01-.004.02-.005l.02-.001c.01.001.02.002.01.002 0-.001 0-.003-.02-.009l-.83 1.819zm1.59-3.05c-.46.516-.89 1.05-1.31 1.602l1.6 1.2c.38-.508.78-1 1.21-1.476l-1.5-1.326zm-.2.198c-.01-.016-.01-.017 0-.002 0 .014.01.031.01.051.01.04 0 .063 0 .073l1.88.686c.28-.779.03-1.503-.19-1.852l-1.7 1.044zm-1.39-2.041l1.41 2.081 1.66-1.124-1.42-2.081-1.65 1.124zm1.96-2.924l-1.8 1.617 1.33 1.489 1.81-1.617-1.34-1.489zm3.32 1.479a140.8 140.8 0 00-2.06-1.539l-1.18 1.61c.43.321 1.44 1.068 2.01 1.511l1.23-1.582zm-.09-.013c-.02.007 0-.003.03.001.02.001.04.006.05.011.02.005.02.008.01.001l-1.23 1.582c.65.501 1.36.471 1.88.262l-.74-1.857zm1.57-1.156c-.63.407-1.23.84-1.82 1.297l1.24 1.574a22.88 22.88 0 011.67-1.196l-1.09-1.675zm1.49 1.17c.18-.517.13-1.022.04-1.344l-1.92.581v-.011.033c0 .03 0 .057-.01.076l1.89.665zm.02-1.39l-.84-2.361-1.89.672.85 2.362 1.88-.673zm-1.32-1.139l2.16-1.124-.93-1.774-2.16 1.125.93 1.773zm.92-1.379c.34.417 1.12 1.388 1.57 1.958l1.58-1.228c-.46-.59-1.26-1.577-1.6-1.994l-1.55 1.264zm1.57 1.958c.32.419.75.648 1.2.714l.29-1.978c.02.002.04.008.06.022.03.013.03.024.03.014l-1.58 1.228zm3.4-2.131c-.84.273-1.66.588-2.46.942l.81 1.828c.74-.326 1.5-.616 2.27-.868l-.62-1.902zm1.12 1.534c.34-.465.43-.985.43-1.328l-2 .024v.001c0 .011-.01.027-.01.045-.01.039-.03.071-.04.092l1.62 1.166zm.43-1.374l-.15-2.634-2 .115.15 2.635 2-.116zm-.96-1.596l2.43-.486-.4-1.961-2.42.486.39 1.961zm1.31-1.088c.21.523.7 1.738.97 2.447l1.87-.715c-.28-.732-.78-1.966-.99-2.489l-1.85.757zm.97 2.447c.16.418.43.742.77.956l1.06-1.697c.01.004.02.009.02.015.01.007.02.013.02.018.01.011.01.012 0-.007l-1.87.715zm3.27-1.121c-.71.051-1.42.132-2.12.24l.31 1.976c.64-.099 1.3-.174 1.96-.221l-.15-1.995zm-.39.167v-.01l.03-.044c.03-.031.05-.039.04-.036l.79 1.84c.5-.214.98-.666 1.11-1.415l-1.97-.335zm.46-2.497c-.1.525-.34 1.765-.46 2.497l1.97.335c.12-.707.35-1.927.45-2.452l-1.96-.38zm3.42-.81h-2.44v2h2.44v-2zm1.37 3.322l-.38-2.474-1.97.304.38 2.475 1.97-.305zm.07.051c-.01-.012-.04-.033-.06-.066 0-.016-.01-.03-.02-.04 0-.011 0-.01.01.008l-1.96.399c.07.371.33.947.89 1.338l1.14-1.639zm17.8 10.159l-.11-.2-1.76.962.11.2 1.76-.962zm-1.91.677c.05.117.12.239.2.357l1.66-1.106c0-.011-.01-.021-.01-.029-.01-.009-.01-.014-.01-.015l-1.84.793zm-14.57-10.792l-.22-.067-.59 1.913.23.068.58-1.914zm-.89 1.815c.12.048.25.089.39.119l.42-1.954-.04-.01c-.01-.003-.01-.006-.02-.006l-.75 1.851zm-13.52 14.812l-5.96 2.929.89 1.795 5.95-2.93-.88-1.794zm1.44 21.975v-21.078h-2v21.078h2zm5.13-5.126c-1.3 1.082-2.94 2.141-4.28 2.938-.66.396-1.24.722-1.65.949-.21.114-.38.202-.49.262-.05.03-.1.052-.13.067a.114.114 0 01-.03.017c0 .002 0 .003-.01.004v.001l.46.888.46.888.01-.002c0-.001 0-.003.01-.005 0-.004.02-.011.03-.019.03-.017.08-.041.14-.073l.51-.275c.43-.236 1.03-.574 1.72-.985 1.37-.816 3.11-1.937 4.53-3.119l-1.28-1.536zm3.95-2.519l-.78-.628v.002c-.01.002-.01.005-.01.01-.01.011-.02.027-.04.048-.04.043-.09.108-.17.192a23.5 23.5 0 01-.63.706c-.56.59-1.36 1.383-2.32 2.189l1.28 1.536c1.04-.87 1.9-1.721 2.49-2.355.3-.317.54-.582.7-.768.08-.094.14-.168.18-.219.03-.026.04-.046.05-.061.01-.007.01-.012.02-.017v-.007l-.77-.628zm5.01 3.345c-.76-.572-1.82-1.566-2.72-2.449-.44-.435-.84-.832-1.12-1.121-.14-.144-.25-.261-.33-.342l-.09-.092c-.01-.011-.02-.019-.02-.024-.01-.002-.01-.004-.01-.006v-.001l-.72.69-.73.69v.003c.01.001.01.003.01.006.01.006.01.015.03.026l.09.097c.08.083.2.203.34.351.29.296.69.704 1.15 1.151.9.881 2.04 1.959 2.92 2.619l1.2-1.598zm5.13 4.3l.43-.904v-.001l-.01-.002c0-.002-.01-.005-.02-.01l-.09-.044c-.08-.039-.2-.099-.35-.177-.31-.156-.75-.388-1.27-.685a34.846 34.846 0 01-3.82-2.477l-1.2 1.598a37.612 37.612 0 005.76 3.537c.05.022.08.039.11.051.01.006.02.01.03.013v.004l.01.001v.001l.42-.905zm1.57-2.622l-2.21 1.857 1.29 1.53 2.2-1.858-1.28-1.529zm-5.76-1.786c1.23.897 2.73 1.762 3.9 2.394.59.319 1.11.582 1.47.767l.44.214c.05.025.09.045.12.058a.21.21 0 00.03.015c0 .002 0 .003.01.004v.001l.43-.903.43-.903-.01-.003c-.01-.003-.01-.008-.03-.014-.02-.011-.06-.029-.11-.052-.09-.047-.23-.116-.41-.205-.35-.177-.85-.432-1.42-.739-1.14-.618-2.55-1.432-3.67-2.25l-1.18 1.616zm-4.34-5.381l-.74.67v.003c0 .001.01.004.01.007.01.006.01.014.02.026l.09.098c.08.084.19.205.34.356.28.301.68.72 1.16 1.194.95.941 2.22 2.126 3.46 3.027l1.18-1.616c-1.12-.813-2.31-1.915-3.23-2.832a44.27 44.27 0 01-1.12-1.145c-.14-.145-.24-.26-.32-.339a.892.892 0 00-.08-.089c-.01-.01-.01-.018-.02-.022v-.007l-.75.669zm3.82-10.041c-.71 2.709-1.86 5.071-2.84 6.762-.49.843-.94 1.514-1.26 1.971-.16.228-.28.403-.37.519-.04.058-.08.101-.1.129-.01.014-.02.024-.02.03-.01.003-.01.005-.01.006v.001l.78.623.79.624v-.005c0-.003.01-.007.01-.012a.19.19 0 00.03-.042c.03-.036.07-.087.12-.153.1-.133.24-.326.41-.575.35-.496.83-1.214 1.35-2.112 1.04-1.793 2.28-4.325 3.04-7.261l-1.93-.505zm1.77-10.68l-.99.124v.01c0 .008 0 .021.01.038 0 .036.01.091.01.164.02.146.04.364.05.646.04.562.08 1.374.07 2.359-.02 1.974-.22 4.621-.92 7.339l1.93.505c.76-2.926.97-5.746.99-7.826.01-1.043-.03-1.906-.07-2.511a14.08 14.08 0 00-.06-.707c-.01-.082-.01-.146-.02-.191v-.067c-.01-.002-.01-.003-.01-.004v-.002l-.99.123zm-3.34-.369l2.94 1.286.8-1.833-2.94-1.286-.8 1.833zm-.76 14.462c1.2-2.406 2.66-8.174 2.16-15.447l-2 .137c.48 6.998-.95 12.396-1.95 14.419l1.79.891zm-6.16 9.132c2.63-2.558 5.05-6.909 6.16-9.132l-1.79-.891c-1.1 2.207-3.39 6.287-5.76 8.588l1.39 1.435zm-3.98 2.907c.29.059.53-.024.61-.052.11-.039.2-.089.27-.128.14-.08.28-.183.42-.285.27-.208.59-.487.91-.777.65-.584 1.37-1.271 1.77-1.665l-1.39-1.435c-.4.393-1.09 1.056-1.71 1.612-.31.28-.59.518-.8.677a2.17 2.17 0 01-.2.142c-.02.009 0-.005.05-.022.02-.005.21-.08.47-.028l-.4 1.961zm-.8-21.63v20.649h2v-20.649h-2zm-6.42 4.893l7.87-4.002-.91-1.782-7.86 4.001.9 1.783zm-.83 3.291l1.33-3.858-1.9-.649-1.32 3.858 1.89.649zm14.7 26.32c12.54 0 22.74-10 22.74-22.373h-2c0 11.235-9.27 20.373-20.74 20.373v2zm-22.75-22.373c0 12.373 10.2 22.373 22.75 22.373v-2c-11.47 0-20.75-9.138-20.75-20.373h-2zm22.75-22.372c-12.55 0-22.75 10-22.75 22.372h2c0-11.235 9.28-20.372 20.75-20.372v-2zm22.74 22.372c0-12.372-10.2-22.372-22.74-22.372v2c11.47 0 20.74 9.137 20.74 20.372h2z" fill="#D6D6D6" mask="url(#path-11-outside-1)"/><path d="M1973 598.483c39.91-6.163 121.49-19.529 122.91-18.491 1.42 1.038 67.18 12.867 99.18 18.166 0 14.922 1.77 41.522-1.06 41.198-2.27-.259-147.95-.432-221.03-.324v-40.549zm0-.022v-5.593l51.57-12.933 7.11 8.738-58.68 9.788z" fill="#D6D6D6"/><path fill-rule="evenodd" clip-rule="evenodd" d="M1900.8 519.658l.13-.204c1.88 1.962 6.61 4.418 11.61-.494 1.46-2.155 4.15-6.91 4.58-10.498l.04.011c.71-2.913 1.64-9.438-.36-12.235-1.42-3.029-5.26-8.809-9.24-7.69-.36.466-.57 1.748 1.42 3.146 1.9 2.098 4.91 6.852 1.78 9.089-1.66-1.632-6.19-3.076-11.03 4.194-1.89 2.796-4.34 9.647 1.07 14.681zm7.65-8.192c-.57 1.06-1.34 1.787-2.03 2.153-.7.371-1.12.286-1.29.197-.17-.089-.48-.376-.56-1.156-.08-.768.09-1.803.66-2.863.57-1.06 1.34-1.787 2.03-2.153.71-.371 1.12-.286 1.29-.197.17.089.48.376.56 1.156.08.768-.09 1.803-.66 2.863zm1.77.921c-1.46 2.732-4.17 4.16-6.04 3.191-1.86-.97-2.19-3.97-.72-6.702 1.46-2.732 4.17-4.16 6.04-3.191 1.87.97 2.19 3.97.72 6.702z" fill="#D6D6D6"/><path fill-rule="evenodd" clip-rule="evenodd" d="M2055.41 380.389L2058 373h17.43l4.26 8.04-2.13 19.575 16.72 180.021-34.5 4.894-2.14-184.216-3.2-18.177.26-.748h24.28v-2h-23.57zm-84.31 31.36l1.54 10.885-.35 169.534 25.6-6.292-8.18-162.194 1.43-13.632-2.85-6.991h-14.94l-2.38 6.69h19.45v2h-19.32zm-66.98 86.167v-59.075l-1.5-7.04h19.64v-2h-19.7l1.56-4.593h16.36l2.13 5.243-1.78 8.39v7.69l7.47 91.583-26.67-.699v-16.429c3.67 1.748 10.28 3.496 15.29-7.34 1.78-3.846 4.27-15.031 0-20.624-1.66-2.564-7.82-7.97-10.67-6.292 0 .085-.02.174-.05.28-.15.619-.45 1.779 2.9 5.662 1.66 2.331 2.49 5.244 1.06 5.943-.35-.816-2.34-1.399-6.04 0v-.699z" fill="#EEEEEF"/><path d="M1485.99 507.994l432.51 13.269v16.411l-432.51-10.825v-18.855z" fill="#D6D6D6"/><path d="M1677.7 502.143c-1.49 4.608-5.53 6.654-8.49 5.733-2.97-.922-5.07-4.883-3.59-9.49 1.49-4.608 5.53-6.655 8.49-5.733 2.96.922 5.07 4.883 3.59 9.49zm215.5 7.624c-1.48 4.608-5.52 6.654-8.49 5.733-2.96-.922-5.07-4.883-3.58-9.49 1.48-4.608 5.52-6.655 8.49-5.733 2.96.922 5.07 4.883 3.58 9.49z" stroke="#D6D6D6" stroke-width="5"/><path fill-rule="evenodd" clip-rule="evenodd" d="M1582.41 478.194l-1.31 6.42s3.09.921 5.84.921c2.4 0 5.15-.577 5.15-.577.43 4.231-3.78 15.112-9.68 18.404 0 .7 1.44 2.204 1.44 2.204s1.12 1.292 2.47 1.292c4.06 0 7.47-2.797 7.47-2.797s3.48 1.925 5.86 2.797c2.62.961 6.94 1.748 6.94 1.748s3.42-5.803 2.85-5.244c-.57.56-5.58-1.323-8.07-2.605 10.81-4.474 12.69-19.417 12.34-26.058l-7.12-3.146c3.91 5.243 0 17.128-3.91 22.022-3.08 3.856-10.91 7.693-11.27 6.839 1.03-1.03 2.4-2.748 3.09-3.778 4.18-6.278 3.09-21.326 3.09-19.578 0 1.398-13.05 2.404-15.18 1.136zm37.34 16.779c.57-1.398-1.9-2.214-3.2-1.748l3.2-4.544c1.19.398 3.26 1.772 4.29 3.146.68.91.82 1.384.33 3.146-.36 1.327-1.14 2.977-1.89 4.411-.86 1.669-1.19 3.046-1.19 3.279 0 .699.24 2.098 3.08 1.398 1.66-.406 1.99-1.758 2.54-3.986.39-1.604.9-3.663 2.09-6.151 2.27-4.754 6.52-5.127 7.82-4.544l-1.06 4.195c-.04.218-.33.436-.74.74-.89.668-2.33 1.749-2.82 4.154-.67 3.301.12 5.126 1.78 6.292l-3.91 3.845-2.14-3.146c0 .815-1.9 4.56-6.64 4.228-4.74-.333-6.87-2.83-5.5-7.025.88-2.69 1.97-4.374 2.82-5.697.48-.74.89-1.366 1.14-1.993zm22.76 1.398c0 1.119-3.32 12.584-4.98 18.177l4.98.699 2.85-8.389c2.25 1.631 7.49 2.967 10.62-.948 3.13-3.916 3.43-9.189 2.75-11.986-.69-2.796-1.72-4.158-4.47-5.243-3.73-.992-5.49-.632-8.9.699 0 0-.72.386-1.75 1.073-.68-.343-1.37-.687-2.16-1.073l-1.78 5.593c.95 0 2.84.28 2.84 1.398zm113.6 3.812c.57-1.398-1.9-2.214-3.2-1.748l3.2-4.544c1.19.398 3.25 1.772 4.28 3.146.69.91.82 1.384.34 3.146-.36 1.327-1.15 2.977-1.89 4.41-.86 1.67-1.19 3.047-1.19 3.28 0 .699.24 2.097 3.08 1.398 1.66-.406 1.99-1.758 2.54-3.986.39-1.604.9-3.663 2.09-6.151 2.27-4.754 6.52-5.127 7.82-4.544l-1.07 4.195c-.03.218-.32.436-.73.739-.89.669-2.33 1.75-2.82 4.154-.67 3.302.12 5.127 1.78 6.292l-3.92 3.846-2.13-3.146c0 .815-1.91 4.56-6.64 4.228-4.74-.333-6.87-2.83-5.5-7.025.88-2.69 1.97-4.374 2.82-5.697.48-.74.88-1.366 1.14-1.993zm20.76-1.748c1.31-.466 3.77.35 3.2 1.748-.25.627-.66 1.253-1.13 1.993-.86 1.323-1.94 3.007-2.83 5.697-1.37 4.195.76 6.692 5.5 7.025 4.74.332 6.64-3.413 6.64-4.228l2.14 3.146 3.91-3.846c-1.66-1.165-2.45-2.99-1.78-6.292.49-2.404 1.93-3.485 2.83-4.154.4-.303.69-.521.73-.739l1.07-4.195c-1.31-.583-5.55-.21-7.83 4.544-1.19 2.488-1.7 4.547-2.09 6.151-.55 2.228-.88 3.58-2.53 3.986-2.85.699-3.09-.699-3.09-1.398 0-.233.33-1.61 1.2-3.28.74-1.433 1.52-3.083 1.89-4.41.48-1.762.34-2.236-.34-3.146-1.03-1.374-3.09-2.748-4.29-3.146l-3.2 4.544zm8.51-7.751l2.13-3.684c.87 1.14 5.45 1.316 5.45 1.316l1.42 3.684-4.74-.263-4.26-1.053zM1649 503.42c2.16.464 4.44-1.564 5.09-4.53.65-2.965-.57-5.745-2.73-6.209-2.15-.464-4.43 1.564-5.08 4.529-.66 2.966.56 5.746 2.72 6.21zm78.14-8.143l-2.91 4.632s-.18-.854-.87-1.541c-.68-.687-2.06-1.03-2.06-1.03-4.12-1.031-6.18 2.404-6.18 2.404s-1.24 4.161.48 5.811c1.59 1.524 3.81 1.745 6.85.648l1.26 4.875c-.1 0-.24.104-.47.262-.58.418-1.71 1.215-3.83 1.487-7.19.924-10.47-6.389-10.47-9.992 0-.126-.01-.282-.02-.462-.09-1.781-.31-6.028 5.86-9.499 2.49-1.4 8.45-1.462 12.36 2.405zm-4.53 42.948l6.05.149 13.87.342v93.652h4.27v-93.546l23.47.579v92.967h4.27v-92.861l21.34.526v92.335h4.27v-92.229l19.91.491v91.738h4.27v-91.632l23.48.579v91.053h4.26v-90.947l21.34.526v90.421h4.27v-90.315l19.92.492v89.823h4.27V542.65l23.47.579v89.139h4.27v-89.033l21.34.527v88.506h4.26v-88.401l15.65.386v95.005h-484.4V532.395l206.28 5.092v94.881h4.27v-94.776l21.34.527v94.249h4.26v-94.143zm-162.89-.936h4.27v95.079h-4.27v-95.079zm81.8 0h-4.26v95.079h4.26v-95.079zm-107.4 0h4.26v95.079h-4.26v-95.079zm81.8 0h-4.27v95.079h4.27v-95.079zm-109.55 0h4.27v95.079h-4.27v-95.079zm162.9 0H1665v95.079h4.27v-95.079zm-81.09 0h-4.27v95.079h4.27v-95.079z" fill="#D6D6D6"/><path d="M1298.31 611.396v-12.235l28.1-17.128v12.934l-28.1 16.429zm32.01-24.12v-14.682l2.85-2.097v-5.943l1.78-1.048v10.486l10.67-6.292v-5.592l4.62-3.146v5.592l9.96-6.292v-6.292l2.84-1.747v21.323h1.78v2.446l-35.56 20.974v-5.244l1.06-2.446zm36.64-27.265v-6.642h2.84l5.69-3.845v-3.146l-1.42-1.049v-4.544l5.69-3.146v6.991l2.49 1.748v-2.447l1.42-1.748v-6.991l2.85-1.748 1.78 2.447 2.13-.699v7.69l-3.91 2.447v11.536l3.91-2.447h4.62v1.398l-26.67 15.38v-9.438l-1.42-1.747z" fill="#E3E3E3"/><path fill-rule="evenodd" clip-rule="evenodd" d="M2194.22 644.953h-708.47v84.593h23.46c-.26-1.795-.4-3.633-.4-5.503 0-20.311 16.25-36.776 36.3-36.776 20.04 0 36.3 16.465 36.3 36.776 0 1.87-.14 3.708-.41 5.503h24.69c-.27-1.795-.4-3.633-.4-5.503 0-20.311 16.25-36.776 36.29-36.776 20.05 0 36.3 16.465 36.3 36.776 0 1.87-.14 3.708-.4 5.503h23.74a36.983 36.983 0 01-.41-5.503c0-20.311 16.46-36.776 36.77-36.776 20.31 0 36.78 16.465 36.78 36.776 0 1.87-.14 3.708-.41 5.503h23.74a36.983 36.983 0 01-.41-5.503c0-20.311 16.26-36.776 36.3-36.776 20.05 0 36.3 16.465 36.3 36.776 0 1.87-.14 3.708-.4 5.503h23.74a36.983 36.983 0 01-.41-5.503c0-20.311 16.46-36.776 36.77-36.776 20.31 0 36.78 16.465 36.78 36.776 0 1.87-.14 3.708-.41 5.503h23.74a36.983 36.983 0 01-.41-5.503c0-20.311 16.26-36.776 36.3-36.776 20.05 0 36.3 16.465 36.3 36.776 0 1.87-.14 3.708-.4 5.503h24.68c-.26-1.795-.4-3.633-.4-5.503 0-20.311 16.25-36.776 36.3-36.776 20.05 0 36.3 16.465 36.3 36.776 0 1.87-.14 3.708-.41 5.503h36.27v-84.593zm-49.05 84.593c.39-1.76.59-3.601.59-5.503 0-13.828-10.96-24.396-23.7-24.396-12.74 0-23.71 10.568-23.71 24.396 0 1.902.21 3.743.6 5.503h46.22zm-143.29-5.503c0 1.902.2 3.743.6 5.503h46.21c.39-1.76.6-3.601.6-5.503 0-13.828-10.97-24.396-23.71-24.396-12.73 0-23.7 10.568-23.7 24.396zm-145.19 5.503c.39-1.76.6-3.601.6-5.503 0-13.828-10.97-24.396-23.71-24.396-12.73 0-23.7 10.568-23.7 24.396 0 1.902.21 3.743.6 5.503h46.21zm-238.81-5.503c0 1.902.21 3.743.6 5.503h46.21c.39-1.76.6-3.601.6-5.503 0-13.828-10.97-24.396-23.71-24.396-12.73 0-23.7 10.568-23.7 24.396zm335.11 5.503c.4-1.76.61-3.601.61-5.503 0-13.828-11.11-24.396-24.02-24.396-12.9 0-24.01 10.568-24.01 24.396 0 1.902.21 3.743.6 5.503h46.82zm-239.42-5.503c0 1.902.21 3.743.6 5.503h46.82c.4-1.76.61-3.601.61-5.503 0-13.828-11.11-24.396-24.02-24.396-12.9 0-24.01 10.568-24.01 24.396zm-145.36 5.503c.39-1.76.6-3.601.6-5.503 0-13.828-10.97-24.396-23.7-24.396-12.74 0-23.71 10.568-23.71 24.396 0 1.902.21 3.743.6 5.503h46.21z" fill="#D6D6D6"/><path fill-rule="evenodd" clip-rule="evenodd" d="M1283.38 627.477l199.52-119.199v130.979l-199.52 71.34v-83.12zm173.97-77.601h2.8v89.486h-2.8v-89.486zm-18.9 14.681h-2.8v84.593h2.8v-84.593zm-26.61 11.885h2.8v81.097h-2.8v-81.097zm-17.5 9.788h-1.4v77.601h1.4V586.23zm-21.7 11.885h1.4v72.008h-1.4v-72.008zm-16.81 9.088h-1.4v69.911h1.4v-69.911zm-19.6 9.788h1.4v65.716h-1.4v-65.716zm-14.7 7.689h-1.4v64.319h1.4V624.68zm-20.3 9.789h1.4v65.017h-1.4v-65.017z" fill="#E3E3E3"/><path fill-rule="evenodd" clip-rule="evenodd" d="M1851.72 517.015h25.61l-2.85-80.747 1.62-3.826-25.81.583 1.43 3.942-1.07 80.048h1.07zm-1.48-85.388l2.55-3.748 20.98-.699 1.97 3.872-25.5.575z" fill="#EEEEEF"/><path fill-rule="evenodd" clip-rule="evenodd" d="M1847.09 500.072c-2.01-2.33-7.11-5.802-11.38-1.048-5.33 5.942-4.24 14.012-2.84 16.079 2.84 4.217 9.6 2.097 11.02-1.049.24-.522.72 3.146 2.49 3.146l2.35-4.406c-.95-.7-1.34-.41-1.64-2.061-.71-3.954 3.7-7.9 3.7-7.9l-1.56-5.839s-1.43 2.379-2.14 3.078zm-9.01 4.135c1.71-3.356 3.56-3.086 4.39-2.387 1.42 1.013 2.13 4.958.42 7.195-2.13 2.797-4.78 3.453-5.49 2.405-.71-1.049-1.45-3.019.68-7.213z" fill="#D6D6D6"/><path fill-rule="evenodd" clip-rule="evenodd" d="M1283.38 767v-50.738l199.52-71.309v84.942l-4.91.914c.01-.434.01-.871.01-1.309 0-20.158-9.4-36.5-21-36.5s-21 16.342-21 36.5c0 3.105.22 6.12.64 8.998l-4.66.866c.01-.452.02-.907.02-1.364 0-17.673-8.06-32-18-32s-18 14.327-18 32c0 2.745.19 5.409.56 7.952l-7.4 1.376c.14-1.404.22-2.85.22-4.328 0-13.254-6.05-24-13.5-24-7.46 0-13.5 10.746-13.5 24 0 3.229.36 6.309 1.01 9.121l-8.33 1.549c.21-1.494.32-3.059.32-4.67 0-10.493-4.7-19-10.5-19s-10.5 8.507-10.5 19c0 2.984.38 5.807 1.06 8.319l-8.23 1.531c.11-1.084.17-2.204.17-3.35 0-9.665-4.25-17.5-9.5-17.5s-9.5 7.835-9.5 17.5c0 2.38.26 4.648.72 6.716l-6.39 1.19c.19-1.243.29-2.553.29-3.906 0-8.008-3.58-14.5-8-14.5s-8 6.492-8 14.5c0 2.402.32 4.666.89 6.661l-4.51.839zm11.82-2.199l-.38.071c-.47-1.387-.82-3.222-.82-5.372 0-2.41.44-4.424 1-5.856.56 1.432 1 3.446 1 5.856 0 2.114-.33 3.922-.8 5.301zm24.18-9.301c0 1.83-.2 3.482-.52 4.901l-1.88.351c-.37-1.496-.6-3.269-.6-5.252 0-3.35.67-6.104 1.5-7.926.83 1.822 1.5 4.576 1.5 7.926zm27.22-.256l-3.26.606c-.58-1.87-.96-4.199-.96-6.85 0-4.155.95-7.522 2.08-9.565.15-.277.29-.508.42-.7.13.192.27.423.42.7 1.13 2.043 2.08 5.41 2.08 9.565 0 2.371-.31 4.486-.78 6.244zM1378.38 743c0 2.404-.26 4.579-.69 6.46l-3.47.647c-.51-2.023-.84-4.422-.84-7.107 0-5.044 1.16-9.084 2.5-11.503 1.34 2.419 2.5 6.459 2.5 11.503zm39.44-1.001l-7.48 1.39A41.59 41.59 0 011410 738c0-6.887 1.6-12.432 3.47-15.763.19-.332.37-.622.53-.876.16.254.34.544.53.876 1.87 3.331 3.47 8.876 3.47 15.763 0 1.39-.07 2.726-.18 3.999zM1464 729.5c0 1.356-.05 2.67-.15 3.939l-13.43 2.497a48.529 48.529 0 01-.42-6.436c0-8.078 1.91-14.704 4.29-18.827 1.2-2.092 2.16-3.032 2.71-3.44.55.408 1.51 1.348 2.71 3.44 2.38 4.123 4.29 10.749 4.29 18.827zm-6.49-22.559a.3.3 0 01-.05.016c.03-.013.05-.018.05-.016zm-.97.016a.3.3 0 01-.05-.016c0-.002.02.003.05.016zm-41.1 12.736c0 .006-.04.041-.14.085.09-.07.14-.092.14-.085zm-2.74.085c-.1-.044-.14-.079-.14-.085 0-.007.05.015.14.085zm-35.46 9.901c0 .006-.04.039-.12.083.08-.067.12-.089.12-.083zm-2.6.083a.401.401 0 01-.12-.083c0-.006.04.016.12.083zm-28.96 8.072c0 .003-.02.022-.08.046.06-.038.08-.05.08-.046zm-1.53.046c-.05-.024-.08-.043-.07-.046 0-.004.02.008.07.046zm-25.05 7.805c0 .005-.03.035-.1.075.06-.06.1-.08.1-.075zm-2.34.075c-.07-.04-.1-.07-.1-.075 0-.005.03.015.1.075zm-20.61 5.928a.38.38 0 01-.08.068c.05-.054.08-.073.08-.068zm-2.22.068a.38.38 0 01-.08-.068c0-.005.03.014.08.068z" fill="#E3E3E3"/><path d="M1866.76 516.613c8.82-5.313 4.24-13.464 2.18-15.113-2.06-1.649-4.44-1.308-5.03-1.374 0-.343-.46 2.404-.71 3.435.71 0 2.62.531 3 1.03 2.27 3.356-.39 6.281-2.29 7.213-2.27 1.119-3.79-.895-4.26-2.061-1.7-6.182 2.6-12.462 5.33-14.327.28 1.958 3.68 2.68 5.33 2.797l2.85-4.956c-3.13.839-5.02.134-4.9-1.031.28-1.397 3.36-1.936 4.9-1.704l1.78-3.146c-4.84-1.677-9.37.7-11.03 2.098l-1.15-1.369c-1.71-2.797-1.72-2.748-2.06-3.435-.67.281-2.75 2.404-2.75 2.706.3 1.242 2.8 3.267 3.83 4.196-3.99 2.517-6.79 9.751-7.26 13.363-1.42 12.863 8.21 13.542 12.24 11.678z" fill="#D6D6D6"/><path d="M1873.16 490.523c1.99 1.957-1.19 3.379-2.49 3.845-.59 1.049-.71 3.286-.71 3.845 5.4 1.119 8.18-2.097 8.89-3.845 1.14-3.635-2.13-6.292-3.91-6.991l-1.78 3.146z" fill="#D6D6D6"/><path d="M1283.38 767.5l199.5-37 1.5 231.911-201 5.589V767.5z" fill="#EEEEEF"/><path d="M2500 730H1486v230h1014V730z" fill="#D6D6D6"/></g><defs><clipPath id="clip0"><path fill="#fff" d="M0 0h2500v960H0z"/></clipPath></defs></svg>