<svg width="2500" height="960" fill="none" xmlns="http://www.w3.org/2000/svg"><mask id="mask0" maskUnits="userSpaceOnUse" x="0" y="52" width="2500" height="908"><path fill="#C4C4C4" d="M0 52h2500v908H0z"/></mask><g mask="url(#mask0)"><path fill-rule="evenodd" clip-rule="evenodd" d="M2387 517.547h-16.51V408.682h-22.64v-95.953h-46.65v73.812h-27.05v79.34h-6.88v96.756h-13.76v30.561h-31.65v-60.28h-13.76v-54.119h-17.89v-12.918h-88.08v12.918h-35.78v30.446h-9.63v38.53h-13.49v-226.74h-15.14v-16.607h-61.93v-38.752h-49.54v118.093h-8.26V256.734h-11.01v-55.36h-19.27V135h-33.31v66.374h-14.85v32.292h-9.63v178.987h-28.9v40.251h-121.11V171.855h-8.25v-14.767h-66.06v14.767h-9.63v281.049h-44.04v-116.83h-6.77V280.72h-23.5v-12.918h-49.55v12.918h-30.27v31.369h-12.39v100.564h-19.26v11.831h-23.4v-75.492h-2.46v-43.046h-37.16v36.903h-33.02v6.143h-4.43v75.492h-28.6v76.796h-18.29v28.644h-14.13v-55.126h-22.7v-54.19h-3.51v-4.409h-26.21v-26.49h-29.48v30.899h-1.96v54.19h-18.56v-8.493h-15.29v-72.187h-9.83v-22.517h-24.03v-9.273h-39.31v9.273h-18.66v39.735h-5.37v83.863h-34.948V293.455h-7.643v-10.6h-52.421v10.6h-6.553v201.744h-96.107v-28.894h-22.933v-128.48h-7.646v-23.18h-11.784V267h-26.437v47.645h-15.291v39.738h-8.738l.002 91.189h-6.551v-84.77h-39.316v27.817h-49.145v11.921h-12.016v162.759h-10.705v-27.657h-7.646v-21.856h-28.395v-9.272H509.99v9.272h-14.196v38.848h-10.921v43.27H0v358.399l1253.2 8.694V992.5H2387v-2h1133.81V517.547h-16.52V408.682h-22.63v-95.953H3435v73.812h-27.04v79.34h-6.88v96.756h-13.77v30.561h-31.65v-60.28h-13.76v-54.119h-17.89v-12.918h-88.07v12.918h-35.78v30.446h-9.64v38.53h-13.49v-226.74h-15.14v-16.607h-61.93v-38.752h-49.54v118.093h-8.25V256.734h-11.01v-55.36h-19.27V135h-33.31v66.374h-14.85v32.292h-9.64v178.987h-28.9v40.251h-121.1V171.855h-8.26v-14.767h-66.05v14.767h-9.64v281.049h-44.03v-116.83h-6.78V280.72h-23.5v-12.918h-49.54v12.918h-30.28v31.369h-12.39v100.564h-19.26v11.831h-23.4v-75.492h-2.46v-43.046h-37.15v36.903h-33.03v6.143h-4.42v75.492h-28.61v76.796H2387v16.267zm655.17-133.778v179.176-179.176zM733.661 445.572v128.616l-.002-83.546.002-45.07zm1174.699-61.803v179.176-179.176z" fill="#F8F8F8"/></g></svg>