<svg xmlns="http://www.w3.org/2000/svg"><path d="M107.656 65.265l.265-.266-.266-.264L65.264 22.6l-.265-.263-.264.264-42.134 42.134-.264.264.263.265 42.135 42.391.264.266.266-.265 42.391-42.391zm-7.531-35.542l.053.099.099.053 29.349 15.823v38.604l-29.349 15.823-.099.053-.053.099-15.823 29.349H45.698l-15.823-29.349-.053-.099-.099-.053L.374 84.302V45.698l29.35-15.823.098-.053.053-.099L45.698.374h38.604l15.823 29.35z" stroke="#616161" stroke-width=".749"/><path d="M76.517 22.31l47.918 25.898v21.915L76.517 22.309zm30.469 52.89L81.03 123.013H59.068L106.986 75.2zM53.74 105.104L5.796 79.44V57.265l47.944 47.839zM23.753 52.448L49.465 4.374h21.968l-47.68 48.074z" stroke="#616161" stroke-width=".749"/></svg>