<svg width="108" height="128" fill="none" xmlns="http://www.w3.org/2000/svg"><g filter="url(#filter0_d)" fill="#ED1C24"><path d="M52.974 105c.184-2.64-.737-17.632-4.79-20.763-1.47-1.137-8.025-2.28-12.342-4.605-4.867-2.621-10.868-8.29-10.868-8.29s-1.47-13.277 29.845.73L53.711 105h-.737z"/><path d="M54.447 105c-.184-2.64.737-17.632 4.79-20.763 1.47-1.137 8.025-2.28 12.342-4.605 4.867-2.621 10.868-8.29 10.868-8.29s1.47-13.277-29.845.73L53.71 105h.736z"/><path d="M94.79 43.342c0 22.28-18.31 40.342-40.895 40.342C31.309 83.684 13 65.622 13 43.342 13 21.062 31.31 3 53.895 3 76.48 3 94.79 21.062 94.79 43.342z"/></g><defs><filter id="filter0_d" x=".487" y=".219" width="106.815" height="127.026" filterUnits="userSpaceOnUse" color-interpolation-filters="sRGB"><feFlood flood-opacity="0" result="BackgroundImageFix"/><feColorMatrix in="SourceAlpha" values="0 0 0 0 0 0 0 0 0 0 0 0 0 0 0 0 0 0 127 0"/><feOffset dy="9.732"/><feGaussianBlur stdDeviation="6.256"/><feColorMatrix values="0 0 0 0 0.929412 0 0 0 0 0.109804 0 0 0 0 0.141176 0 0 0 0.32 0"/><feBlend in2="BackgroundImageFix" result="effect1_dropShadow"/><feBlend in="SourceGraphic" in2="effect1_dropShadow" result="shape"/></filter></defs></svg>