<svg width="139" height="163" fill="none" xmlns="http://www.w3.org/2000/svg"><path d="M67.322 63.37c2.923.612 5.8-1.214 6.425-4.078.626-2.864-1.239-5.682-4.162-6.295-2.924-.612-5.801 1.214-6.426 4.078-.625 2.864 1.239 5.682 4.163 6.294z" stroke="#000" stroke-width="2" stroke-miterlimit="10"/><path d="M84.876 63.82c-.68-1.401-2.436-1.95-3.886-1.326l-8.985 3.873H65.52l-9.919-3.074c-1.51-.468-3.194.264-3.717 1.728-.54 1.515.306 3.157 1.857 3.638l9.33 2.891c-.02.175-.03.35-.031.53 0 0 .08 9.747.074 9.865L61.99 97.2c-.077 1.562 1.153 2.89 2.748 2.966l.142.003c1.533 0 2.812-1.18 2.886-2.696l.664-11.839c.004-.168.26-.169.265 0l.752 11.885c.099 1.5 1.37 2.65 2.883 2.65.063 0 .126-.002.19-.006 1.593-.101 2.802-1.448 2.698-3.01L73.787 81.74c-.011-.17-.005-9.583-.005-9.583 0-.122-.009-.241-.016-.36.004-.003.008-.004.012-.005l9.652-4.161c1.49-.642 2.15-2.364 1.446-3.813zM39.215 32.034c3.938 0 7.13-3.139 7.13-7.011 0-3.872-3.192-7.011-7.13-7.011-3.94 0-7.132 3.139-7.132 7.01 0 3.873 3.193 7.012 7.132 7.012z" stroke="#000" stroke-width="2" stroke-miterlimit="10"/><path d="M53.934 42.074c-.756-4.148-4.522-7.014-9.2-7.014h-.113l-10.23-.048h-.061c-4.742.06-8.406 2.92-9.121 7.144l-3.461 21.559c-.298 1.85.994 3.587 2.883 3.878 1.892.29 3.663-.973 3.96-2.824l2.832-17.634.357 14.139c.004.19.025.375.043.562a3.734 3.734 0 00-.028.282l-1.58 33.876c-.092 1.982 1.474 3.662 3.497 3.752.057.003.114.004.17.004 1.95 0 3.572-1.502 3.662-3.428l1.274-27.344a8.336 8.336 0 001.311.08c.3-.008.595-.033.885-.071l1.15 27.699c.08 1.933 1.705 3.447 3.662 3.447l.151-.003c2.025-.081 3.599-1.753 3.516-3.735l-1.405-33.85a3.61 3.61 0 00-.072-.56c.042-.362.069-.73.059-1.105l-.37-14.642 3.99 19.978c.323 1.62 1.772 2.743 3.396 2.743.22 0 .444-.021.669-.064 1.877-.36 3.101-2.143 2.734-3.981l-4.56-22.84zm46.003-10.092c3.714 0 6.725-2.949 6.725-6.587 0-3.637-3.011-6.586-6.725-6.586-3.713 0-6.724 2.949-6.724 6.586 0 3.638 3.01 6.587 6.724 6.587zm21.295 31.469l-10.273-22.236-.046-.095c-2.031-4.035-4.994-6.066-8.839-6.02l-3.715-.002h-.044c-3.705.047-7.024 2.407-8.677 6.164L79.015 63.385c-.766 1.595-.067 3.498 1.562 4.248 1.63.752 3.571.066 4.338-1.53l7.323-15.25.007.275-3.405 23.39c-.172 1.397-.657 2.621 2.895 2.621h1.027l-1.027 19.258c-.082 1.762 1.309 3.255 3.108 3.335.05.003.1.004.151.004 1.732 0 3.175-1.336 3.254-3.048L99.29 77.14h2.67l.927 19.533c.071 1.718 1.516 3.064 3.255 3.064.044 0 .089 0 .135-.003 1.799-.072 3.198-1.558 3.125-3.32l-.916-19.275h1.217c3.714 0 3.068-1.225 2.895-2.62l-4.029-23.725v-.033l6.725 15.326c.545 1.179 1.731 1.877 2.972 1.877.45 0 .907-.092 1.343-.285 1.639-.728 2.367-2.62 1.624-4.227zM92.76 77.137h15.724" stroke="#000" stroke-width="2" stroke-miterlimit="10"/><g opacity=".8" stroke="#000" stroke-width="2" stroke-miterlimit="10"><path d="M15.265 152.837h34.892l56.132-14.013 28.394-18.203c3.184-2.095 3.642-6.543.937-9.22-2.028-2.008-5.233-2.332-7.61-.756l-21.154 14.122H67.603h13.084"/><path d="M90.676 124.767l22.047-14.1c2.399-1.576 5.583-1.273 7.611.756a5.872 5.872 0 011.679 3.196M0 129.086h15.265v32.389H0m19.627-32.388h6.542l20.368-14.338a13.11 13.11 0 018.287-2.937h36.768v4.319c0 4.772-3.904 8.637-8.723 8.637H67.603M2.18 150.68v4.318"/></g><path d="M7.58 102.141h4.973m4.974 0h4.974m-7.461 2.464v4.926m0-14.777v4.925" opacity=".8" stroke="#13325F" stroke-width="3" stroke-miterlimit="10"/></svg>