<svg width="18" height="19" fill="none" xmlns="http://www.w3.org/2000/svg"><path fill-rule="evenodd" clip-rule="evenodd" d="M1.964 2.36C1.457 2.917 1 3.848 1 5.413c0 3.529 2.665 6.25 4.207 7.793C6.75 14.75 9.471 17.413 13 17.413c1.565 0 2.496-.457 3.053-.964a2.946 2.946 0 00.896-1.574l-2.855-2.141-1.877 1.877c-.605.604-1.57.782-2.361.304a19.148 19.148 0 01-3.563-2.795 19.142 19.142 0 01-2.795-3.562c-.478-.792-.3-1.757.305-2.362L5.68 4.32 3.538 1.464a2.947 2.947 0 00-1.574.896zM3.503.454C2.098.677 0 1.865 0 5.414c0 4 3 7 4.5 8.5s4.5 4.5 8.5 4.5c3.548 0 4.736-2.099 4.959-3.504.05-.31-.107-.608-.359-.797l-2.906-2.18a1 1 0 00-1.307.094l-1.877 1.877a.927.927 0 01-1.137.155A18.144 18.144 0 017 11.413a18.144 18.144 0 01-2.646-3.372.927.927 0 01.156-1.137l1.877-1.877a1 1 0 00.093-1.308L4.3.813C4.111.561 3.814.405 3.503.454z" fill="#000"/></svg>