<svg width="133" height="124" fill="none" xmlns="http://www.w3.org/2000/svg"><g opacity=".8" fill="#000" stroke="#F6F5F6" clip-path="url(#clip0)"><path d="M.5 122.971v-3.1h132v3.1H.5z"/><path d="M35.828 120.924v-95.35h3.156v95.35h-3.156z"/><path d="M17.126 61.474c.047-11.956 1.79-20.912 5.15-26.883 3.386-6.014 8.418-9.017 15.13-9.017 6.712 0 11.745 3.003 15.13 9.017 3.36 5.97 5.103 14.927 5.15 26.883H54.53c-.04-10.813-1.403-18.943-4.173-24.405-1.41-2.781-3.193-4.886-5.364-6.294-2.175-1.41-4.708-2.1-7.587-2.1-2.878 0-5.412.69-7.586 2.1-2.172 1.408-3.954 3.513-5.365 6.294-2.77 5.462-4.132 13.592-4.173 24.405h-3.156z"/><path d="M3.72 59.893l-.034.531h67.44l-.033-.531C69.995 42.487 55.31 28.674 37.406 28.674c-17.903 0-32.589 13.813-33.686 31.219zm69.014 3.631H2.078c-.873 0-1.578-.705-1.578-1.55 0-20.053 16.54-36.4 36.906-36.4s36.907 16.347 36.907 36.4c0 .845-.705 1.55-1.579 1.55zm30.224 44.506l12.102 11.939-2.238 2.208-11.494-11.358-.147-.145H48.296v-3.1h53.532c.422 0 .82.169 1.13.456z"/><path d="M49.269 122.166l-2.227-2.197 11.764-11.605 2.227 2.197-11.764 11.605zm17.847-12.287l-17.994-17.75 2.227-2.197 17.994 17.751-2.227 2.196z"/><path d="M82.176 99.827l7.947 7.839-2.239 2.208-7.338-7.258-.146-.145H60.765v-3.1h20.282c.422 0 .82.169 1.13.456zm5.605-78.35c7.685.127 11.65 3.179 13.653 5.748l.394.506.395-.506c2.002-2.57 5.967-5.621 13.652-5.748v3.1c-5.09.098-8.189 1.686-10.037 3.359-1.845 1.67-2.404 3.393-2.478 3.693a1.61 1.61 0 01-1.532 1.144h-.021a1.56 1.56 0 01-1.509-1.158c-.059-.24-.604-1.985-2.48-3.682-1.848-1.67-4.947-3.258-10.037-3.356v-3.1z"/><path d="M100.25 32.773v-1.05h3.156v1.05h-3.156z"/><path d="M93.516 77.873c-8.06 0-15.763-2.388-22.321-6.935l1.84-2.514c6.026 4.161 13.104 6.349 20.48 6.349 19.742 0 35.829-15.86 35.829-35.35 0-19.491-16.087-35.35-35.828-35.35-14.265 0-27.094 8.284-32.805 21.127l-2.901-1.213C64.027 9.985 77.985.973 93.516.973c21.509 0 38.984 17.248 38.984 38.45 0 21.201-17.475 38.45-38.984 38.45z"/></g><defs><clipPath id="clip0"><path fill="#fff" transform="translate(0 .473)" d="M0 0h133v123H0z"/></clipPath></defs></svg>