<svg width="114" height="133" fill="none" xmlns="http://www.w3.org/2000/svg"><g clip-path="url(#clip0)"><g opacity=".8" stroke="#000" stroke-width="2.6" stroke-miterlimit="10" stroke-linecap="round" stroke-linejoin="round"><path d="M57 69.126v62.843c0-8.718-6.222-15.805-13.873-15.805H.51V53.316h42.617c7.65 0 13.873 7.072 13.873 15.81zm56.49 20.89V53.322l-30.785-.105-13.102-.045C63.365 53.172 57 60.389 57 69.132v62.838c0-8.718 6.222-15.805 13.873-15.805h42.617V90.016z"/><path d="M57 131.969H.51v-15.805h42.617c7.65 0 13.873 7.087 13.873 15.805zm0 0h56.49v-15.805H70.873c-7.65 0-13.873 7.087-13.873 15.805zM9.22 64.293h31.77M9.22 77.156h31.77M9.22 90.016h31.77M9.22 102.875h31.77m32.019-38.582h31.769M73.009 77.156h31.769m-31.769 12.86h31.769m-31.769 12.859h31.769"/></g><ellipse cx="57.508" cy="60.973" rx="26.973" ry="26.5" fill="#F6F5F6"/><g opacity=".8" stroke="#000" stroke-width="2.6" stroke-miterlimit="10" stroke-linecap="round" stroke-linejoin="round"><path d="M80.904 72.87C76.514 81.484 67.456 87.39 57 87.39c-14.765 0-26.73-11.78-26.73-26.304 0-14.53 11.97-26.305 26.73-26.305 14.765 0 26.73 11.78 26.73 26.305 0 1.932-.214 3.82-.617 5.636"/><path d="M57 34.781c-15.26 4.98-15.255 47.636 0 52.61 15.26-4.98 15.254-47.636 0-52.61zM30.27 61.086h53.46"/></g><path d="M82.95 21.852h-51.9v12.276h51.9V21.852zM57 .973c-22.018 4.125-41.154 9.285-41.154 9.285l15.203 11.594h51.9l15.204-11.594S79.017 5.098 56.999.973zm19.855 33.16h-39.71v8.627h39.71v-8.627z" stroke="#000" stroke-width="2.6" stroke-miterlimit="10" stroke-linecap="round" stroke-linejoin="round"/><path d="M98.153 10.258v21.346" stroke="#000" stroke-width="2.6" stroke-miterlimit="10" stroke-linejoin="round"/><path d="M103.927 46.515l-5.774-12.382-5.773 12.382h11.547z" stroke="#000" stroke-width="2.6" stroke-miterlimit="10" stroke-linecap="round" stroke-linejoin="round"/></g><defs><clipPath id="clip0"><path fill="#fff" transform="translate(0 .473)" d="M0 0h114v132H0z"/></clipPath></defs></svg>