<svg width="16" height="21" fill="none" xmlns="http://www.w3.org/2000/svg"><path fill-rule="evenodd" clip-rule="evenodd" d="M8 20.414s8-6.665 8-12.019c0-4.353-3.636-7.98-8-7.98-4.468 0-8 3.523-8 7.98 0 5.457 8 12.02 8 12.02zm0-19c-3.917 0-7 3.079-7 6.981 0 1.132.42 2.396 1.129 3.704.704 1.298 1.656 2.57 2.629 3.7a36.098 36.098 0 003.238 3.288 37.306 37.306 0 003.245-3.326c.973-1.136 1.926-2.413 2.63-3.707C14.584 10.748 15 9.498 15 8.395c0-3.799-3.186-6.98-7-6.98z" fill="#000"/><path fill-rule="evenodd" clip-rule="evenodd" d="M8 10.414a2 2 0 100-4 2 2 0 000 4zm0 1a3 3 0 100-6 3 3 0 000 6z" fill="#000"/></svg>