<svg width="16" height="21" fill="none" xmlns="http://www.w3.org/2000/svg"><path fill-rule="evenodd" clip-rule="evenodd" d="M8 20.383s8-6.665 8-12.019C16 4.011 12.364.383 8 .383c-4.468 0-8 3.524-8 7.981 0 5.457 8 12.019 8 12.019zm0-19c-3.917 0-7 3.078-7 6.981 0 1.132.42 2.395 1.129 3.703.704 1.299 1.656 2.57 2.629 3.7a36.098 36.098 0 003.238 3.29 37.29 37.29 0 003.245-3.326c.973-1.137 1.926-2.414 2.63-3.709C14.584 10.716 15 9.467 15 8.364c0-3.799-3.186-6.981-7-6.981z" fill="#E0E0E0"/><path fill-rule="evenodd" clip-rule="evenodd" d="M8 10.383a2 2 0 100-4 2 2 0 000 4zm0 1a3 3 0 100-6 3 3 0 000 6z" fill="#E0E0E0"/></svg>