<svg width="18" height="19" fill="none" xmlns="http://www.w3.org/2000/svg"><path fill-rule="evenodd" clip-rule="evenodd" d="M1.964 2.33C1.457 2.885 1 3.816 1 5.381c0 3.529 2.665 6.25 4.207 7.793C6.75 14.717 9.471 17.382 13 17.382c1.565 0 2.496-.457 3.053-.964a2.947 2.947 0 00.896-1.574l-2.855-2.142-1.877 1.877c-.605.605-1.57.783-2.361.305a19.142 19.142 0 01-3.563-2.795 19.146 19.146 0 01-2.795-3.563c-.478-.792-.3-1.756.305-2.36L5.68 4.287 3.538 1.433a2.947 2.947 0 00-1.574.896zM3.503.422C2.098.646 0 1.833 0 5.382c0 4 3 7 4.5 8.5s4.5 4.5 8.5 4.5c3.548 0 4.736-2.098 4.959-3.503.05-.31-.107-.608-.359-.797l-2.906-2.18a1 1 0 00-1.307.093l-1.877 1.877a.927.927 0 01-1.137.156A18.153 18.153 0 017 11.382a18.147 18.147 0 01-2.646-3.373.927.927 0 01.156-1.137l1.877-1.877a1 1 0 00.093-1.307L4.3.782C4.111.53 3.814.374 3.503.423z" fill="#E0E0E0"/></svg>