<svg width="2500" height="960" fill="none" xmlns="http://www.w3.org/2000/svg"><g clip-path="url(#clip0)"><path fill="#C4C4C4" d="M-34 798h2621v9H-34z"/><path d="M1901.78 774.312c0 4.059-3.07 7.35-6.86 7.35-3.79 0-6.86-3.291-6.86-7.35 0-4.06 3.07-7.351 6.86-7.351 3.79 0 6.86 3.291 6.86 7.351z" fill="#C7C7C7"/><path fill-rule="evenodd" clip-rule="evenodd" d="M1894.71 791.464c8.73 0 15.8-7.58 15.8-16.929 0-9.35-7.07-16.929-15.8-16.929s-15.8 7.579-15.8 16.929c0 9.349 7.07 16.929 15.8 16.929zm0 9.801c13.78 0 24.95-11.968 24.95-26.73 0-14.763-11.17-26.73-24.95-26.73s-24.95 11.967-24.95 26.73c0 14.762 11.17 26.73 24.95 26.73z" fill="#C7C7C7"/><path d="M1872.03 774.312c0 4.059-3.07 7.35-6.86 7.35-3.79 0-6.86-3.291-6.86-7.35 0-4.06 3.07-7.351 6.86-7.351 3.79 0 6.86 3.291 6.86 7.351zm105.55 0c0 4.059-3.07 7.35-6.86 7.35-3.79 0-6.86-3.291-6.86-7.35 0-4.06 3.07-7.351 6.86-7.351 3.79 0 6.86 3.291 6.86 7.351zm31.66 0c0 4.059-3.07 7.35-6.86 7.35-3.78 0-6.86-3.291-6.86-7.35 0-4.06 3.08-7.351 6.86-7.351 3.79 0 6.86 3.291 6.86 7.351z" fill="#C7C7C7"/><path fill-rule="evenodd" clip-rule="evenodd" d="M2002.18 791.464c8.73 0 15.8-7.58 15.8-16.929 0-9.35-7.07-16.929-15.8-16.929s-15.8 7.579-15.8 16.929c0 9.349 7.07 16.929 15.8 16.929zm0 9.801c13.78 0 24.95-11.968 24.95-26.73 0-14.763-11.17-26.73-24.95-26.73s-24.95 11.967-24.95 26.73c0 14.762 11.17 26.73 24.95 26.73z" fill="#C7C7C7"/><path d="M2042 725.021l-1.44-5.178-95.96-1.553-1.91-3.624h-3.84l-4.32-11.392h-7.68l-6.71 3.107v3.107h3.35l-1.91 10.355 11.03 35.209h27.35v-1.553h12.95v1.553h4.32l11.51-5.695 4.8-1.036 10.08-3.106 4.32-.518 2.39-2.589 18.72-8.802h3.83v3.624h6.72l.96-9.32 1.44-2.589zm-70.53 31.065h-25.908v17.605h25.908zm-27.83 0h-11.515v11.392h11.515zm0 16.053v-3.107h-8.63l-4.32 1.036v6.213h3.36l3.84-4.142h5.75zm-91.15 5.694l19.19-36.763h-1.44l-19.67 36.763h1.92z" fill="#C7C7C7"/><path fill-rule="evenodd" clip-rule="evenodd" d="M1925.9 773.692l1.8-2.602-11.48-29.501h-34.94v.002h-.96v-.002h-13.44v-23.816h.96v22.781h7.68v-22.781h.96v22.781h3.84V689.07l-.05-.003.05-1.325h.96v.067l28.76 2.004.02 1.035-28.78-1.721v51.427h36.46l11.24 28.777.75-.817v-18.122h-7.19l-2.88-6.731 3.84-3.107-.96-13.98-1.92-7.767h-1.92v-18.64l-2.88-3.107h-2.88v2.072l1.92 2.071v17.604h-4.8v-28.996h1.92l-1.44-2.588-35.02-4.661h-6.72l-5.75 4.661h-11.04v28.995c-26.48 4.557-50.06 16.052-58.53 21.23l-7.2 19.157H1781v12.945h16.8l8.63 9.32v5.696h6.24v-5.696h20.63v11.909h10.07V778.87l10.56-1.035 7.68-4.143 18.23-28.478h31.66l14.4 28.478zm-20.63-81.809h-20.16v22.782h20.16v-22.782zm-48.94 7.766l21.11-7.766v19.676l-21.11 1.553v-13.463zm-14.4 79.221h-7.67v10.356h7.67V778.87zm-34.54 0h3.84v4.142h-3.84v-4.142zm46.06-59.025v-2.072c-21.11 3.728-41.1 13.29-48.46 17.605l-1.92 8.284c17.66-13.669 40.94-21.574 50.38-23.817zm-53.74 39.349h3.84v4.142h-3.84v-4.142zm-14.39 0h-3.84v4.142h3.84v-4.142zm54.22-18.124l-1.92 3.625-20.15 8.284 1.44-6.731 20.63-5.178zm-3.84 6.733l10.55-1.553-7.67 13.98h-10.56l7.68-12.427zm3.36 16.568l-10.56.69-7.68 5.523h10.56l7.68-6.213zm-5.76-31.198l.43.928-26.49 14.097-.42-.928 26.48-14.097zm68.13-12.295h-12.48v6.214h12.48v-6.214z" fill="#C7C7C7"/><path fill-rule="evenodd" clip-rule="evenodd" d="M1849.68 777.837c1.79 7.248 7.95 12.591 15.28 12.591 6.4 0 11.91-4.075 14.4-9.935v14.842c-4.07 3.083-9.04 4.894-14.4 4.894-12.4 0-22.69-9.692-24.62-22.392h9.34zm29.68-11.331v-6.274h-4.58a17.003 17.003 0 014.58 6.274zm76.88.972a17.152 17.152 0 00-1.08 6.022c0 9.349 7.42 16.928 16.57 16.928 6.71 0 12.49-4.074 15.1-9.933v14.84c-4.27 3.083-9.47 4.894-15.1 4.894-14.45 0-26.16-11.967-26.16-26.729 0-2.071.23-4.087.66-6.022h10.01zm30.59-.974v-6.272h-4.8c2.05 1.662 3.7 3.81 4.8 6.272z" fill="#C7C7C7"/><path fill-rule="evenodd" clip-rule="evenodd" d="M1629.19 793.788c8.18 0 14.8-6.98 14.8-15.591 0-8.611-6.62-15.592-14.8-15.592-8.17 0-14.79 6.981-14.79 15.592s6.62 15.591 14.79 15.591zm0 9.027c12.91 0 23.36-11.022 23.36-24.618 0-13.597-10.45-24.619-23.36-24.619-12.9 0-23.35 11.022-23.35 24.619 0 13.596 10.45 24.618 23.35 24.618z" fill="#CFCFCF"/><ellipse cx="1629.4" cy="777.992" rx="6.424" ry="6.77" fill="#CFCFCF"/><path fill-rule="evenodd" clip-rule="evenodd" d="M1508.31 793.788c8.17 0 14.8-6.98 14.8-15.591 0-8.611-6.63-15.592-14.8-15.592-8.17 0-14.79 6.981-14.79 15.592s6.62 15.591 14.79 15.591zm0 9.027c12.9 0 23.36-11.022 23.36-24.618 0-13.597-10.46-24.619-23.36-24.619-12.9 0-23.36 11.022-23.36 24.619 0 13.596 10.46 24.618 23.36 24.618z" fill="#CFCFCF"/><ellipse cx="1508.51" cy="777.992" rx="6.424" ry="6.77" fill="#CFCFCF"/><path fill-rule="evenodd" clip-rule="evenodd" d="M1662.52 786.76h-7.18v-15.996h-2.78v-8.497l-9.73-12.246h-32.19l-6.95 12.246v8.497l-1.15 1.5v10.997l-1.16 1.249-.7-.101v-21.892l10.66-17.745h36.59l3.7 5.999-3.7-7.248h-37.75l-11.12 18.994v21.656l-6.25-.912v9.747h-7.41v-6.248h-14.59v2.999h-12.74v-1.75h-4.4l-4.4-4.748v-2.5h-10.65c-.29-1.488-.74-3.29-1.36-5.247h3.67v-2.998h-4.73c-2.94-7.568-8.29-16.152-16.57-17.997v-6.248h11.81l2.08-1.999 1.86 1.999h3.24v16.245h15.05v-9.997l-3.87-5.996h46.72v-1.5h-47.69l-.48-.751h-3.01v-13.496l5.55-5.998-2.54-32.74 11.11-4.999h52.11v6.498h-2.55v.002h-48.63v1.499h17.13v48.986h.93v-48.986h19.46v49.982h.92v-49.982h10.19v29.74h3.47v-34.24l.7-.75v-1.999h4.4v1.999l.69.75v36.989h31.04l13.2 3.499.69 2.249v1.25l-13.8-3.998h-31.13v1.25h31.13l13.8 4.248v19.244h5.79v9.497l-1.16 2.249h-5.32v17.745zm-6.25-17.245h5.55v10.497h-5.55v-10.497zm5.55 11.496h-5.55v4.499h5.55v-4.499zm-75.49 6.497h5.55v4.498h-5.55v-4.498zm-5.56-88.972h14.82v21.994h-14.82v-21.994zm9.72 81.476h-8.33v3.998h8.33v-3.998zm-21.3 0h6.02v3.998h-6.02v-3.998zm-3.71-54.484h-.46v17.995h.46v-17.995zm20.15 35.738v1.499h-6.72v9.997h-1.62v-11.496h8.34zm-.23-10.377v-1.369h-7.88v10.496h1.53v-9.127h6.35zm-21.77-52.104h11.81v20.994h-8.1l-3.71-20.994zm44.7 0h-8.57v21.743h7.87l.7-21.743zm-47.24 5.998l-.93-5.498v-1.5l-9.5 4.999 2.09 19.743 12.27-2.999-2.78-14.745h-1.15zm-8.81 22.245l-5.32 5.748 9.96-1.999 4.4-5.749-9.04 2zm6.26 30.74v-6.998l-3.25 3.748v6.249l1.16 1.249v1.75h8.34l-3.01-5.998h-3.24z" fill="#CFCFCF"/><path d="M1484.2 785.76c-1.11-1.399-.47-9.747 0-13.746l-3.01 1.25-3.94-2.749.69-5.998 9.73-2.25c2.97-3.799 6.79-5.915 8.34-6.498l-1.16-1.249-21.77 4.248-1.39-1.999-5.32 23.493 8.33 4.748 1.39-1.999 8.11 2.749zm-17.14-57.483l5.32 16.995v5.999l-7.41 28.491-3.01 1.75-15.28 2.249 10.88-9.497c4.82-2.6 10.04-17.578 12.04-24.743l-2.54-21.244z" fill="#CFCFCF"/><path d="M1467.76 750.271l-2.78-20.744-16.21 4.749c2.22 23.393-13.59 39.238-21.77 44.237l17.6 4.998 11.58-10.497c4.26-1.999 9.49-15.995 11.58-22.743z" fill="#CFCFCF"/><path d="M766.882 749.633c0 5.869-4.44 10.626-9.917 10.626-5.478 0-9.918-4.757-9.918-10.626s4.44-10.626 9.918-10.626c5.477 0 9.917 4.757 9.917 10.626z" fill="#C4C4C4"/><path fill-rule="evenodd" clip-rule="evenodd" d="M756.658 774.427c12.615 0 22.841-10.956 22.841-24.472 0-13.515-10.226-24.472-22.841-24.472-12.614 0-22.841 10.957-22.841 24.472 0 13.516 10.227 24.472 22.841 24.472zm0 14.168c19.918 0 36.065-17.299 36.065-38.64 0-21.34-16.147-38.64-36.065-38.64s-36.064 17.3-36.064 38.64c0 21.341 16.146 38.64 36.064 38.64z" fill="#C4C4C4"/><path d="M904.778 753.644c0 5.264-3.983 9.532-8.897 9.532-4.913 0-8.897-4.268-8.897-9.532 0-5.265 3.984-9.533 8.897-9.533 4.914 0 8.897 4.268 8.897 9.533z" fill="#C4C4C4"/><path fill-rule="evenodd" clip-rule="evenodd" d="M895.602 775.886c11.316 0 20.49-9.829 20.49-21.953 0-12.124-9.174-21.953-20.49-21.953-11.316 0-20.49 9.829-20.49 21.953 0 12.124 9.174 21.953 20.49 21.953zm0 12.709c17.867 0 32.352-15.519 32.352-34.662 0-19.144-14.485-34.662-32.352-34.662-17.868 0-32.352 15.518-32.352 34.662 0 19.143 14.484 34.662 32.352 34.662z" fill="#C4C4C4"/><path d="M716.926 722.094h-6.193l-2.155 3.002h6.463l1.885-3.002zm6.083-16.016l1.961 1.43h6.798c-3.033.458-9.369 9.248-12.158 13.586h-4.837c-1.673 0-2.353-1.144-2.484-1.716l6.406-11.584 4.314-1.716zm38.283-52.058l7.186 2.041.392 1.312-6.925-2.041-.914 1.02 3.527 12.683h-1.306l-3.658-12.974 1.698-2.041z" fill="#C4C4C4"/><path fill-rule="evenodd" clip-rule="evenodd" d="M684.663 741.008l7.827-2.696v-5.958l.796-.567-.207-1.782 1.401 1.498.663.993 4.643-.993 4.378-9.931-12.603-15.321h-1.193l.53 3.547h1.99l9.551 11.774-3.183 8.229-3.582.709-1.194-2.128h-1.59l-2.655-22.84-1.061-1.703 1.061-3.972c11.762-4.729 45.369-14.186 85.696-14.186v7.093h2.123l-2.123-24.259-2.918-10.073v-3.83h50.808v-.851h-50.808v-4.114c6.058-.851 24.701-2.043 50.808 0v-5.391l-2.123-1.702V640h11.807v2.554l-2.388 1.702v5.391h5.439v3.405h-5.439v32.629h1.061v2.979l7.163 6.242v10.64l-.312.425h-54.74v1.135h53.906l-.313.426 1.459 3.121h-5.836c.796 1.466 1.91 5.589 0 10.356h10.612l9.684-10.356h5.971c-5.02 5.466-14.624 19.934-14.989 36.601h-5.442l-8.224 9.505h-7.429v2.979h-8.755l-1.592-2.979h-9.95v-30.927h-1.857v30.927h-1.326c2.387-18.159-5.439-33.48-5.439-33.48s-9.074-18.414-21.491-22.84l-25.337 2.128h-12.735v1.986h-.929v3.263l-2.255 1.134-.007.026-9.279 1.677-11.807 21.705h10.082c-1.238 3.547-3.343 11.86-1.857 16.74v15.038h-15.388v-11.917l-4.51 1.986v-1.986l-7.96 1.986v-1.986l-5.439-3.121-1.857-7.235.663-.851zm180.149-30.643l.398-.284c10.347-6.1 26.796-9.646 46.96.568l6.633 4.398 1.459 5.958c2.3 2.743 7.058 8.739 7.694 10.782l-2.918-.284c-6.412-10.356-25.284-26.5-49.481-8.228-3.847 3.026-12.019 12.058-13.929 23.975h-14.321c.351-7.974 4.318-26.28 17.505-36.885zm-132.968-.721l-1.016 2.282h7.429c8.914-6.356 23.171-4.635 29.184-2.98 21.454 6.275 28.809 27.754 30.328 41.808.014-.065.031-.099.051-.099h1.459c1.38-8.626-3.405-21.564-5.97-26.955-3.396-9.987-14.769-18.82-20.031-21.989l-25.337 2.128h-11.807v1.986h-.928v2.554l-3.582 2.128.22-.863zm-14.414 42.004h-11.94v11.065h11.94v-11.065zm60.359-94.766l.152.914 1.572 26.892 3.041.681.408 2.44h12.47v-30.927h-17.643zm44.174 25.819v3.121h-20.959v-28.94h20.959v25.819zm-118.728 18.727l.266-.426 14.459-3.972h1.194l-6.633 11.349-9.286-6.951zm23.613-1.419l-7.296 1.702c-1.38.322-1.106-.528-.796-.993l2.918-4.681 7.296-1.277c.929-.284 1.15.236 1.062.709l-3.184 4.54zm3.387-1.192l6.036-1.36 2.634-3.627c.073-.377-.109-.793-.878-.566l-6.036 1.02-2.414 3.74c-.256.372-.483 1.05.658.793zm14.098-3.133l-5.197 1.156c-.983.218-.788-.359-.567-.675l2.079-3.179 5.197-.867c.662-.192.819.161.756.482l-2.268 3.083zm2.841-.693l4.567-.788 2.095-2.616c.067-.281-.056-.599-.639-.458l-4.556.533-1.934 2.71c-.204.268-.397.768.467.619zm8.461-3.636l-1.194 1.277c-2.653 2.156 3.14.52 6.368-.568 2.016-.68 1.371-1.134.796-1.276l-5.97.567zm54.124 28.231H798.35v4.54h11.409v-4.54zm-19.899-7.944h16.98v2.27h-16.98v-2.27zm32.103 35.466h-10.347v5.107h10.347v-5.107zm-3.979-15.321h10.347v13.051h-10.347v-13.051zm21.225-36.885h-60.492v1.702h60.492v-1.702z" fill="#C4C4C4"/><path d="M771.652 652.02h44.525v2.001h-44.525v-2.001zm181.137 84.835v28.097h-10.243l-14.701-28.097h24.944zm40.069 34.903l1.423.716-2.134 5.221s1.09-.103 1.327-.154c3.225-.358 11.616-1.331 14.796.921l3.51-1.637 1.18 2.303-3.5 1.279v.409c-.15 5.272-12.192 6.091-13.188 6.142l-8.773-3.224-.569.614 10.054 3.838 1.043.819-1.423 2.917-16.55-6.141 5.359-1.945 7.445-12.078zm30.252 0l1.42.716-2.13 5.221s1.09-.103 1.33-.154c3.22-.358 11.62-1.331 14.79.921l3.51-1.637 1.19 2.303-3.51 1.279v.409c-.14 5.272-12.19 6.091-13.18 6.142l-8.78-3.224-.57.614 10.06 3.838 1.04.819-1.42 2.917-14.89-6.141 3.7-1.945 7.44-12.078zm30.31 0l1.42.716-2.13 5.221.62-.052c.19 0 .42-.051.71-.102 3.22-.358 11.62-1.331 14.79.921l3.51-1.637 1.19 2.303-3.51 1.279v.409c-.14 5.272-12.19 6.091-13.19 6.142l-8.77-3.224-.57.614 10.06 3.838 1.04.819-1.42 2.917-14.89-6.141 3.7-1.945 7.44-12.078zm-92.855-31.831l36.894 5.476c.475-2.354.617-5.169.237-8.495 0-.103-.047-.205-.047-.307.854.051 1.707.102 2.611.102.38 3.48.33 6.5 0 9.11l26.13 3.94c1.32-2.917 2.27-7.113 1.56-12.845 0-.103-.05-.205-.05-.307.86.051 1.71.102 2.61.102.67 5.681.1 10.133-.9 13.46l4.89.716.66 3.173h14.61v4.197h-19.26v-4.197h3.08l-.37-1.791-.24-.051-3.84-.563c-.1.256-.19.563-.29.819h-3.98c.28-.41.52-.819.81-1.331l-19.78-2.917v5.118h-1.47v-5.323l-4.41-.665a24.767 24.767 0 01-1.423 5.118h-3.983c.901-1.331 1.849-3.173 2.513-5.527l-36.562-5.425v23.439h-5.691v-28.097h5.691v3.071z" fill="#C4C4C4"/><path d="M1000.26 754.102h19.25v4.195h-19.25v-4.195zm60.51 0h19.25v4.195h-19.25v-4.195zm30.35 0h19.63v4.195h-19.63v-4.195zm-129.319 0h27.41v4.195h-27.41v-4.195zm88.679 5.631v-6.397h9.63v6.397h-9.63zm8.68.767c1.37 3.481 2.46 8.65 1.65 15.712-.9 0-1.75.051-2.6.102 0-.102.04-.204.04-.307.95-7.779-1.23-12.794-3.08-15.558h3.99v.051zm-35.62-.767h-3.32v-6.397h9.58v6.397h-6.26zm6.97 16.531c-.9 0-1.75.051-2.6.102 0-.102.04-.205.04-.307.95-7.779-1.23-12.794-3.08-15.558h3.98c1.38 3.48 2.47 8.649 1.66 15.763zm-40.542-16.531v-6.397h9.579v6.397h-9.579zm10.242 16.531c-.902 0-1.755.051-2.609.102 0-.102.048-.205.048-.307.948-7.779-1.233-12.794-3.083-15.558h3.984c1.375 3.48 2.47 8.649 1.66 15.763zm9.25-43.655l3.5 1.279-1.18 2.303-3.51-1.637c-3.18 2.251-11.524 1.279-14.796.921-.284-.051-1.327-.154-1.327-.154l2.134 5.22-1.423.717-7.398-12.078-3.699-1.945 14.891-6.141 1.422 2.917-1.043.819-10.053 3.838.569.614 8.773-3.224c1.043.051 13.09.921 13.18 6.141 0 .154 0 .256-.04.41zm30.3 0l3.51 1.279-1.19 2.303-3.51-1.637c-3.17 2.251-11.52 1.279-14.79.921-.29-.051-1.33-.154-1.33-.154l2.09 5.22-1.42.717-7.4-12.078-3.7-1.945 14.89-6.141 1.42 2.917-1.04.819-10.06 3.838.57.614 8.78-3.224c1.04.051 13.09.921 13.18 6.141v.41zm30.26 0l3.51 1.279-1.19 2.303-3.51-1.637c-3.17 2.251-11.52 1.279-14.79.921-.29-.051-.52-.051-.71-.103l-.62-.051 2.13 5.22-1.42.717-7.44-12.078-3.7-1.945 14.93-6.141 1.43 2.917-1.05.819-10.05 3.838.57.614 8.77-3.224c1.05.051 13.09.921 13.19 6.141-.05.154-.05.256-.05.41z" fill="#C4C4C4"/><path d="M1058.16 736.601c.85.051 1.71.102 2.61.102.8 7.114-.29 12.283-1.66 15.711h-3.99c1.9-2.763 4.04-7.779 3.09-15.558 0-.051 0-.153-.05-.255zm25.51 35.159l1.42.716-2.13 5.22.62-.051c.19 0 .42-.051.71-.102 3.22-.358 11.62-1.331 14.79.921l2.14-.972c-2.61-1.638-4.37-4.709-4.37-8.24 0-1.177.19-2.303.57-3.326l5.88 3.889 1.57.972c.24.154.52.256.85.256.57 0 1.14-.307 1.43-.87.23-.409.28-.87.19-1.33-.1-.461-.38-.819-.76-1.075l-5.36-3.429-2.09-1.331c1.61-1.944 3.98-3.224 6.59-3.224 4.89 0 8.82 4.248 8.82 9.519 0 1.075-.19 2.099-.47 3.02l.33-.563 1.42.716-2.13 5.22s1.09-.102 1.33-.153c3.22-.358 11.62-1.331 14.79.921l3.51-1.638 1.19 2.303-3.51 1.28v.409c-.14 5.272-12.19 6.09-13.18 6.142l-8.78-3.225-.57.615 10.06 3.838 1.04.819-1.42 2.917-14.89-6.141 3.7-1.945 4.55-7.37c-1.57 1.484-3.61 2.406-5.83 2.406-.76 0-1.52-.103-2.23-.308l.33.666-3.51 1.279v.41c-.14 5.271-12.19 6.09-13.18 6.141l-8.78-3.224-.57.614 10.06 3.838 1.04.819-1.42 2.917-14.89-6.141 3.7-1.945 7.44-12.18z" fill="#C4C4C4"/><path d="M1080.73 759.733v-6.397h9.58v5.015l15.79 10.083c.19.153.38.358.43.614.05.256.05.512-.09.767-.15.307-.48.461-.81.461a.906.906 0 01-.48-.154l-16.02-10.286c-.05-.052-.1-.052-.15-.103h-8.25z" fill="#C4C4C4"/><path d="M1089.41 760.5c1.38 3.481 2.47 8.65 1.66 15.712-.9 0-1.75.051-2.61.102 0-.102.05-.204.05-.307.95-7.779-1.23-12.794-3.08-15.558h3.98v.051zm10.86-27.891l3.51 1.279-1.18 2.303-3.51-1.637c-3.18 2.251-11.53 1.279-14.8.921-.28-.051-.52-.051-.71-.103l-.62-.051 2.14 5.22-1.43.717-7.39-12.078-3.7-1.945 14.89-6.141 1.42 2.917-1.04.819-10.06 3.838.57.614 8.78-3.224c1.04.051 13.08.921 13.18 6.141-.05.154-.05.256-.05.41z" fill="#C4C4C4"/><path d="M1088.42 736.601c.85.051 1.7.102 2.61.102.8 7.114-.29 12.283-1.66 15.711h-3.99c1.9-2.763 4.03-7.779 3.08-15.558 0-.051 0-.153-.04-.255zm38.97 11.003v5.732h-1.47v-6.039l1.47.307zm17.26 24.154l1.43.716-2.14 5.221s1.09-.103 1.33-.154c3.23-.358 11.62-1.331 14.8.921l3.51-1.637 1.18 2.303-3.51 1.279v.409c-.14 5.272-12.18 6.091-13.18 6.142l-8.77-3.224-.57.614 10.05 3.838 1.04.819-1.42 2.917-14.89-6.141 3.7-1.945 7.44-12.078zm30.26 0l1.43.716-2.14 5.221.62-.052c.19 0 .42-.051.71-.102 3.22-.358 11.62-1.331 14.79.921l3.51-1.637 1.19 2.303-3.51 1.279v.409c-.14 5.272-12.19 6.091-13.18 6.142l-8.78-3.224-.57.614 10.06 3.838 1.04.819-1.42 2.917-14.89-6.141 3.7-1.945 7.44-12.078zm47.62-2.504c0-1.536.33-3.02.94-4.299l1.95 1.637 4.93 4.146c.24.205.52.307.81.358.57.102 1.14-.153 1.51-.665.29-.358.38-.819.34-1.28-.05-.46-.29-.87-.62-1.177l-4.6-3.889-2.32-1.843c1.56-1.535 3.65-2.508 5.92-2.508 4.89 0 8.82 4.248 8.82 9.52 0 5.271-3.93 9.519-8.82 9.519-4.88.051-8.86-4.248-8.86-9.519zm-100.78-15.152H1141v4.195h-19.25v-4.195zm30.4.054h19.16v4.196h-19.16v-4.196zm30.16-.054h19.25v4.195h-19.25v-4.195zm-10.29 5.631v-6.397h9.58v6.397h-9.58z" fill="#C4C4C4"/><path d="M1180.65 760.5c1.38 3.481 2.47 8.65 1.66 15.712-.9 0-1.75.051-2.61.102 0-.102.05-.204.05-.307.95-7.779-1.23-12.794-3.08-15.558h3.98v.051zm-38.93-.767v-6.397h9.62v6.397h-9.62zm8.63.767c1.38 3.481 2.47 8.65 1.66 15.712-.9 0-1.75.051-2.61.102 0-.102.05-.204.05-.307.95-7.779-1.23-12.794-3.08-15.558h3.98v.051zm-38.89-.767v-6.397h9.58v6.397h-9.58zm8.63.767c1.38 3.481 2.47 8.65 1.66 15.712-.9 0-1.75.051-2.61.102 0-.102.05-.204.05-.307.95-7.779-1.23-12.794-3.08-15.558h3.98v.051zm10.91-27.891l3.51 1.279-1.19 2.303-3.51-1.637c-3.17 2.251-11.52 1.279-14.79.921-.29-.051-1.33-.154-1.33-.154l2.09 5.22-1.43.717-7.39-12.078-3.7-1.945 14.89-6.141 1.42 2.917-1.04.819-10.06 3.838.57.614 8.78-3.224c1.04.051 13.08.921 13.18 6.141v.41zm30.25 0l3.51 1.279-1.18 2.303-3.51-1.637c-3.18 2.251-11.53 1.279-14.8.921-.28-.051-1.33-.154-1.33-.154l2.09 5.22-1.42.717-7.4-12.078-3.7-1.945 14.89-6.141 1.42 2.917-1.04.819-10.05 3.838.57.614 8.77-3.224c1.04.051 13.09.921 13.18 6.141v.41zm30.26 0l3.51 1.279-1.19 2.303-3.51-1.637c-3.17 2.251-11.52 1.279-14.79.921-.29-.051-.52-.051-.71-.103l-.62-.051 2.14 5.22-1.43.717-7.4-12.078-3.69-1.945 14.89-6.141 1.42 2.917-1.04.819-10.06 3.838.57.614 8.77-3.224c1.05.051 13.09.921 13.19 6.141 0 .154 0 .256-.05.41z" fill="#C4C4C4"/><path d="M1179.7 736.601c.86.051 1.71.102 2.61.102.81 7.114-.28 12.283-1.66 15.711h-3.98c1.89-2.763 4.03-7.779 3.08-15.558-.05-.051-.05-.153-.05-.255zm25.47 35.157l1.42.716-2.13 5.221.61-.052c.19 0 .43-.051.71-.102 3.23-.358 11.62-1.331 14.8.921l3.51-1.637 1.18 2.303-3.51 1.279v.409c-.14 5.272-12.18 6.091-13.18 6.142l-8.77-3.224-.57.614 10.05 3.838 1.05.819-1.43 2.917-14.89-6.141 3.7-1.945 7.45-12.078zm-2.9-12.025v-6.397h9.58v6.397h-9.58z" fill="#C4C4C4"/><path d="M1210.91 760.5c1.37 3.481 2.46 8.65 1.66 15.712-.9 0-1.76.051-2.61.102 0-.102.05-.204.05-.307.95-7.779-1.24-12.794-3.08-15.558h3.98v.051zm13.18-24.36l-3.51-1.638c-3.18 2.252-11.53 1.28-14.8.922-.28-.052-.52-.052-.71-.103l-.62-.051 2.14 5.271-1.42.717-7.4-12.078-3.7-1.945 14.89-6.141 1.42 2.917-1.04.819-10.05 3.838.56.614 8.78-3.224c1.04.051 13.09.921 13.18 6.141v.41l3.51 1.279-1.23 2.252z" fill="#C4C4C4"/><path d="M1209.96 736.601c.85.051 1.71.102 2.61.102.8 7.114-.29 12.283-1.66 15.711h-3.98c1.89-2.763 4.03-7.779 3.08-15.558-.05-.051-.05-.153-.05-.255zm-60.56 0c.86.051 1.71.102 2.61.102.81 7.114-.28 12.283-1.66 15.711h-3.98c1.89-2.763 4.03-7.779 3.08-15.558 0-.051 0-.153-.05-.255zm-30.26 0c.86.051 1.71.102 2.61.102.81 7.114-.28 12.283-1.66 15.711h-3.98c1.9-2.763 4.03-7.779 3.08-15.558 0-.051-.05-.153-.05-.255zm100.44 19.241v2.354l12.33 10.338c.19.154.34.409.34.665.04.256-.05.512-.19.717a.92.92 0 01-.86.358.657.657 0 01-.42-.205l-14.09-11.822h-4.17v-4.196h7.02v1.791h.04zM769 787.001h201.543l8.707-3.777c1.849 4.76 7.635 8.24 14.464 8.24 6.826 0 12.616-3.48 14.466-8.24h1.61c1.85 4.76 7.63 8.24 14.46 8.24 6.83 0 12.62-3.48 14.47-8.24h1.56c1.85 4.76 7.64 8.24 14.47 8.24 6.82 0 12.61-3.48 14.46-8.24h1.56c1.85 4.76 7.64 8.24 14.47 8.24 8.34 0 15.13-5.169 15.13-11.515 0-.614-.05-1.228-.19-1.843.23.103.42.154.66.256-.1.512-.14 1.075-.14 1.587 0 6.346 6.78 11.515 15.13 11.515 8.34 0 15.12-5.169 15.12-11.515v-.256c.1 0 .24-.051.33-.051v.307c0 6.346 6.79 11.515 15.13 11.515 8.35 0 15.13-5.169 15.13-11.515 0-.614-.05-1.177-.19-1.791.24-.052.47-.052.66-.052a8.248 8.248 0 00-.19 1.843c0 6.346 6.79 11.515 15.13 11.515 8.25 0 14.99-5.067 15.08-11.31.05.051.1.102.1.153h.23c.24 6.193 6.93 11.157 15.08 11.157 8.16 0 14.8-4.913 15.08-11.055 1.47.359 2.8.922 3.85 1.638.9-.716 2.03-1.177 3.31-1.177 1.71 0 3.28.819 4.18 2.098 1.8-2.047 5.36-3.48 9.53-3.48 2.09 0 4.03.358 5.64.973.19-1.177 3.46-1.024 3.46-1.024s1.62 1.74 1.57 1.894c.28-.052.52-.052.81-.052.47 0 .9.052 1.32.154 3.09-.768 6.93-1.279 11.2-1.433 1.75-1.638 15.1 2.968 18.61 2.968 40.32 8.813 24.48 17.913 26 18.475H556l213-14.442z" fill="#C4C4C4"/><path fill="#fff" d="M0 803h2500v577H0z"/></g><defs><clipPath id="clip0"><path fill="#fff" d="M0 0h2500v960H0z"/></clipPath></defs></svg>