<svg width="1691" height="901" fill="none" xmlns="http://www.w3.org/2000/svg"><g opacity=".6"><path opacity=".64" d="M50.598 638.94l24.001-116.987c121.211 43.621 185.749 11.804 202.866-9.558l284.246-155.409 95.672-71.779 98.277-98.062 122.234-252.42-49.387-156.509-4.873-87.597 106.424 11.804 142.132 105.232 1.98 35.602 36.51-1.721 172.9 292.707 18.26-.861 34.02 26.428 528.65 216.149-13.27 17.442 14.72 8.65-269.34 569.547-118.43-44.874-55.25 30.633 5.6 100.643-340.14-8.27-477.92-291.414 83.175-3.919-1.245-22.365-490.921-49.748-2.281-41.003-99.981 30.872-48.63-33.213z" fill="#C7D0DB" fill-opacity=".33"/><path d="M1176.22-180.39l-159.71-113.317-51.406 2.422 177.906 131.658 137.85 249.869 574.12 260.936-3.13-56.32-548.33-238.435-127.3-236.813z" fill="#ABB3BB"/><path d="M997.688-279.268l154.562 109.041 127.43 239.066 543.93 247.677" stroke="#B9A4A4" stroke-opacity=".22" stroke-width=".974" stroke-dasharray="1.95 1.95"/><path transform="matrix(.93288 .36895 -.42163 .90286 774.843 201.732)" stroke="#514040" stroke-opacity=".45" stroke-width="2.921" d="M.747 1.857h159.238v94.419H.747z"/><path transform="matrix(.93288 .36895 -.42164 .90286 575.663 366.425)" stroke="#514040" stroke-opacity=".45" stroke-width="2.921" d="M.747 1.857h93.758v94.419H.747z"/><path transform="matrix(.93288 .36895 -.42163 .90286 581.778 391.753)" stroke="#514040" stroke-opacity=".45" stroke-width="2.921" d="M.747 1.857h61.91v52.692H.747z"/><path transform="matrix(.93288 .36895 -.42163 .90286 523.573 514.817)" stroke="#514040" stroke-opacity=".45" stroke-width="2.921" d="M.747 1.857h61.91v122.05H.747z"/><path transform="matrix(.93288 .36895 -.42163 .90286 513.782 496.566)" stroke="#514040" stroke-opacity=".45" stroke-width="2.921" d="M.747 1.857h93.758v153.497H.747z"/><path transform="matrix(.93288 .36895 -.42163 .90286 944.419 270.468)" stroke="#514040" stroke-opacity=".45" stroke-width="2.921" d="M.747 1.857h159.238v94.419H.747z"/><path transform="matrix(.93288 .36894 -.42164 .90286 900.288 371.729)" stroke="#514040" stroke-opacity=".45" stroke-width="2.921" d="M.747 1.857h159.238v94.419H.747z"/><path transform="matrix(.93288 .36895 -.42163 .90286 1114.85 337.28)" stroke="#514040" stroke-opacity=".45" stroke-width="2.921" d="M.747 1.857h159.238v94.419H.747z"/><path transform="matrix(.93288 .36895 -.42164 .90286 1012.91 551.632)" stroke="#514040" stroke-opacity=".45" stroke-width="2.921" d="M.747 1.857h159.238v94.419H.747z"/><path transform="matrix(.93288 .36895 -.42164 .90286 1281.22 404.279)" stroke="#514040" stroke-opacity=".45" stroke-width="2.921" d="M.747 1.857h159.238v94.419H.747z"/><path transform="matrix(.93288 .36895 -.42163 .90286 1179.29 618.629)" stroke="#514040" stroke-opacity=".45" stroke-width="2.921" d="M.747 1.857h159.238v94.419H.747z"/><path transform="matrix(.93288 .36895 -.42163 .90286 1189.57 638.501)" stroke="#514040" stroke-opacity=".45" stroke-width="2.921" d="M.747 1.857h123.017v63.147H.747z"/><path transform="matrix(.93288 .36895 -.42164 .90286 1023.57 569.837)" stroke="#514040" stroke-opacity=".45" stroke-width="2.921" d="M.747 1.857h123.017v63.147H.747z"/><path transform="matrix(.93288 .36895 -.42163 .90286 912.003 391.738)" stroke="#514040" stroke-opacity=".45" stroke-width="2.921" d="M.747 1.857h123.017v63.147H.747z"/><path transform="matrix(.93288 .36895 -.42164 .90286 1125.5 355.487)" stroke="#514040" stroke-opacity=".45" stroke-width="2.921" d="M.747 1.857h123.017v63.147H.747z"/><path transform="matrix(.93288 .36895 -.42163 .90286 1292.08 426.222)" stroke="#514040" stroke-opacity=".45" stroke-width="2.921" d="M.747 1.857h123.017v63.147H.747z"/><path transform="matrix(.93288 .36895 -.42163 .90286 1632.08 570.388)" stroke="#514040" stroke-opacity=".45" stroke-width="2.921" d="M.747 1.857h115.685v56.779H.747z"/><path d="M142.635 659.302l-55.477-10.483 15.295-90.528 229.914 39.684 35.206-61.53L397 553.769l-61.103 107.653-179.012-38.34-14.25 36.22zm1008.445 183.36l-7.38 13.444-66.65-28.666 23.55-51.626 83.56 3.547 81.16 33.596-46.65 75.166-35.51-17.037 7.49-11.579 22.93 10.146 29.85-48.181-54.07-21.775-8.9 22.871-14.5-4.93 6.86-22.775-61.25-4.598-12.53 30.526 52.04 21.871z" stroke="#514040" stroke-opacity=".45" stroke-width="2.921"/><path transform="matrix(.93288 .36895 -.42163 .90286 1451.84 480.318)" stroke="#514040" stroke-opacity=".45" stroke-width="2.921" d="M.747 1.857h164.05v94.419H.747z"/><path transform="matrix(.93288 .36895 -.42163 .90286 1619.72 546.003)" stroke="#514040" stroke-opacity=".45" stroke-width="2.921" d="M.747 1.857h153.76v94.419H.747z"/><path d="M1186.99-10.322l-13.99 4.4-27.86-62.3-54.96-1.153-3.44 84.356 166.79 74.465-7.17 17.177 559.8 231.821-5.15 17.081 25.37 17.515-52.99 107.271-106.02-41.78 50.86-109.042-18.87-10.336-52.99 107.271-139.39-57.046 48.62-112.679-22.82-8.279-61.68 133.874-145.58-58.625 59.76-131.913-20.8-8.375-54.92 109.233-254.13-109.64 52.78-111.004-31.35-15.362-67.76 134.161-16.742-8.566 71.402-141.816 11.29-125.888 79.5 3.739 32.44 71.44z" stroke="#514040" stroke-opacity=".45" stroke-width="2.921"/><path d="M1073.29-190.195l-22.01 225.554-74.211 164.4 809.361 332.322M751.903 537.79l-108.248-45.417 38.12-82.248 137.571 60.874-21.842 45.932-45.601 20.859z" stroke="#514040" stroke-opacity=".45" stroke-width="2.921"/><path d="M748.836 519.225l-83.291-35.366 25.586-51.722 106.22 45.512-16.693 28.851-31.822 12.725zm86.565 54.85l111.606 53.141 42.594-81.762-144.468-65.512-23.41 46.082 13.678 48.051zm138.024-366.662l-23.559 51.626 147.604 58.53 25.8-47.99m20.79 8.38l-21.84 45.932 312.16 129.358 21.95-44.066m22.93 10.144l-19.71 47.703 303.63 122.276" stroke="#514040" stroke-opacity=".45" stroke-width="2.921"/><path transform="matrix(.93178 .37177 -.42469 .90141 784.971 221.856)" stroke="#514040" stroke-opacity=".45" stroke-width="2.921" d="M.74 1.859h53.059v63.414H.74z"/><path transform="matrix(.93177 .37177 -.42469 .90141 955.401 288.664)" stroke="#514040" stroke-opacity=".45" stroke-width="2.921" d="M.74 1.859h53.059v63.414H.74z"/><path transform="matrix(.93177 .37177 -.42469 .90141 1459.2 500.669)" stroke="#514040" stroke-opacity=".45" stroke-width="2.921" d="M.74 1.859h53.059v63.414H.74z"/><path transform="matrix(.93177 .37177 -.42469 .90141 853.658 248.554)" stroke="#514040" stroke-opacity=".45" stroke-width="2.921" d="M.74 1.859h53.059v63.414H.74z"/><path transform="matrix(.93178 .37177 -.42469 .90141 1024.09 315.365)" stroke="#514040" stroke-opacity=".45" stroke-width="2.921" d="M.74 1.859h53.059v63.414H.74z"/><path transform="matrix(.93177 .37177 -.42469 .90141 1527.88 527.372)" stroke="#514040" stroke-opacity=".45" stroke-width="2.921" d="M.74 1.859h53.059v63.414H.74z"/><path d="M1360.27 692.483l-16.64-6.7-35.88 85.884 145.47 56.76 42.18-82.439-14.61-6.796-36.92 67.224-112.2-43.36 28.6-70.573zm129.52 25.703l16.64 6.7 35.88-85.885-145.47-56.759-42.18 82.439 14.61 6.795 36.92-67.223 112.2 43.359-28.6 70.574z" stroke="#514040" stroke-opacity=".45" stroke-width="2.921"/><path d="M1419.49 697.179c-4.87-2.265-15.01-6.777-16.64-6.7l18.41-34.545 16.64 6.7-1.82 3.828 18.67 6.604 1.82-3.828 14.61 6.796-18.52 32.679-14.61-6.796 7.39-13.445-16.64-6.7-9.31 15.407z" stroke="#514040" stroke-opacity=".45" stroke-width="2.921"/><path transform="matrix(.93264 .36956 -.4223 .90255 1068.52 440.495)" stroke="#514040" stroke-opacity=".45" stroke-width="2.921" d="M.745 1.858h335.963v101.196H.745z"/><path d="M1072.6 528.292l-20.8-8.375 22.37-36.602 14.61 6.796 11.23-17.368 60.57 28.953-14.77 26.889 8.32 3.35-11.44 13.636-22.93-10.145-5.56 9.617-20.91-10.242 5.57-9.617-18.77-8.47-7.49 11.578zm502.65 264.452l7.39-13.444-37.44-15.075-42.17 82.439 114.64 50.728 39.94-86.076L1599.28 786l-7.39 13.444 45.86 20.292-27.41 55.549L1523 840.11l29.33-57.511 22.92 10.145zm26.32-38.66l-7.49 11.579-56.2-23.546 43.89-88.133 62.39 25.125-5.46 11.483-49.81-18.234-33.17 61.435 45.85 20.291zm49.61-58.467l7.32-9.874 48.05 18.491-42.02 89.916-58.91-23.377 7.01-11.833 45.04 16.823 30.95-65.071-37.44-15.075zm-218.85 218.507l-7.42-38.641 48.23 14.93-40.81 23.711zM930.787-303.224l-62.861 2.962-1.875 39.378 64.197 167.235-96.364 204.734 54.175 23.642 11.233-17.368 20.9 10.241-10.921 22.966 54.28 25.507 79.199-147.796-6.54-117.564-37.018-7.61-60.141-167.426-8.264-38.901zM678.219 565.582l-58.335-25.316-69.374 141.72 67.436 6.178 60.273-122.582zm54.08 21.777l-37.538-16.941-54.501 116.697 67.436 6.178 40.355-78.611-15.752-27.323zm78.812 28.092l-38.217 7.414-36.299 78.42 171.476 12.502 17.89-43.875-114.85-54.461zM704.04 773.915l14.458-32.487 77.678 7.566-33.074 63.3-59.062-38.379zm77.625 43.118l30.839-66.937 75.65 7.661-51.587 95.98-54.902-36.704zm298.445-43.996l-165.493-14.655-56.944 109.329 142.877 83.075 79.56-177.749z" stroke="#514040" stroke-opacity=".45" stroke-width="2.921"/><path d="M925.698 774.7l-46.022 86.362 48.196 25.794 18.409-34.545 14.506 4.93-18.098 40.143 44.141 25.985 65.63-135.931-55.063-3.019-24.077 42.296-14.61-6.796 20.23-38.373-53.242-6.846zM1202.5 926.304l-141.63-60.682-43.58 93.731 65.25 39.958 91.25-4.299 28.71-68.708zm86.26-20.902l-7.39 13.444-37.64-18.807 44.21-82.534 124.98 53.982 5.56 63.352-68.94 3.248-.83-14.929 48.66-2.293-2.28-41.054-33.17-11.534-18.83 27.081-16.74-8.566 16.59-30.718-45.86-20.291-33.38 57.702 25.06 11.917zM914.107 749.053l34.479-74.592 226.844 94.087-261.323-19.495z" stroke="#514040" stroke-opacity=".45" stroke-width="2.921"/><path transform="matrix(.92335 .39253 -.44698 .89045 532.557 458.878)" stroke="#514040" stroke-opacity=".45" stroke-width="2.921" d="M.696 1.873h93.906v31.369H.696z"/><path transform="matrix(.92336 .39253 -.44698 .89045 639.738 501.887)" stroke="#514040" stroke-opacity=".45" stroke-width="2.921" d="M.696 1.873h124.719v31.369H.696z"/><path transform="matrix(.9078 .42773 -.48432 .8705 832.596 578.459)" stroke="#514040" stroke-opacity=".45" stroke-width="2.921" d="M.618 1.896h124.374v31.471H.618z"/><path transform="matrix(.92319 .39293 -.44741 .89023 976.851 643.571)" stroke="#514040" stroke-opacity=".45" stroke-width="2.921" d="M.695 1.874h151.416v31.37H.695z"/><path transform="matrix(.92781 .3817 -.43538 .89624 1309.07 777.902)" stroke="#514040" stroke-opacity=".45" stroke-width="2.921" d="M.719 1.866h325.023v31.339H.719z"/><path d="M1012.12-284.466l154.56 109.041 127.43 239.066 543.93 247.677" stroke="#B9A4A4" stroke-opacity=".22" stroke-width=".974" stroke-dasharray="1.95 1.95"/></g></svg>