<svg viewBox="0 0 173 91" fill="none" xmlns="http://www.w3.org/2000/svg"><path d="M125.356 68.846a.524.524 0 01-1.05 0v-3.062a.524.524 0 011.05 0v3.061zm0-6.99a.524.524 0 01-1.05 0v-3.061a.524.524 0 011.05 0v3.061zm4.645 6.99a.524.524 0 01-1.05 0v-3.062a.524.524 0 011.05 0v3.061zm0-6.99a.524.524 0 01-1.05 0v-3.061a.524.524 0 011.05 0v3.061zm4.648 6.99a.524.524 0 01-1.05 0v-3.062a.524.524 0 011.05 0v3.061zm0-6.99a.524.524 0 01-1.05 0v-3.061a.524.524 0 011.05 0v3.061zm4.645 6.989a.524.524 0 01-1.05 0v-3.061a.524.524 0 011.05 0v3.061zm0-6.989a.524.524 0 01-1.05 0v-3.062c0-.288.234-.522.525-.522.29 0 .525.234.525.523v3.06zm4.648 6.989a.524.524 0 01-1.05 0v-3.061a.524.524 0 011.05 0v3.061zm0-6.989a.524.524 0 01-1.05 0v-3.061a.524.524 0 011.05 0v3.06zm-19.636 20.963a.524.524 0 011.05 0v3.06a.524.524 0 01-1.05 0v-3.06zm0-6.985a.524.524 0 011.05 0v3.06a.524.524 0 01-1.05 0v-3.06zm4.645 6.985a.524.524 0 011.05 0v3.06a.524.524 0 01-1.05 0v-3.06zm0-6.985a.524.524 0 011.05 0v3.06a.524.524 0 01-1.05 0v-3.06zm4.648 6.985a.524.524 0 011.05 0v3.06a.524.524 0 01-1.05 0v-3.06zm0-6.985a.524.524 0 011.05 0v3.06a.524.524 0 01-1.05 0v-3.06zm4.645 6.985a.524.524 0 011.05 0v3.06a.524.524 0 01-1.05 0v-3.06zm0-6.985a.524.524 0 011.05 0v3.06a.524.524 0 01-1.05 0v-3.06zm4.648 6.985a.524.524 0 011.05 0v3.06a.524.524 0 01-1.05 0v-3.06zm0-6.985a.524.524 0 011.05 0v3.06a.524.524 0 01-1.05 0v-3.06zm5.691-6.989a.524.524 0 01-1.05 0v-3.061a.524.524 0 011.05 0v3.061zm0-6.989a.524.524 0 01-1.05 0v-3.062a.524.524 0 011.05 0v3.062zm4.644 6.989a.524.524 0 01-1.05 0v-3.061a.524.524 0 011.05 0v3.061zm0-6.989a.524.524 0 01-1.05 0v-3.061a.524.524 0 011.05 0v3.06zm4.649 6.99a.524.524 0 01-1.05 0v-3.062a.524.524 0 011.05 0v3.061zm0-6.99a.524.524 0 01-1.05 0v-3.061a.524.524 0 011.05 0v3.061zm4.644 6.99a.524.524 0 01-1.05 0v-3.062a.524.524 0 011.05 0v3.061zm0-6.99a.524.524 0 01-1.05 0v-3.061a.524.524 0 011.05 0v3.061z" fill="#000" stroke="#fff" stroke-width=".3"/><mask id="path-29-inside-1" fill="#fff"><path d="M171.328 89.154h-1.181v-16.74a.674.674 0 00-.675-.674h-1.632V54.72h.67a.674.674 0 100-1.346h-.67v-6.787h.67a.674.674 0 100-1.346h-.67v-7.907a.674.674 0 00-.675-.673h-46.939c-.373 0-.675.3-.675.673v7.907h-.671a.674.674 0 100 1.346h.671v6.787h-.671a.674.674 0 100 1.346h.671v34.434h-.876a.674.674 0 100 1.346h52.653a.674.674 0 100-1.346zm-2.531 0h-4.015V78.723a.674.674 0 00-.675-.673h-10.085c-.373 0-.675.3-.675.673v10.431h-4.614V73.086h20.064v16.068zm-9.057-9.758h3.692v9.758h-3.692v-9.758zm-1.35 9.758h-3.693v-9.758h3.693v9.758zm8.1-35.78h-5.4v-6.787h5.4v6.787zm-13.551-8.133h-5.451v-7.234h5.451v7.234zm1.35-7.234h5.451v7.234h-5.451v-7.234zm-8.151 7.234h-5.451v-7.234h5.451v7.234zm-6.801 0h-5.451v-7.234h5.451v7.234zm-6.801 0h-5.451v-7.234h5.451v7.234zm0 1.346v6.787h-5.451v-6.787h5.451zm1.35 0h5.451v6.787h-5.451v-6.787zm6.801 0h5.451v6.787h-5.451v-6.787zm6.801 0h5.451v6.787h-5.451v-6.787zm6.801 0h5.451v6.787h-5.451v-6.787zm12.201-1.346h-5.4v-7.234h5.4v7.234zm-45.589-7.234h4.834v7.234h-4.834v-7.234zm0 8.58h4.834v6.787h-4.834v-6.787zm45.589 8.133v17.02h-45.589V54.72h45.589zm-45.589 18.366h26.482v16.068h-26.482V73.086z"/></mask><path d="M171.328 89.154h-1.181v-16.74a.674.674 0 00-.675-.674h-1.632V54.72h.67a.674.674 0 100-1.346h-.67v-6.787h.67a.674.674 0 100-1.346h-.67v-7.907a.674.674 0 00-.675-.673h-46.939c-.373 0-.675.3-.675.673v7.907h-.671a.674.674 0 100 1.346h.671v6.787h-.671a.674.674 0 100 1.346h.671v34.434h-.876a.674.674 0 100 1.346h52.653a.674.674 0 100-1.346zm-2.531 0h-4.015V78.723a.674.674 0 00-.675-.673h-10.085c-.373 0-.675.3-.675.673v10.431h-4.614V73.086h20.064v16.068zm-9.057-9.758h3.692v9.758h-3.692v-9.758zm-1.35 9.758h-3.693v-9.758h3.693v9.758zm8.1-35.78h-5.4v-6.787h5.4v6.787zm-13.551-8.133h-5.451v-7.234h5.451v7.234zm1.35-7.234h5.451v7.234h-5.451v-7.234zm-8.151 7.234h-5.451v-7.234h5.451v7.234zm-6.801 0h-5.451v-7.234h5.451v7.234zm-6.801 0h-5.451v-7.234h5.451v7.234zm0 1.346v6.787h-5.451v-6.787h5.451zm1.35 0h5.451v6.787h-5.451v-6.787zm6.801 0h5.451v6.787h-5.451v-6.787zm6.801 0h5.451v6.787h-5.451v-6.787zm6.801 0h5.451v6.787h-5.451v-6.787zm12.201-1.346h-5.4v-7.234h5.4v7.234zm-45.589-7.234h4.834v7.234h-4.834v-7.234zm0 8.58h4.834v6.787h-4.834v-6.787zm45.589 8.133v17.02h-45.589V54.72h45.589zm-45.589 18.366h26.482v16.068h-26.482V73.086z" fill="#000" stroke="#fff" stroke-width=".6" mask="url(#path-29-inside-1)"/><path d="M4.586 74.818c.25 0 .454-.202.454-.452V72.31a.453.453 0 00-.907 0v2.056c0 .25.203.452.453.452zm0-4.693c.25 0 .454-.202.454-.452v-2.056a.453.453 0 00-.907 0v2.056c0 .25.203.452.453.452zm3.121 4.693c.25 0 .454-.202.454-.452V72.31a.453.453 0 00-.907 0v2.056c0 .25.203.452.453.452zm0-4.693c.25 0 .454-.202.454-.452v-2.056a.453.453 0 00-.907 0v2.056c0 .25.203.452.453.452zm3.121 4.693c.25 0 .454-.202.454-.452V72.31a.453.453 0 00-.907 0v2.056c0 .25.203.452.453.452zm0-4.693c.25 0 .454-.202.454-.452v-2.056a.453.453 0 00-.907 0v2.056c0 .25.203.452.453.452zm3.118 4.693c.25 0 .453-.202.453-.452V72.31a.453.453 0 00-.907 0v2.056c0 .25.203.452.454.452zm0-4.693c.25 0 .453-.202.453-.452v-2.056a.453.453 0 00-.907 0v2.056c0 .25.203.452.454.452zm3.124 4.693c.25 0 .454-.202.454-.452V72.31a.453.453 0 00-.907 0v2.056c0 .25.203.452.454.452zm0-4.693c.25 0 .454-.202.454-.452v-2.056a.453.453 0 00-.907 0v2.056c0 .25.203.452.454.452zM4.586 83.3a.453.453 0 00-.453.452v2.055a.453.453 0 00.907 0v-2.055a.453.453 0 00-.454-.452zm0-4.694a.453.453 0 00-.453.451v2.056a.453.453 0 00.907 0v-2.056a.453.453 0 00-.454-.451zM7.707 83.3a.453.453 0 00-.453.452v2.055a.453.453 0 00.907 0v-2.055a.453.453 0 00-.454-.452zm0-4.694a.453.453 0 00-.453.451v2.056a.453.453 0 00.907 0v-2.056a.453.453 0 00-.454-.451zm3.121 4.694a.453.453 0 00-.453.452v2.055a.453.453 0 00.907 0v-2.055a.453.453 0 00-.454-.452zm0-4.694a.453.453 0 00-.453.451v2.056a.453.453 0 00.907 0v-2.056a.453.453 0 00-.454-.451zm3.118 4.694a.453.453 0 00-.454.452v2.055a.453.453 0 00.907 0v-2.055a.453.453 0 00-.453-.452zm0-4.694a.453.453 0 00-.454.451v2.056a.453.453 0 00.907 0v-2.056a.453.453 0 00-.453-.451zM17.07 83.3a.453.453 0 00-.453.452v2.055a.453.453 0 00.907 0v-2.055a.453.453 0 00-.453-.452zm0-4.694a.453.453 0 00-.453.451v2.056a.453.453 0 00.907 0v-2.056a.453.453 0 00-.453-.451zm3.118-3.788c.25 0 .453-.202.453-.452V72.31a.453.453 0 00-.907 0v2.056c0 .25.203.452.454.452zm0-4.693c.25 0 .453-.202.453-.452v-2.056a.453.453 0 00-.907 0v2.056c0 .25.203.452.454.452zm3.121 4.693c.25 0 .453-.202.453-.452V72.31a.453.453 0 00-.907 0v2.056c0 .25.204.452.454.452zm0-4.693c.25 0 .453-.202.453-.452v-2.056a.453.453 0 00-.907 0v2.056c0 .25.204.452.454.452zm3.121 4.693c.25 0 .453-.202.453-.452V72.31a.453.453 0 00-.906 0v2.056c0 .25.203.452.453.452zm0-4.693c.25 0 .453-.202.453-.452v-2.056a.453.453 0 00-.906 0v2.056c0 .25.203.452.453.452zm3.121 4.693c.25 0 .453-.202.453-.452V72.31a.453.453 0 00-.906 0v2.056c0 .25.203.452.453.452zm0-4.693c.25 0 .453-.202.453-.452v-2.056a.453.453 0 00-.906 0v2.056c0 .25.203.452.453.452z" fill="#000"/><path d="M35.817 88.007h-.793V76.763a.453.453 0 00-.453-.452h-1.096V64.879h.45a.453.453 0 100-.904h-.45v-4.558h.45a.453.453 0 100-.904h-.45v-5.311a.453.453 0 00-.454-.452H1.495a.453.453 0 00-.454.452v5.311h-.45a.453.453 0 100 .904h.45v4.558h-.45a.453.453 0 100 .904h.45v23.128H.453a.453.453 0 100 .904h35.364a.453.453 0 100-.904zm-1.7 0h-2.696V81a.453.453 0 00-.453-.451h-6.774a.453.453 0 00-.453.451v7.007h-3.1V77.215h13.476v10.792zm-6.083-6.555h2.48v6.555h-2.48v-6.555zm-.907 6.555h-2.48v-6.555h2.48v6.555zm5.44-24.032h-3.626v-4.558h3.627v4.558zm-9.1-5.462h-3.662v-4.859h3.661v4.86zm.906-4.859h3.661v4.86h-3.661v-4.86zm-5.474 4.86h-3.661v-4.86h3.66v4.86zm-4.568 0h-3.662v-4.86h3.662v4.86zm-4.568 0h-3.66v-4.86h3.66v4.86zm0 .903v4.558h-3.66v-4.558h3.66zm.907 0h3.661v4.558H10.67v-4.558zm4.567 0h3.661v4.558h-3.66v-4.558zm4.569 0h3.66v4.558h-3.66v-4.558zm4.567 0h3.661v4.558h-3.661v-4.558zm8.195-.904H28.94v-4.859h3.627v4.86zm-30.62-4.859h3.247v4.86H1.948v-4.86zm0 5.763h3.247v4.558H1.948v-4.558zm30.62 5.462v11.432H1.948V64.879h30.62zM1.948 77.215h17.787v10.792H1.948V77.215z" fill="#000"/><path d="M46 54.301c0 .456-.37.825-.829.825a.826.826 0 01-.828-.825v-5.117c0-.456.37-.825.828-.825.459 0 .829.37.829.825V54.3zm0-11.679c0 .455-.37.825-.829.825a.826.826 0 01-.828-.825v-5.118c0-.456.37-.825.828-.825.459 0 .829.37.829.825v5.118zm7.761 11.679c0 .456-.37.825-.828.825a.826.826 0 01-.828-.825v-5.117c0-.456.37-.825.828-.825.458 0 .828.37.828.825V54.3zm0-11.679c0 .455-.37.825-.828.825a.826.826 0 01-.828-.825v-5.118c0-.456.37-.825.828-.825.458 0 .828.37.828.825v5.118zm7.77 11.679c0 .456-.37.825-.828.825a.826.826 0 01-.829-.825v-5.117c0-.456.37-.825.829-.825.458 0 .828.37.828.825V54.3zm0-11.679c0 .455-.37.825-.828.825a.826.826 0 01-.829-.825v-5.118c0-.456.37-.825.829-.825.458 0 .828.37.828.825v5.118zm7.762 11.679c0 .456-.37.825-.829.825a.826.826 0 01-.828-.825v-5.117c0-.456.37-.825.828-.825.459 0 .829.37.829.825V54.3zm0-11.679c0 .455-.37.825-.829.825a.826.826 0 01-.828-.825v-5.118c0-.456.37-.825.828-.825.459 0 .829.37.829.825v5.118zm7.773 11.679c0 .456-.37.825-.828.825a.826.826 0 01-.829-.825v-5.117c0-.456.37-.825.829-.825.458 0 .828.37.828.825V54.3zm0-11.679c0 .455-.37.825-.828.825a.826.826 0 01-.829-.825v-5.118c0-.456.37-.825.829-.825.458 0 .828.37.828.825v5.118zM44.343 77.66c0-.455.37-.825.828-.825.459 0 .829.37.829.825v5.116c0 .456-.37.825-.829.825a.826.826 0 01-.828-.825V77.66zm0-11.68c0-.455.37-.825.828-.825.459 0 .829.37.829.825v5.117c0 .455-.37.825-.829.825a.826.826 0 01-.828-.825V65.98zm7.762 11.68c0-.455.37-.825.828-.825.458 0 .828.37.828.825v5.116c0 .456-.37.825-.828.825a.826.826 0 01-.828-.825V77.66zm0-11.68c0-.455.37-.825.828-.825.458 0 .828.37.828.825v5.117c0 .455-.37.825-.828.825a.826.826 0 01-.828-.825V65.98zm7.769 11.68c0-.455.37-.825.829-.825.458 0 .828.37.828.825v5.116c0 .456-.37.825-.828.825a.826.826 0 01-.829-.825V77.66zm0-11.68c0-.455.37-.825.829-.825.458 0 .828.37.828.825v5.117c0 .455-.37.825-.828.825a.826.826 0 01-.829-.825V65.98zm7.762 11.68c0-.455.37-.825.828-.825.459 0 .829.37.829.825v5.116c0 .456-.37.825-.829.825a.826.826 0 01-.828-.825V77.66zm0-11.68c0-.455.37-.825.828-.825.459 0 .829.37.829.825v5.117c0 .455-.37.825-.829.825a.826.826 0 01-.828-.825V65.98zm7.774 11.68c0-.455.37-.825.828-.825.458 0 .828.37.828.825v5.116c0 .456-.37.825-.828.825a.826.826 0 01-.829-.825V77.66zm0-11.68c0-.455.37-.825.828-.825.458 0 .828.37.828.825v5.117c0 .455-.37.825-.828.825a.826.826 0 01-.829-.825V65.98zm9.42-11.679c0 .456-.37.825-.829.825a.826.826 0 01-.828-.825v-5.117c0-.456.37-.825.828-.825.459 0 .829.37.829.825V54.3zm0-11.679c0 .455-.37.825-.829.825a.826.826 0 01-.828-.825v-5.118c0-.456.37-.825.828-.825.459 0 .829.37.829.825v5.118zm7.764 11.679c0 .456-.37.825-.829.825a.826.826 0 01-.828-.825v-5.117c0-.456.37-.825.828-.825.458 0 .829.37.829.825V54.3zm0-11.679c0 .455-.37.825-.829.825a.826.826 0 01-.828-.825v-5.118c0-.456.37-.825.828-.825.458 0 .829.37.829.825v5.118zm7.765 11.679c0 .456-.37.825-.828.825a.826.826 0 01-.829-.825v-5.117c0-.456.37-.825.829-.825.458 0 .828.37.828.825V54.3zm0-11.679c0 .455-.37.825-.828.825a.826.826 0 01-.829-.825v-5.118c0-.456.37-.825.829-.825.458 0 .828.37.828.825v5.118zm7.766 11.679c0 .456-.37.825-.829.825a.826.826 0 01-.828-.825v-5.117c0-.456.37-.825.828-.825.459 0 .829.37.829.825V54.3zm0-11.679c0 .455-.37.825-.829.825a.826.826 0 01-.828-.825v-5.118c0-.456.37-.825.828-.825.459 0 .829.37.829.825v5.118z" fill="#000" stroke="#fff" stroke-width=".6"/><mask id="path-87-inside-2" fill="#fff"><path d="M122.899 88.25h-1.974V60.266c0-.622-.506-1.125-1.129-1.125h-2.727V30.688h1.12c.623 0 1.129-.503 1.129-1.125s-.506-1.125-1.129-1.125h-1.12V17.094h1.12c.623 0 1.129-.503 1.129-1.125s-.506-1.125-1.129-1.125h-1.12V1.625c0-.622-.506-1.125-1.129-1.125H37.474c-.623 0-1.128.503-1.128 1.125v13.219h-1.122a1.126 1.126 0 100 2.25h1.122v11.344h-1.122a1.126 1.126 0 100 2.25h1.122V88.25h-1.464a1.126 1.126 0 100 2.25H122.9c.623 0 1.129-.503 1.129-1.125s-.506-1.125-1.129-1.125zm-4.231 0h-6.711V70.812c0-.622-.506-1.124-1.128-1.124h-16.86c-.622 0-1.127.502-1.127 1.124V88.25h-7.713V61.39h33.539v26.86zm-15.14-16.313h6.172V88.25h-6.172V71.937zm-2.257 16.313h-6.173V71.937h6.173V88.25zm13.541-59.812h-9.027V17.094h9.027v11.344zM92.159 14.844h-9.112V2.75h9.112v12.094zM94.416 2.75h9.112v12.094h-9.112V2.75zM80.79 14.844h-9.11V2.75h9.112v12.094zm-11.37 0h-9.11V2.75h9.112v12.094zm-11.368 0H48.94V2.75h9.112v12.094zm0 2.25v11.344H48.94V17.094h9.112zm2.257 0h9.112v11.344H60.31V17.094zm11.368 0h9.112v11.344h-9.112V17.094zm11.37 0h9.112v11.344h-9.112V17.094zm11.368 0h9.112v11.344h-9.112V17.094zm20.396-2.25h-9.027V2.75h9.027v12.094zM38.602 2.75h8.083v12.094h-8.082V2.75zm0 14.344h8.083v11.344h-8.082V17.094zm76.21 13.594v28.453H38.603V30.688h76.209zm-76.21 30.703h44.27V88.25h-44.27V61.39z"/></mask><path d="M122.899 88.25h-1.974V60.266c0-.622-.506-1.125-1.129-1.125h-2.727V30.688h1.12c.623 0 1.129-.503 1.129-1.125s-.506-1.125-1.129-1.125h-1.12V17.094h1.12c.623 0 1.129-.503 1.129-1.125s-.506-1.125-1.129-1.125h-1.12V1.625c0-.622-.506-1.125-1.129-1.125H37.474c-.623 0-1.128.503-1.128 1.125v13.219h-1.122a1.126 1.126 0 100 2.25h1.122v11.344h-1.122a1.126 1.126 0 100 2.25h1.122V88.25h-1.464a1.126 1.126 0 100 2.25H122.9c.623 0 1.129-.503 1.129-1.125s-.506-1.125-1.129-1.125zm-4.231 0h-6.711V70.812c0-.622-.506-1.124-1.128-1.124h-16.86c-.622 0-1.127.502-1.127 1.124V88.25h-7.713V61.39h33.539v26.86zm-15.14-16.313h6.172V88.25h-6.172V71.937zm-2.257 16.313h-6.173V71.937h6.173V88.25zm13.541-59.812h-9.027V17.094h9.027v11.344zM92.159 14.844h-9.112V2.75h9.112v12.094zM94.416 2.75h9.112v12.094h-9.112V2.75zM80.79 14.844h-9.11V2.75h9.112v12.094zm-11.37 0h-9.11V2.75h9.112v12.094zm-11.368 0H48.94V2.75h9.112v12.094zm0 2.25v11.344H48.94V17.094h9.112zm2.257 0h9.112v11.344H60.31V17.094zm11.368 0h9.112v11.344h-9.112V17.094zm11.37 0h9.112v11.344h-9.112V17.094zm11.368 0h9.112v11.344h-9.112V17.094zm20.396-2.25h-9.027V2.75h9.027v12.094zM38.602 2.75h8.083v12.094h-8.082V2.75zm0 14.344h8.083v11.344h-8.082V17.094zm76.21 13.594v28.453H38.603V30.688h76.209zm-76.21 30.703h44.27V88.25h-44.27V61.39z" fill="#000" stroke="#fff" stroke-width="1.2" mask="url(#path-87-inside-2)"/></svg>