<svg viewBox="0 0 186 47" fill="none" xmlns="http://www.w3.org/2000/svg"><path d="M131.278 46.01a5.066 5.066 0 01-5.065-5.056 5.066 5.066 0 0110.131 0c0 2.788-2.272 5.055-5.066 5.055zm0-9.603a4.557 4.557 0 00-4.556 4.547 4.557 4.557 0 009.113 0 4.557 4.557 0 00-4.557-4.547zm47.349-4.679h-49.629l-4.594-.635-65.038.003-3.372.628-47.396.004a.255.255 0 01-.254-.254v-3.032c0-.14.114-.255.254-.255h170.027c.141 0 .255.114.255.255v3.032a.252.252 0 01-.253.254zm-113.056-1.14h58.869l4.595.634 49.337-.002v-2.524H8.855v2.524H55.95l3.372-.629 6.25-.004z" fill="#000" stroke="#516981" stroke-width=".2"/><path d="M12.334 28.696a.254.254 0 01-.247-.311l.76-3.285a.253.253 0 01.249-.197h3.606V4.559a.25.25 0 01.122-.215l2.468-1.517a.257.257 0 01.132-.04h4.05V1.59c0-.098.054-.187.144-.23.071-.034 1.818-.846 6.628-.86h.102c4.677 0 5.162 1.015 5.213 1.22l.006 1.133h1.074V1.527c0-.108.067-.203.169-.24.073-.026 1.858-.647 6.09-.777 4.298-.122 5.626.964 5.681 1.013a.25.25 0 01.09.193V2.6h1.263V1.59a.25.25 0 01.118-.213c.051-.033 1.317-.8 5.956-.86 4.63-.076 5.856.703 5.905.735a.253.253 0 01.115.212v.811l.39.26h.873V1.528c0-.075.035-.148.092-.195a.244.244 0 01.21-.053l1.342.256v-.45c0-.073.03-.14.086-.188a.267.267 0 01.197-.063l3.99.44a.255.255 0 01.226.253v.82h1.011v-.505c-.004-.034.004-.142.114-.262.573-.62 3.387-.75 5.646-.75 5.198 0 5.975.7 6.069 1 .006.024.01.049.01.075v.442h.758v-.505c0-.108.067-.203.169-.24.085-.03 2.172-.773 5.846-.773 3.672 0 5.57.619 5.65.645a.254.254 0 01.173.242v.505h5.19L105.517.84a.26.26 0 01.183.022l2.162 1.171 2.085.057.872-1.157a.256.256 0 01.203-.102h15.069c.051 0 .102.017.142.045l1.139.777h2.896c.141 0 .255.114.255.254v.442h1.53l.558-.612a.26.26 0 01.19-.084h23.062c.114 0 .212.075.244.183l1.372 4.76a.256.256 0 01-.123.292l-1.239.685v4.062h12.891c.042 0 .083.01.122.03l2.812 1.517c.081.043.132.13.132.224v15.037a.254.254 0 01-.509 0V13.56l-2.621-1.414h-13.081a.255.255 0 01-.255-.254V7.427c0-.092.049-.177.13-.222l1.195-.659-1.262-4.38h-22.762l-.559.612a.257.257 0 01-.189.083h-1.899a.255.255 0 01-.255-.254v-.441h-2.72a.254.254 0 01-.143-.045l-1.139-.777h-14.86l-.874 1.161a.258.258 0 01-.204.102h-.008l-2.278-.063a.248.248 0 01-.114-.03l-2.128-1.154-5.412 1.365-5.505.008a.255.255 0 01-.255-.254V1.91c-.544-.148-2.352-.567-5.316-.567-3 0-4.944.517-5.506.687v.574c0 .14-.114.254-.255.254h-1.263a.255.255 0 01-.255-.254v-.626c-.1-.07-.941-.635-5.569-.635-4.32 0-5.126.464-5.253.567v.694c0 .14-.114.254-.254.254h-1.52a.255.255 0 01-.255-.254v-.848l-3.48-.385v.474a.252.252 0 01-.302.248l-1.343-.256v.956c0 .14-.114.254-.255.254H62.34c-.05 0-.1-.014-.14-.042l-.569-.379a.253.253 0 01-.114-.211v-.793c-.383-.167-1.85-.655-5.502-.596-3.692.049-5.171.553-5.573.726v1.104c0 .14-.114.254-.254.254h-1.773a.255.255 0 01-.255-.254V1.852c-.348-.215-1.779-.927-5.245-.83-3.423.106-5.234.544-5.766.696v1.393c0 .14-.114.255-.255.255H35.31a.255.255 0 01-.255-.255V1.846c-.104-.134-.835-.834-4.709-.834h-.1c-3.92.013-5.766.57-6.265.755v1.281c0 .14-.114.254-.255.254h-4.232l-2.286 1.404V25.16c0 .14-.114.254-.255.254h-3.658l-.715 3.09a.255.255 0 01-.246.19zM70.95 1.822v.039a.125.125 0 000-.04z" fill="#000" stroke="#516981" stroke-width=".2"/><path d="M154.616 6.415h-19.16a.253.253 0 01-.251-.214l-.676-4.254a.253.253 0 01.212-.291.248.248 0 01.291.212l.642 4.038h18.62l-.94-3.94a.254.254 0 01.19-.306.256.256 0 01.308.19l1.012 4.253a.247.247 0 01-.049.216.26.26 0 01-.199.096zm-5.237 9.182h-9.452a.255.255 0 01-.255-.254v-5.307c0-.14.114-.254.255-.254h9.452c.141 0 .255.114.255.254v5.305c0 .14-.112.256-.255.256zm-9.196-.508h8.944v-4.797h-8.944v4.797z" fill="#000" stroke="#516981" stroke-width=".2"/><path d="M145.036 15.597a.255.255 0 01-.255-.254v-5.307a.255.255 0 01.51 0v5.305c0 .14-.114.256-.255.256zm9.578-.001h-5.232a.254.254 0 01-.255-.254c0-.14.114-.253.255-.253h5.232a.254.254 0 110 .507zm-14.685 0h-4.475a.254.254 0 01-.255-.254c0-.14.114-.253.255-.253h4.473a.254.254 0 01.002.507z" fill="#000" stroke="#516981" stroke-width=".2"/><path d="M154.614 23.769h-19.16a.254.254 0 01-.255-.254V6.16a.254.254 0 01.422-.192l4.473 3.875a.253.253 0 01.026.358.258.258 0 01-.361.024l-4.05-3.51v16.543h18.648V6.665l-4.827 3.573a.256.256 0 01-.357-.053.256.256 0 01.053-.355l5.233-3.875a.253.253 0 01.405.205v17.355a.248.248 0 01-.25.254zm14.389 4.928a.255.255 0 01-.255-.254V11.89a.255.255 0 01.509 0v16.553c0 .14-.112.254-.254.254zm-2.054-5.189h-10.667a.254.254 0 110-.508h10.667a.254.254 0 110 .508z" fill="#000" stroke="#516981" stroke-width=".2"/><path d="M8.598 28.697a.255.255 0 01-.254-.254v-8.55c0-.14.114-.255.254-.255H130.34l4.905-7.248a.255.255 0 01.354-.069c.116.08.147.236.068.352l-4.98 7.36a.252.252 0 01-.212.112H8.854v8.296a.256.256 0 01-.256.256z" fill="#000" stroke="#516981" stroke-width=".2"/><path d="M13.999 28.694a.254.254 0 01-.255-.254v-8.55a.255.255 0 01.51 0v8.55c0 .14-.115.254-.255.254zm9.715 0a.254.254 0 01-.255-.254v-8.55a.255.255 0 01.51 0v8.55c0 .14-.115.254-.255.254zm9.713 0a.254.254 0 01-.255-.254v-8.55a.255.255 0 01.51 0v8.55c0 .14-.117.254-.255.254zm9.713 0a.254.254 0 01-.255-.254v-8.55a.255.255 0 01.51 0v8.55c0 .14-.115.254-.256.254zm9.712 0a.254.254 0 01-.254-.254v-8.55a.255.255 0 01.51 0v8.55c0 .14-.115.254-.256.254zm9.715 0a.254.254 0 01-.255-.254v-8.55a.255.255 0 01.51 0v8.55c0 .14-.114.254-.255.254zm9.713 0a.254.254 0 01-.255-.254v-8.55a.255.255 0 01.51 0v8.55c0 .14-.114.254-.255.254zm9.713 0a.254.254 0 01-.255-.254v-8.55a.255.255 0 01.51 0v8.55c0 .14-.114.254-.255.254zm10.584.146a.254.254 0 01-.255-.254v-8.55a.255.255 0 01.51 0v8.55c0 .14-.114.254-.255.254zm8.842-.146a.254.254 0 01-.255-.254v-8.55a.255.255 0 01.51 0v8.55c0 .14-.113.254-.255.254zm9.713 0a.254.254 0 01-.255-.254v-8.55a.255.255 0 01.509 0v8.55c0 .14-.114.254-.254.254zm9.713 0a.254.254 0 01-.255-.254v-8.55a.255.255 0 01.509 0v8.55c0 .14-.112.254-.254.254zm9.712 0a.254.254 0 01-.254-.254v-8.55a.254.254 0 01.509 0v8.55c0 .14-.114.254-.255.254zm-30.381 5.856h-33.76c-.784 0-1.322-.241-1.597-.72-.634-1.102.485-3.034.532-3.115a.252.252 0 01.348-.09c.122.07.163.226.092.348-.285.484-.933 1.904-.53 2.606.177.307.567.465 1.155.465h33.76c1.251 0 2.084-.364 2.29-.996.194-.6-.232-1.385-1.088-1.996a.256.256 0 01-.057-.355.258.258 0 01.357-.057c1.053.754 1.542 1.736 1.273 2.566-.277.853-1.29 1.345-2.775 1.345z" fill="#000" stroke="#516981" stroke-width=".2"/><path d="M120.598 43.646H65.442a.242.242 0 01-.139-.043c-.087-.057-2.178-1.456-2.351-4.746-.176-3.345 3.331-4.787 3.368-4.8a.254.254 0 11.19.473c-.033.012-3.206 1.321-3.049 4.298.143 2.725 1.738 4.061 2.064 4.308h55.004c.249-.167 1.48-1.172 1.335-4.45-.145-3.355-1.598-4.053-1.816-4.138h-19.875a.255.255 0 010-.509h19.918c.023 0 .045.005.067.01.084.023 2.038.6 2.213 4.615.173 3.994-1.583 4.919-1.658 4.956a.281.281 0 01-.115.026zm10.682-.922a1.783 1.783 0 01-1.737-1.394v-.002a1.773 1.773 0 011.353-2.108c.936-.205 1.906.395 2.113 1.351a1.774 1.774 0 01-1.729 2.153zm-1.239-1.502c.15.678.821 1.109 1.507.965a1.268 1.268 0 00.964-1.506 1.265 1.265 0 00-2.471.541zm21.009 4.788c-2.794 0-5.066-2.268-5.066-5.056a5.065 5.065 0 0110.129 0 5.065 5.065 0 01-5.063 5.055zm0-9.603a4.557 4.557 0 00-4.556 4.547 4.557 4.557 0 004.556 4.547c2.51 0 4.554-2.04 4.554-4.547a4.556 4.556 0 00-4.554-4.547z" fill="#000" stroke="#516981" stroke-width=".2"/><path d="M151.047 42.724a1.75 1.75 0 01-.954-.283 1.772 1.772 0 01.575-3.22 1.78 1.78 0 012.115 1.349 1.774 1.774 0 01-1.736 2.154zm.002-3.035a1.266 1.266 0 00-1.235 1.534 1.267 1.267 0 001.506.964 1.27 1.27 0 00.966-1.505 1.27 1.27 0 00-1.237-.993zm20.165 6.321c-2.794 0-5.066-2.268-5.066-5.056 0-2.788 2.272-5.056 5.066-5.056s5.066 2.268 5.066 5.056c0 2.788-2.272 5.055-5.066 5.055zm0-9.603a4.557 4.557 0 00-4.556 4.547 4.557 4.557 0 009.112 0 4.555 4.555 0 00-4.556-4.547z" fill="#000" stroke="#516981" stroke-width=".2"/><path d="M171.211 42.724a1.75 1.75 0 01-.954-.283 1.772 1.772 0 01.575-3.22 1.777 1.777 0 012.115 1.349 1.774 1.774 0 01-1.736 2.154zm.002-3.035a1.266 1.266 0 00-1.235 1.534 1.266 1.266 0 001.506.964 1.27 1.27 0 00.966-1.505 1.27 1.27 0 00-1.237-.993zM14.595 46.01c-2.794 0-5.066-2.268-5.066-5.056a5.066 5.066 0 0110.131 0 5.065 5.065 0 01-5.065 5.055zm0-9.603a4.557 4.557 0 00-4.556 4.547 4.557 4.557 0 009.112 0 4.557 4.557 0 00-4.556-4.547z" fill="#000" stroke="#516981" stroke-width=".2"/><path d="M14.596 42.724a1.771 1.771 0 01-.381-3.502 1.77 1.77 0 11.76 3.459 1.73 1.73 0 01-.38.043zm-1.237-1.501c.15.681.827 1.108 1.506.964.68-.15 1.112-.824.964-1.505a1.265 1.265 0 00-1.506-.962 1.266 1.266 0 00-.964 1.503zm21.007 4.787a5.066 5.066 0 01-5.065-5.056 5.066 5.066 0 0110.131 0c0 2.788-2.272 5.055-5.066 5.055zm0-9.603a4.557 4.557 0 00-4.556 4.547 4.557 4.557 0 009.113 0 4.557 4.557 0 00-4.557-4.547z" fill="#000" stroke="#516981" stroke-width=".2"/><path d="M34.363 42.724a1.76 1.76 0 01-.953-.281 1.772 1.772 0 01.577-3.222 1.777 1.777 0 012.112 1.349 1.775 1.775 0 01-1.736 2.154zm.002-3.035a1.264 1.264 0 00-1.233 1.532v.002a1.265 1.265 0 002.47-.541 1.27 1.27 0 00-1.237-.993zm20.167 6.321a5.066 5.066 0 01-5.065-5.056 5.066 5.066 0 0110.131 0 5.064 5.064 0 01-5.066 5.055zm0-9.603a4.557 4.557 0 00-4.556 4.547 4.557 4.557 0 009.113 0 4.557 4.557 0 00-4.557-4.547z" fill="#000" stroke="#516981" stroke-width=".2"/><path d="M54.533 42.724a1.76 1.76 0 01-.953-.281 1.772 1.772 0 01.577-3.222 1.775 1.775 0 012.112 1.349 1.775 1.775 0 01-1.736 2.154zm0-3.035a1.264 1.264 0 00-1.233 1.532v.002a1.266 1.266 0 002.47-.541 1.269 1.269 0 00-1.237-.993zm91.705 1.517h-10.149a.254.254 0 110-.507h10.149c.141 0 .255.114.255.254s-.112.253-.255.253zm20.165 0h-10.545a.254.254 0 010-.507h10.545a.254.254 0 110 .507zm-39.771-1.252a.255.255 0 01-.252-.22c-.017-.122-.383-3.002 1.008-4.625.587-.683 1.396-1.044 2.407-1.064.073-.002.147-.002.218-.002 2.337 0 4.866.783 6.909 1.414 1.386.429 2.582.8 3.446.862.705.053 1.239.128 1.671.191.978.14 1.471.21 2.527-.174.483-.18 1-.513 1.548-.869 1.251-.807 2.668-1.729 4.489-1.418 1.679.279 3.303.785 4.734 1.229.754.234 1.465.458 2.125.628 1.762.462 5.023 1.121 7.022.401.813-.295 1.534-.639 2.168-.946.972-.468 1.809-.872 2.699-.976 1.447-.177 7.151.242 7.393.258.141.01.247.132.236.273-.01.14-.13.254-.273.236-.059-.004-5.899-.421-7.296-.263-.807.096-1.61.482-2.539.93-.644.311-1.378.665-2.217.966-2.132.775-5.504.09-7.324-.384-.672-.175-1.391-.4-2.149-.635-1.416-.44-3.02-.94-4.666-1.214-1.631-.259-2.957.587-4.127 1.344-.572.372-1.114.72-1.652.917-1.176.432-1.779.344-2.775.204a22.24 22.24 0 00-1.635-.187c-.925-.067-2.147-.448-3.561-.885-2.179-.677-4.632-1.442-6.965-1.391-.86.018-1.543.317-2.032.889-1.245 1.454-.892 4.198-.89 4.226a.258.258 0 01-.218.287c-.006-.002-.016-.002-.029-.002z" fill="#000" stroke="#516981" stroke-width=".2"/><path d="M184.746 42.301h-8.717a.257.257 0 01-.189-.083.249.249 0 01-.064-.195l1.037-10.572c.013-.14.143-.272.278-.227a.25.25 0 01.228.276l-1.009 10.295h8.177l-.491-21.967-1.874.58a.236.236 0 01-.076.012h-3.419a.254.254 0 01-.255-.254v-3.474h-6.555a.255.255 0 01-.255-.254c0-.14.115-.254.255-.254h6.81c.141 0 .255.114.255.254v3.474h3.123l2.16-.673a.248.248 0 01.224.036.26.26 0 01.106.202l.506 22.564a.253.253 0 01-.255.26z" fill="#000" stroke="#516981" stroke-width=".2"/><path d="M175.04 28.696a.255.255 0 01-.255-.254V16.438a.255.255 0 01.51 0v12.004c0 .14-.115.254-.255.254zm3.586.001a.255.255 0 01-.255-.254v-8.276a.255.255 0 01.509 0v8.276c0 .14-.114.254-.254.254zm5.832.8h-5.832a.255.255 0 110-.509h5.832a.254.254 0 010 .51zm-6.72 12.804h-.023a.257.257 0 01-.232-.276l.886-10.572a.259.259 0 01.255-.231h.023a.257.257 0 01.232.276l-.886 10.571a.258.258 0 01-.255.232z" fill="#000" stroke="#516981" stroke-width=".2"/><path d="M184.457 33.286h-5.962a.254.254 0 110-.508h5.962a.254.254 0 110 .508zm.178 4.13h-6.486a.254.254 0 010-.509h6.486a.255.255 0 110 .509zm-45.802 1.432a.677.677 0 01-.677-.676.677.677 0 011.353 0 .678.678 0 01-.676.676zm0-.842a.167.167 0 00-.167.166c0 .183.334.183.334 0a.168.168 0 00-.167-.166zm5.398.842a.676.676 0 110-1.353.676.676 0 010 1.353zm0-.842a.168.168 0 00-.167.166c0 .183.334.183.334 0a.167.167 0 00-.167-.166zm14.774.842a.677.677 0 01-.677-.676.677.677 0 011.353 0 .676.676 0 01-.676.676zm0-.842a.165.165 0 00-.167.166c0 .186.334.186.334 0a.168.168 0 00-.167-.166zm5.228.842a.676.676 0 110-1.353.676.676 0 010 1.353zm0-.842a.167.167 0 00-.167.166c0 .183.334.183.334 0a.167.167 0 00-.167-.166zm-48.316-5.099l-13.104-.082a.256.256 0 01-.252-.256c0-.138.116-.252.254-.252h.002l13.102.081c.139 0 .253.116.253.256a.255.255 0 01-.255.253zm10.55 8.301h-4.334a.248.248 0 01-.222-.13.25.25 0 01.008-.259l1.712-2.715a4.653 4.653 0 01-.153-.545c-.715-3.21 1.644-6.581 1.744-6.726.079-.116.234-.14.355-.059.116.08.14.238.061.354-.025.035-2.331 3.336-1.663 6.323l.018.075 3.972-6.3a.25.25 0 01.35-.08c.12.074.155.23.08.35l-4.2 6.663c.418 1.041 1.223 1.904 2.398 2.573a.255.255 0 01.123.286.257.257 0 01-.249.19zm-3.872-.509h3.01c-.778-.57-1.359-1.245-1.738-2.02l-1.272 2.02zM19.423 28.697a.255.255 0 01-.255-.254v-25.4a.255.255 0 01.51 0v25.398a.255.255 0 01-.255.256zM134.779 3.298H23.727a.255.255 0 110-.509H134.78a.254.254 0 010 .509zm-94.53 8.17H21.175a.255.255 0 01-.255-.254V6.16c0-.14.114-.254.255-.254h19.074c.14 0 .255.114.255.254v5.054c0 .14-.114.254-.255.254zm-18.822-.509h18.565V6.414H21.427v4.545zm39.416.509H41.768a.255.255 0 01-.254-.254V6.16c0-.14.114-.254.254-.254h19.075c.14 0 .254.114.254.254v5.054c0 .14-.116.254-.254.254zm-18.822-.509h18.565V6.414H42.02v4.545zm88.54.341h-19.074a.255.255 0 01-.255-.254V4.644c0-.14.115-.254.255-.254h19.074c.141 0 .255.114.255.254v6.402c0 .14-.114.255-.255.255zm-18.819-.508h18.565V4.898h-18.565v5.894zM95.27 8.944H68.609a.255.255 0 01-.255-.254V4.942c0-.14.115-.255.255-.255h26.66c.141 0 .255.114.255.255V8.69a.253.253 0 01-.252.254zm-26.407-.508h26.15v-3.24h-26.15v3.24zM7.67 42.809H1.256A.256.256 0 011 42.526l1.35-12.593a.256.256 0 01.256-.225h2.109v-8.044c0-.14.114-.254.254-.254H8.6a.254.254 0 110 .509H5.224v8.043c0 .14-.114.254-.255.254H2.835L1.539 42.3h5.897l.909-10.845a.253.253 0 01.236-.232c.108-.002.238.075.267.199l1.673 7.372a.254.254 0 11-.497.11L8.715 33.14l-.792 9.437a.253.253 0 01-.253.232z" fill="#000" stroke="#516981" stroke-width=".2"/><path d="M7.67 42.808a.254.254 0 01-.204-.102.253.253 0 01.049-.356l2.113-1.6a.25.25 0 01.357.049.253.253 0 01-.05.355l-2.112 1.601a.24.24 0 01-.153.053zm.694-8.261h-6.22a.255.255 0 110-.508h6.22a.254.254 0 110 .508zm-.309 3.636H1.75a.254.254 0 110-.507h6.306a.254.254 0 110 .507zm19.281-2.54c-3.187 0-5.514-1.477-6.15-1.926-.466.374-1.927 1.38-4.57 1.802-3.307.553-5.85-3.732-5.958-3.913a.254.254 0 01.09-.348.259.259 0 01.348.09c.023.04 2.221 3.707 4.96 3.707.159 0 .316-.014.477-.039 3.036-.486 4.45-1.795 4.464-1.81a.254.254 0 01.334-.014c.029.023 3.096 2.373 7.238 1.863 4.149-.529 5.612-1.802 5.626-1.814a.274.274 0 01.242-.055c.04.012 3.978 1.153 7.307.856 3.259-.28 4.856-2.682 4.872-2.707a.258.258 0 01.353-.073.253.253 0 01.075.352c-.071.108-1.754 2.636-5.257 2.936-3.12.271-6.642-.638-7.366-.84-.424.322-2.06 1.375-5.79 1.85-.443.056-.877.083-1.295.083z" fill="#000" stroke="#516981" stroke-width=".2"/><path d="M34.366 33.687a.255.255 0 01-.255-.255v-1.956a.255.255 0 01.51 0v1.956c0 .14-.114.255-.255.255zm-13.191-.041a.255.255 0 01-.255-.254v-1.916a.255.255 0 01.51 0v1.916c0 .14-.115.254-.255.254zm.58 6.066a.834.834 0 11-.002-1.665.834.834 0 01.002 1.665zm0-1.16a.325.325 0 100 .65.325.325 0 100-.65zm-7.16 3.233a.836.836 0 01-.835-.834.836.836 0 011.67 0c0 .46-.374.834-.835.834zm0-1.16a.327.327 0 00-.326.326.327.327 0 00.652 0 .327.327 0 00-.326-.325zm19.774 1.16a.836.836 0 01-.836-.834.836.836 0 011.671 0c0 .46-.375.834-.835.834zm0-1.16a.327.327 0 00-.326.326.327.327 0 00.652 0 .327.327 0 00-.326-.325zm20.161 1.16a.836.836 0 01-.835-.834.836.836 0 011.671 0c0 .46-.373.834-.835.834zm0-1.16a.327.327 0 00-.325.326.327.327 0 00.652 0 .325.325 0 00-.326-.325zm-27.827-.809a.888.888 0 01-.889-.887.888.888 0 011.777 0c0 .49-.4.887-.888.887zm0-1.263a.378.378 0 100 .757.378.378 0 100-.757zm15.054 1.159a.834.834 0 11-.002-1.665.834.834 0 01.002 1.665zm0-1.16a.325.325 0 100 .65.325.325 0 100-.65zm4.948 1.264a.887.887 0 110-1.774.887.887 0 110 1.774zm0-1.263a.378.378 0 100 .757.378.378 0 100-.757zm-17.15 3.452H19.337a.255.255 0 110-.509h10.218a.255.255 0 110 .509zm20.167 0H39.11a.255.255 0 110-.509h10.612a.255.255 0 110 .509zm14.003-.799h-4.38a.254.254 0 01-.255-.253c0-.14.114-.254.254-.254h4.381a.254.254 0 110 .507z" fill="#000" stroke="#516981" stroke-width=".2"/><path d="M60.846 41.206a.256.256 0 01-.255-.246c-.122-3.917-2.219-5.818-6.412-5.818-1.58 0-2.333.748-3.063 1.472-.407.405-.794.79-1.294.99-1.359.55-6.007.322-8.087.017-.82-.122-1.606-.458-2.437-.812-1.276-.544-2.72-1.16-4.678-1.165h-.029c-2.082 0-3.016.413-4.096.891-.582.258-1.186.525-2.01.748-2.303.617-3.157.413-7.917-.72l-.69-.162c-5.2-1.24-10.103-.014-10.15-.002a.25.25 0 01-.31-.183.252.252 0 01.184-.31c.048-.011 5.08-1.264 10.392-.001l.69.164c4.652 1.11 5.492 1.31 7.666.722.788-.211 1.373-.47 1.938-.72 1.086-.48 2.113-.935 4.303-.935h.029c2.064.004 3.56.643 4.88 1.208.8.341 1.556.663 2.31.775 2.022.298 6.608.508 7.82.016.406-.163.74-.494 1.128-.88.727-.72 1.632-1.62 3.42-1.62 4.463 0 6.792 2.124 6.923 6.313a.255.255 0 01-.247.262c-.004-.004-.006-.004-.008-.004zm-1.798-7.222H44.007a.255.255 0 110-.508h15.041a.254.254 0 110 .508z" fill="#000" stroke="#516981" stroke-width=".2"/><path d="M61.835 36.404H59.05a.255.255 0 01-.255-.254v-4.17c0-.14.114-.253.255-.253h3.861c.14 0 .255.113.255.254v2.906c0 .14-.114.254-.255.254h-.821v1.01c0 .14-.114.253-.255.253zm-2.53-.508h2.275v-1.009c0-.14.114-.254.255-.254h.821v-2.398h-3.352v3.66z" fill="#000" stroke="#516981" stroke-width=".2"/><path d="M65.053 33.984h-2.144a.255.255 0 110-.508h2.144a.254.254 0 110 .508zm116.993-4.489a.255.255 0 01-.255-.254v-9.077a.254.254 0 01.509 0v9.077c0 .14-.114.254-.254.254zm-8.356-.8a.255.255 0 01-.255-.254v-9.476h-1.618a.255.255 0 01-.255-.254c0-.14.115-.254.255-.254h1.873c.14 0 .254.114.254.254v9.73c0 .14-.114.254-.254.254zm4.935 1.521H4.97a.255.255 0 110-.509h173.655a.255.255 0 110 .509zm-18.736-13.524h-3.798a.254.254 0 110-.508h3.798a.254.254 0 010 .508zm3.922 3.727h-7.722a.255.255 0 110-.509h7.722a.255.255 0 110 .509zM114.48 34.551a.255.255 0 01-.194-.42l1.288-1.475-.573-.627h-12.444a.254.254 0 010-.509h12.558c.072 0 .139.031.19.084l.801.877c.085.095.087.24.004.337l-1.435 1.646a.257.257 0 01-.195.087zm7.045-.884h-2.616a.255.255 0 01-.255-.254v-1.937c0-.14.114-.254.255-.254h2.616c.141 0 .255.113.255.254v1.937c0 .14-.112.255-.255.255zm-2.361-.508h2.107V31.73h-2.107v1.43zm6.753 2.04a.255.255 0 01-.255-.255v-3.896a.255.255 0 01.51 0v3.896c0 .14-.115.255-.255.255zm21.927-.195h-14.359a.255.255 0 01-.255-.254c0-.14.115-.254.255-.254h13.626c-3.415-2.53-7.313-2.764-7.354-2.766a.254.254 0 01.014-.508h.015c.183.01 4.556.27 8.224 3.335a.252.252 0 01.075.283.258.258 0 01-.241.164zm8.498-.914h-2.238a.254.254 0 01-.254-.255v-2.36a.254.254 0 01.509 0v2.106h1.728v-2.105a.255.255 0 01.509 0v2.36c0 .14-.112.253-.254.253zm11.798 1.131h-14.708a.254.254 0 010-.508h4.402c.224-.36.966-1.136 3.156-1.136l.145.002c1.465.023 2.51.281 3.617.554.99.244 2.015.496 3.402.578a.256.256 0 01-.014.51zm-9.628-.508h6.468a49.562 49.562 0 01-.347-.086c-1.078-.267-2.096-.517-3.504-.54-1.555-.018-2.27.339-2.617.625zm-11.606 8.875h-11.452a.255.255 0 110-.51h11.452a.255.255 0 010 .51zm-96.551 0H38.567a.255.255 0 010-.51h11.788a.255.255 0 010 .51zm-20.164 0H18.776a.255.255 0 010-.51h11.415a.255.255 0 010 .51zm136.761 0h-11.723a.255.255 0 010-.51h11.723a.256.256 0 010 .51zm-21.917-1.286h-7.47a.254.254 0 010-.508h7.47a.254.254 0 110 .508zm20.297 0h-8.735a.254.254 0 110-.508h8.735a.254.254 0 110 .508zm0-2.572h-8.735a.254.254 0 110-.507h8.735a.254.254 0 110 .508zm-20.297.225h-7.47a.254.254 0 010-.509h7.47a.255.255 0 110 .51zm-93.219-4.059H36.77a.255.255 0 110-.508h15.046a.255.255 0 110 .508zm79.461 5.889a.835.835 0 11-.002-1.67.835.835 0 01.002 1.67zm0-1.16a.327.327 0 00-.326.326c0 .18.147.326.326.326a.327.327 0 00.326-.326.328.328 0 00-.326-.325zm19.773 1.16a.835.835 0 110-1.669.835.835 0 010 1.67zm0-1.16a.327.327 0 00-.326.326.324.324 0 10.65 0 .325.325 0 00-.324-.325zm20.164 1.16a.835.835 0 110-1.669.835.835 0 010 1.67zm0-1.16a.327.327 0 00-.326.326.324.324 0 10.65 0 .325.325 0 00-.324-.325zM28.599 42.767h-8.44a.255.255 0 110-.508h8.44a.254.254 0 110 .508zm20.723 0H39.7a.255.255 0 110-.508h9.622a.254.254 0 110 .508zm-20.723-2.141h-8.44a.255.255 0 110-.509h8.44a.255.255 0 110 .509zm20.723-.224H39.7a.254.254 0 110-.508h9.622a.254.254 0 110 .508zm-17.637-5.765h-2.126a.255.255 0 01-.254-.255v-2.908a.255.255 0 01.51 0v2.654h1.615v-2.654a.255.255 0 01.51 0v2.909a.254.254 0 01-.255.254zm33.759 9.011h-6.77a.254.254 0 110-.507h6.77a.254.254 0 110 .507zm61.656-.06h-6.5a.255.255 0 010-.51h6.498a.255.255 0 01.002.51z" fill="#000" stroke="#516981" stroke-width=".2"/></svg>