<svg viewBox="0 0 187 90" fill="none" xmlns="http://www.w3.org/2000/svg"><path d="M182.405 9.906a4.574 4.574 0 00-4.557 4.187 3.583 3.583 0 00-3.135 3.116h-2.745a.41.41 0 00-.409.408.411.411 0 00.409.41h3.544v-.468a2.725 2.725 0 012.726-2.726h.409v-.41a3.773 3.773 0 012.26-3.734 3.775 3.775 0 015.071 2.208c.172.49.242 1.01.205 1.527a.408.408 0 00.698.29.408.408 0 00.12-.29 4.597 4.597 0 00-4.596-4.518zm-22.98 8.12h10.437a.406.406 0 00.409-.41.408.408 0 00-.409-.408h-10.437a.41.41 0 00-.409.409.411.411 0 00.409.409zm-28.217 11.49h3.544v-.41a2.725 2.725 0 012.726-2.725h.409v-.41a3.775 3.775 0 013.768-3.506 3.778 3.778 0 013.768 3.507.408.408 0 00.409.409 2.728 2.728 0 012.726 2.726c.031.213.031.43 0 .643h-4.81a.41.41 0 000 .817h4.401a2.746 2.746 0 01-2.317 1.266.43.43 0 00-.409.409.408.408 0 00.409.409 3.542 3.542 0 003.232-2.084h1.948a.383.383 0 00.282-.12.375.375 0 00.083-.134.373.373 0 00.024-.155.408.408 0 00-.389-.409h-1.753a3.285 3.285 0 000-.642 3.541 3.541 0 00-3.154-3.505 4.577 4.577 0 00-9.133 0 3.566 3.566 0 00-3.135 3.096h-2.629a.406.406 0 00-.409.409.408.408 0 00.409.409zm-12.539-.821a.406.406 0 00-.409.41.408.408 0 00.409.408h10.457a.384.384 0 00.282-.12.375.375 0 00.083-.134.373.373 0 00.024-.155.407.407 0 00-.389-.409h-10.457zM60.036 8.621h5.628v-.409a1.675 1.675 0 011.674-1.675h.41V6.13a1.694 1.694 0 113.368 0 .428.428 0 00.409.408.409.409 0 00.409-.408 2.492 2.492 0 00-4.966-.39 2.532 2.532 0 00-2.083 2.084h-4.85a.409.409 0 00-.408.409.409.409 0 00.409.39zm-4.186.002h2.084a.409.409 0 100-.818H55.85a.428.428 0 00-.409.409.409.409 0 00.41.409zm87.899-2.086h12.54a.427.427 0 00.409-.41.408.408 0 00-.409-.408h-12.54a.406.406 0 00-.409.409.408.408 0 00.409.409zM73.608 1.299a2.18 2.18 0 011.772.896h.37a2.24 2.24 0 011.772-.896.409.409 0 00.378-.563.39.39 0 00-.378-.236 2.94 2.94 0 00-2.083.838A3.018 3.018 0 0073.336.5a.39.39 0 00-.39.39.39.39 0 00.662.409zm7.322 4.183a2.26 2.26 0 011.773.876h.37a2.22 2.22 0 011.772-.876.409.409 0 00.409-.41.428.428 0 00-.41-.408 3.116 3.116 0 00-2.102.837 3.038 3.038 0 00-2.084-.837.428.428 0 00-.409.409.409.409 0 00.682.409zm35.655 3.138a2.222 2.222 0 011.752.876h.507a2.212 2.212 0 011.752-.876.406.406 0 00.409-.41.406.406 0 00-.214-.389 3.078 3.078 0 00-2.084.838 3.076 3.076 0 00-2.122-.838.406.406 0 00-.409.41.41.41 0 00.409.389zm9.403 1.148a2.218 2.218 0 011.753.877h.194a2.224 2.224 0 011.753-.877.41.41 0 000-.818 3.08 3.08 0 00-2.084.838 3.075 3.075 0 00-2.083-.838.406.406 0 00-.409.41.484.484 0 00.876.408zm-4.185 3.037a2.28 2.28 0 011.773.877h.194a2.227 2.227 0 011.772-.877.41.41 0 00.39-.409.39.39 0 00-.39-.409 3.076 3.076 0 00-2.103.838 3.036 3.036 0 00-2.083-.838.41.41 0 00-.409.41.471.471 0 00.224.632.472.472 0 00.632-.224zm40.64 75.537c-.467 0-.701-.253-1.071-.681a2.059 2.059 0 00-1.675-.954 2.12 2.12 0 00-1.694.954c-.35.428-.584.681-1.051.681-.468 0-.701-.253-1.071-.681a2.065 2.065 0 00-1.675-.954 2.123 2.123 0 00-1.694.954c-.351.428-.584.681-1.052.681-.467 0-.701-.253-1.071-.681a2.059 2.059 0 00-1.674-.954 2.123 2.123 0 00-1.694.954c-.351.428-.585.681-1.052.681-.467 0-.701-.253-1.071-.681a2.059 2.059 0 00-1.675-.954 2.116 2.116 0 00-1.694.954c-.35.428-.584.681-1.051.681-.468 0-.701-.253-1.071-.681a2.065 2.065 0 00-1.675-.954 2.123 2.123 0 00-1.694.954c-.351.428-.584.681-1.052.681-.467 0-.701-.253-1.071-.681a2.059 2.059 0 00-1.674-.954 2.119 2.119 0 00-1.714.954c-.35.428-.584.681-1.052.681-.467 0-.701-.253-1.071-.681a2.059 2.059 0 00-1.674-.954 2.123 2.123 0 00-1.694.954c-.351.428-.585.681-1.052.681-.467 0-.701-.253-1.071-.681a2.059 2.059 0 00-1.675-.954 2.116 2.116 0 00-1.694.954c-.35.428-.584.681-1.051.681-.468 0-.701-.253-1.071-.681a2.065 2.065 0 00-1.675-.954 2.123 2.123 0 00-1.694.954c-.351.428-.584.681-1.052.681-.467 0-.701-.253-1.071-.681a2.059 2.059 0 00-1.674-.954 2.123 2.123 0 00-1.694.954c-.351.428-.585.681-1.052.681-.467 0-.701-.253-1.071-.681a2.059 2.059 0 00-1.675-.954 2.116 2.116 0 00-1.694.954c-.35.428-.584.681-1.051.681-.468 0-.701-.253-1.071-.681a2.067 2.067 0 00-1.675-.954 2.122 2.122 0 00-1.694.954c-.35.428-.584.681-1.052.681-.467 0-.7-.253-1.07-.681a1.947 1.947 0 00-3.35 0c-.37.428-.604.681-1.071.681-.467 0-.701-.253-1.071-.681a1.947 1.947 0 00-3.35 0c-.37.428-.603.681-1.07.681-.468 0-.701-.253-1.052-.681a2.122 2.122 0 00-1.694-.954 2.064 2.064 0 00-1.675.954c-.37.428-.603.681-1.07.681-.468 0-.702-.253-1.052-.681a2.123 2.123 0 00-1.694-.954 2.064 2.064 0 00-1.675.954c-.37.428-.584.681-1.071.681s-.701-.253-1.052-.681a2.122 2.122 0 00-1.694-.954 2.065 2.065 0 00-1.655.954c-.37.428-.584.681-1.071.681s-.701-.253-1.052-.681a2.122 2.122 0 00-1.694-.954 2.064 2.064 0 00-1.674.954c-.37.428-.585.681-1.071.681-.487 0-.701-.253-1.052-.681a2.122 2.122 0 00-1.694-.954 2.064 2.064 0 00-1.675.954c-.37.428-.584.681-1.07.681-.488 0-.702-.253-1.052-.681a2.123 2.123 0 00-1.694-.954 2.064 2.064 0 00-1.675.954c-.37.428-.584.681-1.071.681s-.701-.253-1.052-.681a2.122 2.122 0 00-1.694-.954 2.064 2.064 0 00-1.674.954c-.37.428-.585.681-1.072.681-.486 0-.7-.253-1.051-.681a1.947 1.947 0 00-3.369 0c-.37.428-.584.681-1.07.681-.488 0-.702-.253-1.052-.681a1.948 1.948 0 00-3.37 0c-.35.428-.583.681-1.05.681-.468 0-.721-.253-1.072-.681a1.948 1.948 0 00-3.369 0c-.35.428-.584.681-1.051.681-.468 0-.701-.253-1.071-.681a2.065 2.065 0 00-1.675-.954 2.122 2.122 0 00-1.694.954c-.35.428-.584.681-1.052.681-.467 0-.7-.253-1.07-.681a2.065 2.065 0 00-1.675-.954 2.12 2.12 0 00-1.694.954c-.35.428-.585.681-1.052.681-.467 0-.7-.253-1.07-.681a2.064 2.064 0 00-1.676-.954 2.122 2.122 0 00-1.694.954c-.35.428-.584.681-1.051.681-.468 0-.701-.253-1.071-.681a2.065 2.065 0 00-1.675-.954 2.122 2.122 0 00-1.655.954c-.35.428-.584.681-1.052.681-.467 0-.7-.253-1.07-.681a2.065 2.065 0 00-1.773-.954 2.121 2.121 0 00-1.694.954c-.35.428-.584.681-1.051.681-.468 0-.701-.253-1.071-.681a2.064 2.064 0 00-1.675-.954.409.409 0 100 .817c.467 0 .701.234 1.051.662a2.123 2.123 0 001.695.955 2.064 2.064 0 001.674-.955c.37-.428.584-.662 1.071-.662s.701.234 1.052.662a2.123 2.123 0 001.694.955 2.064 2.064 0 001.675-.955c.37-.428.584-.662 1.07-.662.488 0 .702.234 1.052.662a2.123 2.123 0 001.694.955 2.064 2.064 0 001.675-.955c.37-.428.584-.662 1.071-.662s.701.234 1.052.662a2.123 2.123 0 001.694.955 2.064 2.064 0 001.674-.955c.37-.428.585-.662 1.071-.662.487 0 .701.234 1.052.662a2.123 2.123 0 001.694.955 2.064 2.064 0 001.675-.955c.37-.428.584-.662 1.07-.662.488 0 .702.234 1.052.662a2.123 2.123 0 001.694.955 2.064 2.064 0 001.675-.955c.37-.428.584-.662 1.071-.662s.701.234 1.052.662a1.945 1.945 0 003.369 0c.35-.428.584-.662 1.051-.662.467 0 .72.234 1.071.662a1.947 1.947 0 003.369 0c.35-.428.584-.662 1.051-.662.468 0 .701.234 1.071.662a2.064 2.064 0 001.675.955 2.122 2.122 0 001.694-.955c.35-.428.584-.662 1.052-.662.467 0 .7.234 1.07.662a2.064 2.064 0 001.675.955 2.122 2.122 0 001.695-.955c.35-.428.584-.662 1.051-.662.468 0 .701.234 1.071.662a2.065 2.065 0 001.675.955 2.122 2.122 0 001.694-.955c.35-.428.584-.662 1.051-.662.468 0 .702.234 1.072.662a2.064 2.064 0 001.674.955 2.122 2.122 0 001.694-.955c.35-.428.585-.662 1.052-.662.467 0 .7.234 1.07.662a2.063 2.063 0 001.675.955 2.122 2.122 0 001.695-.955c.35-.428.584-.662 1.051-.662.468 0 .701.234 1.071.662a2.065 2.065 0 001.675.955 2.12 2.12 0 001.694-.955c.35-.428.584-.662 1.052-.662.467 0 .7.234 1.07.662a2.064 2.064 0 001.675.955 2.122 2.122 0 001.694-.955c.35-.428.585-.662 1.052-.662.467 0 .701.234 1.071.662a1.946 1.946 0 003.35 0c.37-.428.603-.662 1.07-.662.468 0 .701.234 1.071.662a1.947 1.947 0 003.35 0c.37-.428.603-.662 1.07-.662.468 0 .702.234 1.072.662a1.947 1.947 0 003.349 0c.37-.428.604-.662 1.071-.662.467 0 .701.234 1.052.662a2.12 2.12 0 001.694.955 2.065 2.065 0 001.674-.955c.37-.428.604-.662 1.071-.662.468 0 .701.234 1.052.662a2.128 2.128 0 001.694.955 2.065 2.065 0 001.675-.955c.37-.428.584-.662 1.071-.662s.701.234 1.051.662a2.123 2.123 0 001.694.955 2.065 2.065 0 001.675-.955c.37-.428.584-.662 1.071-.662s.701.234 1.052.662a2.12 2.12 0 001.694.955 2.058 2.058 0 001.674-.955c.37-.428.585-.662 1.072-.662.486 0 .701.234 1.051.662a2.128 2.128 0 001.694.955 2.065 2.065 0 001.675-.955c.37-.428.584-.662 1.071-.662s.701.234 1.051.662a2.123 2.123 0 001.695.955 2.065 2.065 0 001.674-.955c.37-.428.584-.662 1.071-.662s.701.234 1.052.662a2.12 2.12 0 001.694.955 2.058 2.058 0 001.675-.955c.37-.428.584-.662 1.071-.662.486 0 .701.234 1.051.662a2.123 2.123 0 001.694.955 2.065 2.065 0 001.675-.955c.37-.428.584-.662 1.071-.662s.701.234 1.052.662a2.11 2.11 0 001.694.955 2.065 2.065 0 001.674-.955c.37-.428.585-.662 1.071-.662.487 0 .701.234 1.052.662a2.128 2.128 0 001.694.955 2.065 2.065 0 001.675-.955c.37-.428.584-.662 1.071-.662s.701.234 1.051.662a2.123 2.123 0 001.694.955 2.065 2.065 0 001.675-.955c.37-.428.584-.662 1.071-.662s.701.234 1.052.662a2.12 2.12 0 001.694.955.407.407 0 00.497-.4.402.402 0 00-.153-.319.402.402 0 00-.344-.08h.058zM80.93 45.715a.429.429 0 00-.409.409v5.238a.41.41 0 00.41.39.39.39 0 00.408-.39v-5.238a.41.41 0 00-.409-.41zm3.135 0a.429.429 0 00-.409.409v5.238a.41.41 0 00.41.39.39.39 0 00.408-.39v-5.238a.409.409 0 00-.409-.41zm3.135 0a.428.428 0 00-.409.409v5.238a.409.409 0 00.409.39.39.39 0 00.409-.39v-5.238a.409.409 0 00-.41-.41zm3.137 0a.409.409 0 00-.41.409v5.238a.409.409 0 10.819 0v-5.238a.409.409 0 00-.41-.41zm3.191 0a.409.409 0 00-.409.409v5.238a.409.409 0 10.818 0v-5.238a.409.409 0 00-.409-.41zm3.078 0a.408.408 0 00-.409.409v5.238a.409.409 0 10.818 0v-5.238a.409.409 0 00-.409-.41zm3.135 0a.409.409 0 00-.409.409v5.238a.409.409 0 10.818 0v-5.238a.408.408 0 00-.409-.41zm8.353 6.037a.388.388 0 00.409-.39v-5.238a.411.411 0 00-.409-.41.427.427 0 00-.408.41v5.238a.41.41 0 00.408.39zm3.135 0a.388.388 0 00.409-.39v-5.238a.408.408 0 00-.409-.41.43.43 0 00-.409.41v5.238a.41.41 0 00.409.39zm3.137 0a.39.39 0 00.409-.39v-5.238a.408.408 0 00-.409-.41.43.43 0 00-.409.41v5.238a.41.41 0 00.409.39zm3.133 0a.39.39 0 00.409-.39v-5.238a.408.408 0 00-.409-.41.43.43 0 00-.409.41v5.238a.41.41 0 00.409.39zm3.136 0a.395.395 0 00.289-.108.395.395 0 00.12-.282v-5.238a.411.411 0 00-.409-.41.427.427 0 00-.408.41v5.238a.41.41 0 00.408.39zm3.137 0a.388.388 0 00.409-.39v-5.238a.408.408 0 00-.409-.41.43.43 0 00-.409.41v5.238a.41.41 0 00.409.39zm3.133 0a.388.388 0 00.409-.39v-5.238a.408.408 0 00-.409-.41.43.43 0 00-.409.41v5.238a.408.408 0 00.409.39zM80.93 34.226a.409.409 0 00-.409.409v5.218a.409.409 0 00.818 0v-5.218a.409.409 0 00-.409-.41zm3.135 0a.409.409 0 00-.409.409v5.218a.409.409 0 00.818 0v-5.218a.409.409 0 00-.409-.41zm3.135 0a.409.409 0 00-.409.409v5.218a.409.409 0 00.818 0v-5.218a.409.409 0 00-.41-.41zm3.137 0a.409.409 0 00-.41.409v5.218a.409.409 0 00.819 0v-5.218a.409.409 0 00-.41-.41zm3.191 0a.409.409 0 00-.409.409v5.218a.409.409 0 00.818 0v-5.218a.409.409 0 00-.409-.41zm3.078 0a.41.41 0 00-.409.409v5.218a.41.41 0 00.818 0v-5.218a.409.409 0 00-.409-.41zm3.135 0a.409.409 0 00-.409.409v5.218a.409.409 0 00.818 0v-5.218a.408.408 0 00-.409-.41zM53.766 51.752a.409.409 0 00.41-.39v-5.238a.428.428 0 00-.41-.41.408.408 0 00-.409.41v5.238a.39.39 0 00.41.39zm3.137 0a.41.41 0 00.409-.39v-5.238a.428.428 0 00-.409-.41.409.409 0 00-.409.41v5.238a.392.392 0 00.254.366.39.39 0 00.155.023zm3.133 0a.41.41 0 00.409-.39v-5.238a.429.429 0 00-.41-.41.409.409 0 00-.408.41v5.238a.39.39 0 00.409.39zm3.137 0a.41.41 0 00.408-.39v-5.238a.428.428 0 00-.408-.41.409.409 0 00-.41.41v5.238a.389.389 0 00.41.39zm3.093 0a.409.409 0 00.41-.39v-5.238a.428.428 0 00-.41-.41.409.409 0 00-.409.41v5.238a.39.39 0 00.41.39zm3.174 0a.41.41 0 00.41-.39v-5.238a.428.428 0 00-.41-.41.409.409 0 00-.409.41v5.238a.389.389 0 00.41.39zm3.137 0a.41.41 0 00.409-.39v-5.238a.428.428 0 00-.41-.41.41.41 0 00-.408.41v5.238a.389.389 0 00.409.39zm90.917 12.541a2.492 2.492 0 10-.037-4.984 2.492 2.492 0 00.037 4.984zm0-4.168a1.696 1.696 0 011.66 2.032 1.692 1.692 0 01-3.078.59 1.694 1.694 0 011.418-2.621zM35.362 56.503a.409.409 0 00-.409-.409H15.091a.409.409 0 00-.41.41.429.429 0 00.41.408h19.862a.428.428 0 00.409-.409zm31.976 8.024h-25.08a.409.409 0 00-.39.409.39.39 0 00.39.409h25.08a.41.41 0 000-.818zM14.954 37.52a2.357 2.357 0 10-.039 4.713 2.357 2.357 0 00.039-4.713zm0 3.894a1.539 1.539 0 111.519-1.538 1.538 1.538 0 01-1.52 1.519v.02zm5.805-3.894a2.356 2.356 0 102.356 2.336 2.337 2.337 0 00-2.356-2.336zm0 3.894a1.538 1.538 0 110-3.077 1.538 1.538 0 010 3.077zm5.821-3.894a2.356 2.356 0 102.357 2.336 2.337 2.337 0 00-2.356-2.336zm0 3.894a1.538 1.538 0 110-3.077 1.538 1.538 0 010 3.077zm5.825-3.894a2.356 2.356 0 102.356 2.336 2.337 2.337 0 00-2.356-2.336zm0 3.894a1.538 1.538 0 110-3.077 1.538 1.538 0 010 3.077zM17.778 59.308a2.355 2.355 0 100 4.71 2.355 2.355 0 000-4.71zm0 3.895a1.54 1.54 0 111.539-1.52 1.539 1.539 0 01-1.539 1.5v.02zm5.824-3.895a2.355 2.355 0 100 4.71 2.355 2.355 0 000-4.71zm0 3.895a1.539 1.539 0 111.539-1.52 1.539 1.539 0 01-1.539 1.5v.02zm12.385 5.355a.409.409 0 00-.39.409 1.538 1.538 0 01-1.129 1.48v-3.7h1.013a.409.409 0 100-.818h-1.013v-1.227a.41.41 0 00-.409-.389.388.388 0 00-.409.39v1.226h-1.012a.409.409 0 100 .818h1.012v3.7a1.539 1.539 0 01-1.129-1.48.409.409 0 00-.409-.409.429.429 0 00-.409.409 2.357 2.357 0 104.693 0 .409.409 0 00-.409-.409zm2.238-31.038a2.356 2.356 0 102.356 2.336 2.337 2.337 0 00-2.356-2.336zm0 3.894a1.538 1.538 0 110-3.077 1.538 1.538 0 010 3.077zm107.491 22.879h-66.87a.409.409 0 000 .817h66.87a.41.41 0 00.409-.409.41.41 0 00-.409-.408zm-27.396 5.3a.398.398 0 00-.293-.132.392.392 0 00-.292.132l-1.557 1.557a.429.429 0 000 .584.381.381 0 00.292.117.39.39 0 00.272-.117l1.578-1.577a.412.412 0 000-.564zm2.082-.001a.371.371 0 00-.565 0l-1.577 1.558a.428.428 0 000 .584.427.427 0 00.584 0l1.558-1.578a.412.412 0 000-.564zm2.102.001a.385.385 0 00-.452-.098.398.398 0 00-.132.098l-1.558 1.557a.398.398 0 00-.132.292.386.386 0 00.132.293.39.39 0 00.273.116.388.388 0 00.292-.117l1.577-1.577a.407.407 0 000-.564zm2.181 0a.398.398 0 00-.292-.132.393.393 0 00-.292.132l-1.558 1.557a.428.428 0 000 .584.39.39 0 00.292.117.386.386 0 00.272-.117l1.578-1.596a.409.409 0 000-.545zm1.423-.005l-1.577 1.558a.428.428 0 000 .584.428.428 0 00.584 0l1.519-1.596a.407.407 0 000-.565.368.368 0 00-.526.02z" fill="#000"/><path d="M172.902 54.828h-20.953a.41.41 0 00-.409.409.411.411 0 00.409.409h20.544v.526h-21.732l-2.707 3.232a.409.409 0 00-.253-.097h-16.299V42.58H104.24V31.188H76.355v11.489H49.093v7.322h-6.426V33.135h-5.609l4.538-4.517v-5.881H22.824v-5.842a.409.409 0 10-.818 0v5.842h-2.317V9.553a.409.409 0 00-.818 0v13.184H12.6v10.398h-2.084v11.509H9.465v5.218H8.414v6.27H6.33v.37c0 5.258 3.739 10.282 7.38 15.15 3.194 4.324 6.212 8.413 6.212 12.113a.954.954 0 01-.779.35c-.467 0-.7-.233-1.051-.662a1.946 1.946 0 00-3.37 0c-.35.429-.583.662-1.07.662-.487 0-.701-.233-1.052-.662a2.123 2.123 0 00-1.674-.954.388.388 0 00-.41.39.409.409 0 00.41.409c.467 0 .7.253 1.051.681a2.124 2.124 0 001.675.954 2.123 2.123 0 001.694-.954c.35-.428.584-.681 1.052-.681.467 0 .7.253 1.07.681a2.064 2.064 0 001.675.954 2.123 2.123 0 001.694-.954c.35-.428.585-.681 1.052-.681.467 0 .701.253 1.071.681a2.064 2.064 0 001.675.954 2.123 2.123 0 001.694-.954c.35-.428.584-.681 1.051-.681.468 0 .701.253 1.071.681a2.065 2.065 0 001.675.954 2.123 2.123 0 001.694-.954c.35-.428.584-.681 1.052-.681.467 0 .7.253 1.07.681a2.064 2.064 0 001.675.954 2.123 2.123 0 001.695-.954c.35-.428.584-.681 1.051-.681.467 0 .701.253 1.071.681a2.063 2.063 0 001.675.954 2.123 2.123 0 001.694-.954c.35-.428.584-.681 1.051-.681.468 0 .701.253 1.071.681a2.065 2.065 0 001.675.954 2.123 2.123 0 001.694-.954c.35-.428.584-.681 1.052-.681.467 0 .7.253 1.07.681a2.064 2.064 0 001.676.954 2.123 2.123 0 001.694-.954c.35-.428.584-.681 1.051-.681.467 0 .701.253 1.071.681a2.063 2.063 0 001.675.954 2.123 2.123 0 001.694-.954c.35-.428.584-.681 1.051-.681.468 0 .701.253 1.072.681a1.947 1.947 0 003.349 0c.37-.428.604-.681 1.07-.681.468 0 .702.253 1.072.681a1.947 1.947 0 003.35 0c.37-.428.603-.681 1.07-.681.468 0 .701.253 1.071.681a1.947 1.947 0 003.35 0c.37-.428.603-.681 1.07-.681.468 0 .702.253 1.052.681a2.123 2.123 0 001.694.954 2.065 2.065 0 001.675-.954c.37-.428.604-.681 1.071-.681.467 0 .701.253 1.052.681a2.123 2.123 0 001.694.954 2.065 2.065 0 001.674-.954c.37-.428.585-.681 1.071-.681.487 0 .701.253 1.052.681a2.123 2.123 0 001.694.954 2.066 2.066 0 001.675-.954c.37-.428.584-.681 1.07-.681.487 0 .702.253 1.052.681a2.123 2.123 0 001.694.954 2.065 2.065 0 001.675-.954c.37-.428.584-.681 1.071-.681s.701.253 1.052.681a2.124 2.124 0 001.694.954 2.066 2.066 0 001.674-.954c.37-.428.585-.681 1.071-.681.487 0 .701.253 1.052.681a2.128 2.128 0 001.694.954 2.067 2.067 0 001.675-.954c.37-.428.584-.681 1.071-.681s.701.253 1.051.681a1.952 1.952 0 001.685.97 1.949 1.949 0 001.684-.97c.37-.428.584-.681 1.071-.681s.701.253 1.052.681a1.95 1.95 0 002.656.71 1.95 1.95 0 00.713-.71c.35-.428.584-.681 1.051-.681.467 0 .721.253 1.071.681a1.945 1.945 0 002.656.71c.296-.17.542-.415.713-.71.35-.428.584-.681 1.051-.681.468 0 .701.253 1.071.681a1.952 1.952 0 001.685.97 1.949 1.949 0 001.684-.97c.351-.428.584-.681 1.052-.681.467 0 .701.253 1.071.681a2.081 2.081 0 001.674.954 2.121 2.121 0 001.695-.954c.35-.428.584-.681 1.051-.681.468 0 .701.253 1.071.681a2.067 2.067 0 001.675.954 2.125 2.125 0 001.694-.954c.351-.428.584-.681 1.052-.681.467 0 .701.253 1.071.681a2.059 2.059 0 001.674.954 2.125 2.125 0 001.694-.954c.351-.428.585-.681 1.052-.681.467 0 .701.253 1.071.681a2.059 2.059 0 001.675.954 2.117 2.117 0 001.694-.954c.35-.428.584-.681 1.051-.681.468 0 .701.253 1.071.681a2.067 2.067 0 001.675.954 2.125 2.125 0 001.694-.954c.351-.428.584-.681 1.052-.681.467 0 .701.253 1.071.681a2.059 2.059 0 001.674.954 2.125 2.125 0 001.694-.954c.351-.428.585-.681 1.052-.681.467 0 .701.253 1.071.681a2.09 2.09 0 001.675.954 2.117 2.117 0 001.694-.954c.35-.428.584-.681 1.051-.681.468 0 .721.253 1.071.681a2.123 2.123 0 001.695.954.406.406 0 00.389-.409.39.39 0 00-.389-.409c-.487 0-.721-.233-1.071-.662a1.952 1.952 0 00-1.685-.97 1.95 1.95 0 00-1.684.97c-.351.429-.584.662-1.071.662s-.701-.233-1.052-.662a2.127 2.127 0 00-1.694-.954 2.065 2.065 0 00-1.675.954c-.37.429-.584.662-1.071.662s-.701-.233-1.051-.662a2.121 2.121 0 00-1.694-.954 2.065 2.065 0 00-1.675.954c-.37.429-.584.662-1.071.662s-.701-.233-1.052-.662a2.118 2.118 0 00-1.694-.954 2.065 2.065 0 00-1.674.954c-.37.429-.585.662-1.071.662-.487 0-.701-.233-1.052-.662a2.783 2.783 0 00-.643-.623.244.244 0 000-.156c0-4.556 5.375-7.964 11.061-11.547 6.426-3.992 13.086-8.16 13.086-14.624v-1.344a.388.388 0 00-.308-.331.387.387 0 00-.159 0zm-25.432 5.297l-1.947 2.317h-14.021v-2.317h15.968zm-16.786 2.317h-3.369v-4.81a.411.411 0 00-.409-.409.41.41 0 00-.408.41v4.809h-2.318v-4.81a.408.408 0 00-.698-.289.408.408 0 00-.12.29v4.809h-2.317v-4.81a.408.408 0 00-.698-.289.408.408 0 00-.12.29v4.809h-2.317v-4.81a.408.408 0 00-.698-.289.408.408 0 00-.12.29v4.809h-2.317v-4.81a.408.408 0 00-.698-.289.408.408 0 00-.12.29v4.809h-2.317v-4.81a.408.408 0 00-.698-.289.408.408 0 00-.12.29v4.809h-2.317v-4.81a.412.412 0 00-.409-.409.413.413 0 00-.378.253.4.4 0 00-.031.156v4.81h-3.35v-7.556h26.347v7.556zm-30.942-5.219a.409.409 0 00-.41.41v4.809h-2.316v-4.81a.409.409 0 00-.818 0v4.81H93.88v-4.81a.409.409 0 00-.817 0v4.81h-2.318v-4.81a.41.41 0 00-.818 0v4.81h-2.239v-4.81a.409.409 0 00-.818 0v4.81h-2.395v-4.81a.409.409 0 10-.818 0v4.81H81.34v-4.81a.409.409 0 00-.818 0v4.81h-3.369v-7.556h26.366v7.556h-3.368v-4.81a.408.408 0 00-.41-.409zm-27.165 0a.409.409 0 00-.409.41v4.809h-2.317v-4.81a.409.409 0 00-.818 0v4.81h-2.317v-4.81a.408.408 0 10-.818 0v4.81H63.58v-4.81a.409.409 0 00-.818 0v4.81h-2.337v-4.81a.409.409 0 00-.818 0v4.81H57.31v-4.81a.409.409 0 00-.818 0v4.81h-2.317v-4.81a.409.409 0 00-.818 0v4.81h-3.369v-7.556h26.367v7.556h-3.37v-4.81a.409.409 0 00-.408-.409zM49.21 62.442h-6.738l-1.753-2.317h8.451l.04 2.317zm27.982-19.045h26.327v10.691H77.153l.04-10.69zm53.531 0v10.691h-26.386v-10.69h26.386zm-53.53-11.489h26.326V42.58H77.153l.04-10.672zM49.93 43.398h26.425v10.69H49.988v-10.69h-.058zM35.54 28.772v4.362h-4.323v-4.362h4.322zm.798 3.895v-3.895h3.894l-3.894 3.895zM10.283 45.48h22.57a.39.39 0 00.377-.546.41.41 0 00-.378-.252H11.315v-10.69h2.103V23.555h27.399v4.4H28.685a.409.409 0 100 .818h1.675v4.362h-4.401v-4.77a.409.409 0 10-.818 0v5.627h16.727v15.91H10.283V45.48zm-1.051 5.18H49.17v8.587h-9.054L36.22 54.03H12.854l-2.104 2.142H9.232V50.66zm150.662 19.823a95.065 95.065 0 00-3.739 2.415H21.363a.41.41 0 100 .798h133.604c-3.661 2.63-6.426 5.375-6.504 8.86h-.292a2.065 2.065 0 00-1.675.955c-.37.428-.584.662-1.071.662s-.701-.234-1.051-.662a2.123 2.123 0 00-1.694-.954 2.065 2.065 0 00-1.675.954c-.37.428-.584.662-1.071.662s-.701-.234-1.052-.662a2.12 2.12 0 00-1.694-.954 2.082 2.082 0 00-1.675.954c-.37.428-.584.662-1.071.662-.486 0-.701-.234-1.051-.662a1.944 1.944 0 00-1.684-.97 1.943 1.943 0 00-1.685.97c-.37.428-.584.662-1.071.662s-.701-.234-1.051-.662a1.951 1.951 0 00-2.657-.71c-.295.17-.541.415-.712.71-.351.428-.584.662-1.071.662s-.701-.234-1.052-.662a1.949 1.949 0 00-3.369 0c-.35.428-.584.662-1.051.662-.467 0-.721-.234-1.071-.662a1.944 1.944 0 00-1.685-.97 1.942 1.942 0 00-1.684.97c-.35.428-.584.662-1.052.662-.467 0-.701-.234-1.071-.662a2.059 2.059 0 00-1.674-.954 2.125 2.125 0 00-1.694.954c-.351.428-.585.662-1.052.662-.467 0-.701-.234-1.071-.662a2.059 2.059 0 00-1.675-.954 2.117 2.117 0 00-1.694.954c-.35.428-.584.662-1.051.662-.468 0-.701-.234-1.071-.662a2.074 2.074 0 00-1.675-.954 2.123 2.123 0 00-1.694.954c-.35.428-.584.662-1.052.662-.467 0-.7-.234-1.07-.662a2.065 2.065 0 00-1.675-.954 2.123 2.123 0 00-1.694.954c-.351.428-.585.662-1.052.662-.467 0-.701-.234-1.071-.662a2.064 2.064 0 00-1.675-.954 2.123 2.123 0 00-1.694.954c-.35.428-.584.662-1.051.662-.468 0-.701-.234-1.071-.662a2.063 2.063 0 00-1.675-.954 2.123 2.123 0 00-1.694.954c-.35.428-.584.662-1.052.662-.467 0-.7-.234-1.07-.662a2.065 2.065 0 00-1.675-.954 2.122 2.122 0 00-1.694.954c-.351.428-.585.662-1.052.662-.467 0-.701-.234-1.071-.662a1.947 1.947 0 00-3.35 0c-.37.428-.603.662-1.07.662-.468 0-.701-.234-1.071-.662a1.948 1.948 0 00-3.35 0c-.37.428-.603.662-1.07.662-.468 0-.702-.234-1.072-.662a1.947 1.947 0 00-3.35 0c-.37.428-.603.662-1.07.662-.468 0-.701-.234-1.052-.662a2.123 2.123 0 00-1.694-.954 2.064 2.064 0 00-1.675.954c-.37.428-.603.662-1.07.662-.468 0-.702-.234-1.052-.662a2.123 2.123 0 00-1.694-.954 2.064 2.064 0 00-1.675.954c-.37.428-.584.662-1.07.662-.488 0-.702-.234-1.052-.662a2.123 2.123 0 00-1.695-.954 2.064 2.064 0 00-1.674.954c-.37.428-.584.662-1.071.662s-.701-.234-1.052-.662a2.123 2.123 0 00-1.694-.954 2.064 2.064 0 00-1.675.954c-.37.428-.584.662-1.07.662-.488 0-.702-.234-1.052-.662a2.123 2.123 0 00-1.694-.954 2.064 2.064 0 00-1.675.954c-.37.428-.584.662-1.071.662s-.701-.234-1.052-.662a2.123 2.123 0 00-1.694-.954 2.064 2.064 0 00-1.674.954c-.37.428-.584.662-1.071.662s-.701-.234-1.052-.662a2.123 2.123 0 00-1.694-.954 1.791 1.791 0 00-1.207.447 16.512 16.512 0 00-3.097-7.205H122.74a.41.41 0 00.39-.409.409.409 0 00-.024-.155.405.405 0 00-.083-.133.402.402 0 00-.283-.12H17.079a128.432 128.432 0 00-2.726-3.759C10.906 66.59 7.343 61.8 7.148 56.97h3.895l2.083-2.103h22.667l6.27 8.373h103.849l5.219-6.27h21.42c-.351 5.745-6.601 9.698-12.657 13.514z" fill="#000"/></svg>