<svg width="11" height="16" fill="none" xmlns="http://www.w3.org/2000/svg"><path d="M9.67 1.8h0L1.705 8.253l7.965 6.418.003.002h0a.576.576 0 01.211.366c.018.152-.04.3-.169.408h0M9.67 1.8l.045 13.647M9.67 1.8l.003-.002a.557.557 0 00.139-.165.466.466 0 00.052-.222c0-.295-.268-.536-.603-.536a.685.685 0 00-.411.148L.374 7.828h0l-.003.003a.506.506 0 00-.191.387c0 .15.072.286.191.387h0l.003.002 8.476 6.841.04.035.116-.138-.116.138c.256.215.61.145.825-.036M9.67 1.8l.045 13.647" fill="#D1D0D0" stroke="#D1D0D0" stroke-width=".36"/></svg>