<svg width="21" height="20" fill="none" xmlns="http://www.w3.org/2000/svg"><path fill-rule="evenodd" clip-rule="evenodd" d="M.833 4.892v9.667c0 1.068.866 1.933 1.934 1.933h15.466a1.933 1.933 0 001.934-1.933V4.892a1.933 1.933 0 00-1.934-1.933H2.768A1.933 1.933 0 00.833 4.892zM19.2 4.91v-.017a.967.967 0 00-.966-.966H2.766a.967.967 0 00-.967.966v.017l7.955 4.77a1.45 1.45 0 001.492 0L19.2 4.91zM1.8 6.036v8.523c0 .534.433.967.967.967h15.466a.967.967 0 00.967-.967V6.036l-7.456 4.474c-.766.46-1.722.46-2.487 0L1.8 6.036z" fill="#C3C3C3"/></svg>