<svg width="186" height="212" xmlns="http://www.w3.org/2000/svg"><path d="M96.738 209.634c-34.844 0-62.757-11.615-83.738-34.844l34.282-34.282c14.612 14.987 30.254 22.48 46.927 22.48 7.681 0 13.769-1.78 18.265-5.339 4.683-3.747 7.025-8.805 7.025-15.174s-2.81-11.334-8.43-14.893c-5.62-3.559-13.488-5.339-23.604-5.339H64.423l-7.868-28.381 45.241-40.745H26.488V9h142.186v39.059l-46.927 40.183c33.907 7.493 50.861 26.133 50.861 55.919 0 19.67-7.119 35.5-21.356 47.489-14.05 11.989-32.221 17.984-54.514 17.984z"/></svg>