<svg width="186" height="212" xmlns="http://www.w3.org/2000/svg"><path d="M91.804 209.634c-30.91 0-57.511-10.397-79.804-31.191l31.191-36.53c16.86 14.237 32.783 21.356 47.77 21.356 8.992 0 16.017-2.061 21.075-6.182 5.245-4.309 7.868-10.116 7.868-17.422 0-6.931-2.716-12.458-8.149-16.579-5.245-4.121-12.177-6.182-20.794-6.182-10.116 0-20.607 3.278-31.472 9.835l-32.315-17.984L32.794 9h131.508v44.96H75.787l-1.686 29.786c9.929-4.683 20.42-7.025 31.472-7.025 19.108 0 35.125 5.433 48.051 16.298 12.926 10.678 19.389 26.227 19.389 46.646 0 21.543-7.493 38.591-22.48 51.142-14.799 12.551-34.376 18.827-58.729 18.827z"/></svg>