<svg width="186" height="212" xmlns="http://www.w3.org/2000/svg"><path d="M158.798 179.063c-16.673 19.67-38.684 29.505-66.035 29.505-27.35 0-49.362-9.741-66.035-29.224C10.243 159.674 2 135.321 2 106.284c0-28.662 8.43-52.828 25.29-72.498C44.15 13.929 66.162 4 93.325 4c27.351 0 49.269 9.835 65.754 29.505 16.673 19.67 25.009 43.93 25.009 72.779 0 28.662-8.43 52.922-25.29 72.779zm-91.887-33.72c6.744 9.929 15.549 14.893 26.414 14.893 10.865 0 19.576-4.964 26.133-14.893 6.557-10.116 9.835-23.136 9.835-39.059 0-15.736-3.466-28.662-10.397-38.778-6.744-10.116-15.455-15.174-26.133-15.174-10.865 0-19.576 4.964-26.133 14.893-6.557 9.929-9.835 22.948-9.835 39.059 0 15.923 3.372 28.943 10.116 39.059z"/></svg>