<svg width="186" height="212" xmlns="http://www.w3.org/2000/svg"><path d="M151.095 193.708c-14.987 10.491-34.376 15.736-58.167 15.736-23.791 0-43.274-5.339-58.448-16.017C19.493 182.562 12 168.512 12 151.277c0-21.918 11.24-37.654 33.72-47.208-17.984-9.929-26.976-24.353-26.976-43.274 0-15.923 6.838-29.037 20.513-39.34C53.12 11.152 71.01 6 92.928 6s39.715 5.245 53.39 15.736c13.863 10.303 20.794 23.51 20.794 39.621 0 18.546-8.992 32.783-26.976 42.712 10.865 5.058 19.202 11.334 25.009 18.827 5.807 7.306 8.711 16.86 8.711 28.662 0 17.422-7.587 31.472-22.761 42.15zm-78.961-31.472c5.058 4.309 11.99 6.463 20.794 6.463 8.805 0 15.736-2.154 20.794-6.463 5.058-4.496 7.587-9.929 7.587-16.298 0-6.369-2.716-11.521-8.149-15.455-5.245-3.934-11.989-5.901-20.232-5.901-8.43 0-15.268 2.061-20.513 6.182-5.245 3.934-7.868 9.179-7.868 15.736 0 6.182 2.529 11.427 7.587 15.736zm3.091-79.242c4.496 4.121 10.397 6.182 17.703 6.182 7.306 0 13.113-1.967 17.422-5.901 4.496-4.121 6.744-9.46 6.744-16.017 0-5.62-2.248-10.49-6.744-14.612-4.496-4.121-10.303-6.182-17.422-6.182-7.306 0-13.207 2.06-17.703 6.182-4.309 3.934-6.463 8.898-6.463 14.893 0 6.182 2.154 11.334 6.463 15.455z"/></svg>