<svg version="1.1" id="Слой_1" xmlns="http://www.w3.org/2000/svg" x="0" y="0" viewBox="0 0 163.4 205.6" xml:space="preserve"><path class="st0" d="M71.9 205.1c-25.9 0-48.7-7.8-68.6-23.3l25.6-37.7c13.3 10.5 27.4 15.7 42.1 15.7 11.1 0 19.7-3.6 25.9-10.7 6.2-7.3 9.9-17.4 11.2-30.3-11.2 10.7-25.1 16-41.6 16-19.5 0-35.4-5.6-47.8-16.9C6.6 106.7.5 91.5.5 72.2c0-21.5 7.3-38.9 21.9-52C37.2 7.1 56 .5 78.9.5c13.9 0 25.4 1.9 34.6 5.6 9.4 3.7 18 9.6 25.9 17.4C155.1 38.9 163 63.3 163 96.8c0 33-8 59.3-23.9 79-16 19.5-38.4 29.3-67.2 29.3zm-11-116.6c5.2 4.9 12.1 7.3 20.5 7.3s15.1-2.4 20-7.3c5.1-4.9 7.6-11.1 7.6-18.8 0-7.7-2.6-14.1-7.9-19.1C96 45.5 89.3 43 80.9 43s-15.2 2.5-20.2 7.6c-4.9 4.9-7.3 11.3-7.3 19.4-.1 7.4 2.5 13.6 7.5 18.5z"/></svg>