<svg version="1.1" id="Слой_1" xmlns="http://www.w3.org/2000/svg" x="0" y="0" viewBox="0 0 156.7 201.1" xml:space="preserve"><path class="st0" d="M.5 200.6v-41l73.6-56.2c9.2-6.9 15.6-13 19.4-18.3 3.9-5.4 5.9-11.1 5.9-17.1 0-6.2-2.1-11.1-6.2-14.6-3.9-3.6-9.2-5.3-15.7-5.3-6.4 0-12.6 2-18.5 5.9-5.8 3.7-12.6 10.2-20.5 19.4L1.6 42.7c11.2-14.6 22.9-25.3 34.8-32S63.5.5 81.7.5c21.5 0 39 5.9 52.3 17.7 13.5 11.6 20.2 26.8 20.2 45.5 0 14.8-3.6 27.2-10.7 37.1-7.1 9.7-18.7 20.3-34.8 31.8L75 156.2h81.2v44.4H.5z"/></svg>