<svg width="164" height="207" xmlns="http://www.w3.org/2000/svg"><path d="M85.3 205.568c-25.103 0-45.147-7.493-60.134-22.48C9.056 166.977 1 142.249 1 108.904c0-32.034 7.774-57.98 23.323-77.837C40.059 11.022 62.726 1 92.325 1c24.353 0 46.178 7.212 65.473 21.637l-25.571 38.497c-13.301-9.929-26.32-14.893-39.059-14.893-11.053 0-19.67 3.747-25.852 11.24-6.182 7.493-9.929 17.703-11.24 30.629 13.3-10.116 27.444-15.174 42.431-15.174 18.171 0 33.533 5.526 46.084 16.579 12.551 11.053 18.827 26.133 18.827 45.241 0 21.543-7.493 38.778-22.48 51.704-14.987 12.739-33.533 19.108-55.638 19.108zm-22.48-49.737c5.058 4.871 11.802 7.306 20.232 7.306s15.08-2.342 19.951-7.025c4.871-4.871 7.306-11.146 7.306-18.827 0-7.119-2.529-13.113-7.587-17.984-5.058-4.871-11.802-7.306-20.232-7.306s-15.08 2.435-19.951 7.306c-4.87 4.683-7.306 10.772-7.306 18.265 0 7.306 2.529 13.394 7.587 18.265z"/></svg>