<svg width="14" height="14" xmlns="http://www.w3.org/2000/svg"><path d="M7 4.947c-.391 0-.752.115-1.063.303.097-.03.198-.05.304-.05a1.04 1.04 0 11-1.04 1.041c0-.107.02-.207.05-.304A2.03 2.03 0 004.947 7a2.052 2.052 0 104.107 0c0-1.135-.92-2.053-2.054-2.053z"/><path d="M7 3.77a3.23 3.23 0 110 6.46 3.23 3.23 0 010-6.46zm0-1.078A4.313 4.313 0 002.692 7 4.313 4.313 0 007 11.307 4.313 4.313 0 0011.308 7 4.313 4.313 0 007 2.692z"/><path d="M11.375 0h-8.75A2.625 2.625 0 000 2.625v8.75A2.625 2.625 0 002.625 14h8.75A2.625 2.625 0 0014 11.375v-8.75A2.625 2.625 0 0011.375 0zm1.548 4.846h-3.52c.513.573.828 1.325.828 2.154a3.231 3.231 0 01-6.462 0c0-.829.315-1.582.828-2.154h-3.52V2.625a1.55 1.55 0 011.548-1.548h8.75a1.55 1.55 0 011.548 1.548v2.221z"/></svg>