<svg width="2500" height="960" fill="none" xmlns="http://www.w3.org/2000/svg"><g opacity=".18" clip-path="url(#clip0)"><path d="M1860.03 357.021c-17.43-3.433-33.99-7.958-51.35-11.937-40.7-9.307-77.22-22.849-115.6-36.648-29.69-10.686-61.88-13.51-91.47-26.443-15.12-6.578-19.26-11.039-37.39-1.957-4.47 2.246-3.5 9.242-7.93 11.36-3.63 1.733-9.53-1.38-12.94.289-6.54 3.209-12.38 2.085-17.1 9.466-27.22-13.414-45.42-35.171-78.63-14.569-23.95 14.858-34.28 42.745-64.68 45.858-16.78 1.701-32.25-2.343-47.11-3.658-18.01-1.605-27.47 7.06-47.08 8.857-21.92 1.989-29.34 4.46-49.17 11.135-15.99 5.359-33.28 8.344-49.75 9.692-19.32 1.572-33.67 5.615-50.87 5.455-18.81-.16-37.65-3.305-56.1-5.455-36.94-4.301-70.58-14.794-106.555-22.207-31.517-6.483-63.066-10.654-94.102-18.645-15.244-3.915-29.527-13.061-44.932-14.794-20.188-2.278-28.243 10.301-44.933 14.826-36.78 9.98-64.767.417-100.552-7.381-33.668-7.317-65.377-14.89-96.862-27.405-16.625-6.611-26.221-13.126-44.227-15.404-17.17-2.15-37.133-2.728-53.726-7.317-30.875-8.568-52.86-39.215-80.718-52.34-12.292-5.776-31.196-7.894-45.414-3.305-16.465 5.327-22.82 21.79-38.61 29.716-13.801 6.932-34.438 4.749-47.532 12.419-16.272 9.531-18.615 19.928-38 26.026-21.44 6.739-25.74-.161-46.891-1.509-19.545-1.219-31.26 10.013-47.179 14.923-11.65 3.626-16.432 3.401-27.922 9.274-10.335 5.263-10.527 7.06-23.429 9.274C84.49 307.505-19.856 319.034-36 322.5L0 445.408l16 129.317c152.835-2.727 670.009-7.701 737.76 6.322 28.436 5.873 56.487 16.912 85.693 18.677 23.943 1.444 48.495-2.15 72.598-1.957 62.264.481 119.589-.674 181.369-7.927 57.77-6.803 113.36-20.249 169.04-35.107 75.17-20.057 144.84-49.998 221.49-66.396 64.7-13.863 129.21-23.779 194.17-35.653 68.68-12.547 130.11-37.418 188.3-70.535 30.91-17.618 22.69-19.415-6.39-25.128z" fill="#DCDCDC"/><path d="M2500 451.497l-1.35-3.402c-21.18-4.011-40.5-15.596-62.2-19.768-21.85-4.204-46.66-8.343-67.69-12.162-46.15-8.408-83.35-23.202-124.3-45.28-36.36-19.64-81.68-36.937-116.05-60.909-32.67-22.816-66.92-51.73-102.9-69.476-17.62-8.697-45.99-18.773-66.08-13.222-11.59 3.177-12.74 11.489-22.18 14.73-18.77 6.418-16.49.161-27.66-.128-28.38-.802-32.07 2.31-52.48 21.404-16.72 15.629-28.21 21.405-50.84 29.749-23.55 8.664-35.62 21.532-56.93 32.668-17.88 9.338-46.96 15.949-67.18 24.1-42.71 17.169-88.55 25.063-132.19 40.98-29.95 10.911-44.1 18.163-77.74 12.034-29.43-5.391-40.28-17.554-68.62-11.264-27.95 6.194-29.62 14.377-59.56-2.054-17.69-9.691-36.34-20.73-52.41-31.256-35.79-23.362-100.46-66.492-146.26-70.279-53.41-4.396-56.29 32.219-104.31 45.569-35.24 9.788-85.081 3.434-117.336 24.678-17.203 11.328-28.468 18.581-46.216 27.662-20.702 10.59-25.099 23.266-41.948 36.969-48.303 39.279-216.96-61.871-236.666-3.466-50.806 2.343-97.6-8.697-146.609-19.254-49.041-10.59-87.458-34.787-129.855-51.795-20.701-8.279-41.98-14.152-63.612-24.164-17.267-7.991-50.292-21.277-68.811-12.099-10.206 5.071-31.773 34.177-39.316 41.815-18.101 18.291-25.964 23.394-52.057 32.026-23.397 7.734-47.404 20.763-71.186 25.512C23.638 411.993-73 394-36 394l-42 321.765c31.164 11.231 166.47 39.985 196.96 41.333 75.037 3.369 153.541 2.182 228.225-3.691 162.014-12.74 322.231-16.302 484.854-16.302 222.191 0 443.451-9.21 665.451-14.088 202.87-4.461 406.06 3.434 609 2.76 135.73-.449 262.02 1.251 393.51-15.051V451.497z" fill="url(#paint0_linear)"/><path d="M2520 705.779l-1.35-3.401c-21.18-4.012-40.5-15.596-62.2-19.768-21.85-4.204-46.66-8.344-67.69-12.163-46.15-8.407-83.35-23.201-124.3-45.28-36.36-19.639-81.68-36.936-116.05-60.908-32.67-22.817-66.92-51.73-102.9-69.477-17.62-8.696-45.99-18.773-66.08-13.221-11.59 3.177-12.74 11.489-22.18 14.73-18.77 6.418-16.49.16-27.66-.129-28.38-.802-32.07 2.311-52.48 21.405-16.72 15.628-28.21 21.404-50.84 29.748-23.55 8.665-35.62 21.533-56.93 32.668-17.88 9.339-46.96 15.95-67.18 24.101-42.71 17.168-88.55 25.063-132.19 40.98-29.95 10.911-44.1 18.163-77.74 12.034-29.43-5.392-40.28-17.554-68.62-11.264-27.95 6.193-29.62 14.376-59.56-2.054-17.69-9.691-36.34-20.731-52.41-31.256-35.79-23.363-100.46-66.493-146.26-70.279-53.41-4.397-56.29 32.219-104.31 45.569-35.24 9.787-85.081 3.433-117.336 24.677-17.203 11.329-28.468 18.581-46.216 27.663-20.702 10.59-25.099 23.266-41.948 36.968-48.303 39.279-216.96-61.871-236.666-3.465-50.806 2.342-97.6-8.697-146.609-19.255-49.041-10.59-87.458-34.786-129.855-51.794-20.701-8.28-41.98-14.153-63.612-24.165-17.267-7.99-50.292-21.276-68.811-12.098-10.206 5.07-31.773 34.177-39.316 41.814-18.101 18.292-25.964 23.394-52.057 32.027-23.397 7.734-47.404 20.763-71.186 25.512-3.82.578-101.639-26.026-105.458-25.512v329.861c31.164 11.232 166.47 39.983 196.96 41.333 75.037 3.37 153.541 2.18 228.225-3.69 162.014-12.74 322.231-16.302 484.854-16.302 222.191 0 443.451-9.211 665.451-14.088 202.87-4.461 406.06 3.433 609 2.759 135.73-.449 262.02 1.252 393.51-15.05v-259.23z" fill="url(#paint1_linear)"/><path d="M936.764 511.475c6.419-8.344 28.886-8.344 35.305-22.272 12.837-38.958 32.091-80.676 89.861-69.572 3.21 0 9.63-5.552 9.63-8.344-9.63-38.958 22.47-50.094 51.35-72.333 6.42-5.551 0-22.271 3.21-33.374 1.96-8.472 7.51-14.858 15.89-17.939-50.13-2.599-53.95 32.733-100.94 45.762-35.24 9.787-85.081 3.433-117.336 24.677-17.203 11.329-28.468 18.581-46.216 27.663-20.702 10.59-25.099 23.266-41.948 36.968-48.303 39.279-216.96-61.871-236.666-3.465-50.806 2.342-97.6-8.697-146.609-19.255-49.041-10.59-87.458-34.786-129.855-51.794-20.701-8.28-41.98-14.153-63.612-24.165-17.267-7.99-50.292-21.276-68.811-12.098-10.206 5.07-31.773 34.177-39.316 41.814-18.101 18.292-25.964 23.394-52.057 32.027-23.397 7.734-47.404 20.763-71.186 25.512-3.82.706-7.639 1.316-11.458 1.829v329.862c31.164 11.231 72.47 12.772 102.96 14.119 75.037 3.37 153.541 2.183 228.225-3.69 94.551-7.445 188.524-11.745 282.69-14.024 128.315-39.535 240.903-118.992 306.889-227.908z" fill="url(#paint2_linear)"/><path d="M1977.53 225.834c-6.39-.481-12.52-.16-18.04 1.348-11.58 3.177-12.74 11.489-22.17 14.73-18.78 6.418-16.5.16-27.67-.128-28.37-.803-32.06 2.31-52.47 21.404-16.73 15.628-28.22 21.405-50.84 29.748-23.56 8.665-35.63 21.533-56.94 32.669-17.87 9.338-46.95 15.949-67.17 24.1-42.72 17.168-88.55 25.063-132.2 40.98-29.94 10.911-44.1 18.163-77.73 12.034-29.43-5.391-40.28-17.554-68.62-11.264-27.96 6.194-29.63 14.377-59.57-2.054-17.68-9.691-36.33-20.73-52.41-31.256-35.79-23.362-100.46-66.492-146.26-70.279a62.229 62.229 0 00-3.37-.193c-8.37 3.081-13.93 9.467-15.88 17.939-3.21 11.136 3.21 27.823-3.21 33.375-28.89 22.271-60.98 33.374-51.35 72.332 0 2.792-6.42 8.344-9.63 8.344-57.77-11.136-77.029 30.614-89.867 69.573-6.419 13.927-28.885 13.927-35.304 22.271-65.987 108.884-178.575 188.341-306.858 227.909 67.174-1.637 134.445-2.279 202.165-2.279 178.154 0 355.704-5.905 533.544-10.782 33.89-23.138 63.93-52.341 97.5-78.527 6.42-8.343 25.68-2.791 38.51-11.135 38.52-22.271 70.61-41.75 112.34-58.437 35.3-13.896 57.77-44.51 89.86-66.781 6.42-5.552 19.26-5.552 19.26-8.344 19.26-22.271 6.42-61.229 38.51-63.989 38.52-2.792 64.19-27.823 83.45-52.854 12.84-16.687 51.35-8.343 57.77-30.614 6.42-27.823 12.84-61.229 51.35-63.989 3.21 0 9.63-8.344 9.63-16.687h16.05c5.87-15.468-10.18-33.343-2.38-49.164z" fill="url(#paint3_linear)"/></g><defs><linearGradient id="paint0_linear" x1="1258" y1="758.987" x2="1258" y2="225.617" gradientUnits="userSpaceOnUse"><stop offset=".237" stop-color="#D1D1D1"/><stop offset=".928" stop-color="#BDBDBD"/><stop offset="1" stop-color="#E1E1E1"/></linearGradient><linearGradient id="paint1_linear" x1="1258" y1="758.987" x2="1258" y2="225.617" gradientUnits="userSpaceOnUse"><stop offset=".237" stop-color="#D1D1D1"/><stop offset=".928" stop-color="#BDBDBD"/><stop offset="1" stop-color="#E1E1E1"/></linearGradient><linearGradient id="paint2_linear" x1="578.998" y1="758.987" x2="578.998" y2="287.503" gradientUnits="userSpaceOnUse"><stop offset=".237" stop-color="#CDCDCD"/><stop offset=".576" stop-color="#BFC1C1"/><stop offset="1" stop-color="#C5C5C5"/></linearGradient><linearGradient id="paint3_linear" x1="1305.55" y1="739.41" x2="1305.55" y2="225.641" gradientUnits="userSpaceOnUse"><stop offset=".157" stop-color="#DADADA"/><stop offset=".376" stop-color="#E4E4E4"/><stop offset="1" stop-color="#C2C2C2"/></linearGradient><clipPath id="clip0"><path fill="#fff" d="M0 0h2500v960H0z"/></clipPath></defs></svg>