<svg width="317" height="266" fill="none" xmlns="http://www.w3.org/2000/svg"><g clip-path="url(#clip0)"><path d="M207.87 110.5l-58.37 58.37-58.016-58.37L149.5 52.484l58.37 58.016zm-9.552-48.818L176.385 21h-53.77l-21.933 40.682L60 83.615v53.77l40.682 21.933L122.615 200h53.77l21.933-40.682L239 137.385v-53.77l-40.682-21.933z" fill="#B9433A"/></g><path d="M162.099 52.42l68.145 36.83v31.165L162.099 52.42zm9.228 138.824h-31.233l68.145-67.995-36.912 67.995zM68.755 132.102v-31.519l68.145 67.996-68.145-36.477zm59.272-102.347h31.233l-67.79 68.35 36.557-68.35z" fill="#fff"/><path d="M84.866 221.836V232h2.548v-8.078H92.3V232h2.548v-10.164h-9.982zm12.25 0V232h9.03v-2.086h-6.482v-2.212h5.768v-2.086h-5.768v-1.694h6.482v-2.086h-9.03zm9.706 0v2.086h3.486V232h2.548v-8.078h3.486v-2.086h-9.52zm10.57 0V232h9.03v-2.086h-6.482v-2.212h5.768v-2.086h-5.768v-1.694h6.482v-2.086h-9.03zM128.316 232h2.548v-3.192h3.472c2.38 0 3.738-1.358 3.738-3.514 0-2.142-1.358-3.458-3.738-3.458h-6.02V232zm2.548-8.078h2.506c1.512 0 2.156.252 2.156 1.414 0 1.12-.742 1.386-2.324 1.386h-2.338v-2.8zm8.936-2.086V232h6.188c2.17 0 3.388-1.204 3.388-3.164 0-1.974-1.246-3.22-3.402-3.22h-3.626v-1.694h5.992v-2.086h-8.54zm2.548 5.866h2.604c1.274 0 1.876.154 1.876 1.064 0 .938-.504 1.148-1.75 1.148h-2.73v-2.212zm7.091-5.866l4.83 7.658c-.392.7-.518.77-1.274.77-.322 0-.756-.168-.966-.252v1.904c.252.084 1.036.266 1.526.266 1.162 0 1.974-.434 2.786-1.974l4.368-8.372h-2.786l-2.492 5.348-3.192-5.348h-2.8zM161.702 232h2.548v-3.192h3.472c2.38 0 3.738-1.358 3.738-3.514 0-2.142-1.358-3.458-3.738-3.458h-6.02V232zm2.548-8.078h2.506c1.512 0 2.156.252 2.156 1.414 0 1.12-.742 1.386-2.324 1.386h-2.338v-2.8zm8.937-2.086V232h2.548v-8.078h5.208v-2.086h-7.756zm20.664 3.71c-.252-2.296-2.464-3.976-5.81-3.976-3.738 0-6.09 2.128-6.09 5.348 0 3.22 2.352 5.348 6.09 5.348 3.346 0 5.586-1.708 5.852-4.214h-2.786c-.168 1.33-1.274 2.128-3.066 2.128-2.03 0-3.29-1.232-3.29-3.262 0-2.03 1.26-3.262 3.29-3.262 1.68 0 2.702.644 3.038 1.89h2.772zm4.306-3.71h-2.548V232h2.548v-3.514l1.288-1.148 3.696 4.662h3.122l-5.026-6.216 4.48-3.948h-3.276l-4.284 3.906v-3.906zm9.237 0V232h3.094l5.124-7.238V232h2.45v-10.164h-3.136l-5.082 7.168v-7.168h-2.45zm12.933 0V232h3.094l5.124-7.238V232h2.45v-10.164h-3.136l-5.082 7.168v-7.168h-2.45zm2.324-3.388c.042.7.504 2.492 2.772 2.492 2.296 0 2.758-1.792 2.8-2.492h-1.204c-.07.448-.406 1.008-1.596 1.008-1.064 0-1.456-.56-1.54-1.008h-1.232zM67.263 238.836v2.086h3.486V249h2.548v-8.078h3.486v-2.086h-9.52zM77.832 249h2.548v-3.192h3.472c2.38 0 3.738-1.358 3.738-3.514 0-2.142-1.358-3.458-3.738-3.458h-6.02V249zm2.548-8.078h2.506c1.512 0 2.156.252 2.156 1.414 0 1.12-.742 1.386-2.324 1.386H80.38v-2.8zM87.069 249h2.744l.91-2.156h4.48l.924 2.156h2.828l-4.634-10.164h-2.436L87.069 249zm4.522-4.214l1.33-3.136 1.358 3.136H91.59zm10.76-5.95h-2.548V249h2.548v-3.514l1.288-1.148 3.696 4.662h3.122l-5.026-6.216 4.48-3.948h-3.276l-4.284 3.906v-3.906zm8.019 0v2.086h3.486V249h2.548v-8.078h3.486v-2.086h-9.52zm16.114-.266c-3.738 0-6.09 2.128-6.09 5.348 0 3.22 2.352 5.348 6.09 5.348s6.076-2.128 6.076-5.348c0-3.22-2.338-5.348-6.076-5.348zm0 2.086c2.03 0 3.276 1.218 3.276 3.262 0 2.03-1.246 3.262-3.276 3.262s-3.29-1.232-3.29-3.262c0-2.03 1.26-3.262 3.29-3.262zm7.799 8.344h2.548v-3.192h3.472c2.38 0 3.738-1.358 3.738-3.514 0-2.142-1.358-3.458-3.738-3.458h-6.02V249zm2.548-8.078h2.506c1.512 0 2.156.252 2.156 1.414 0 1.12-.742 1.386-2.324 1.386h-2.338v-2.8zm11.485-2.086h-2.548V249h2.548v-4.298h4.886V249h2.548v-10.164h-2.548v3.78h-4.886v-3.78zm12.25 0h-2.548V249h6.188c2.17 0 3.388-1.204 3.388-3.164 0-1.974-1.246-3.22-3.402-3.22h-3.626v-3.78zm0 5.866h2.604c1.274 0 1.876.154 1.876 1.064 0 .938-.504 1.148-1.75 1.148h-2.73v-2.212zm12.124-5.866h-2.548V249h2.548v-10.164zm2.267 0V249h3.094l5.124-7.238V249h2.45v-10.164h-3.136l-5.082 7.168v-7.168h-2.45zm2.324-3.388c.042.7.504 2.492 2.772 2.492 2.296 0 2.758-1.792 2.8-2.492h-1.204c-.07.448-.406 1.008-1.596 1.008-1.064 0-1.456-.56-1.54-1.008h-1.232zm17.836 6.426c.112-.966.784-1.358 2.548-1.358 1.4 0 2.17.336 2.17 1.26 0 .952-.616 1.134-1.946 1.134h-1.162v1.792h1.302c1.47 0 2.184.14 2.184 1.274 0 .966-.924 1.344-2.506 1.344-2.24 0-2.744-.546-2.744-1.442h-2.478c0 1.652.98 3.388 5.292 3.388 2.52 0 5.096-.546 5.096-3.024 0-1.582-.812-2.534-2.24-2.66.994 0 1.862-1.036 1.862-2.324 0-2.24-2.618-2.688-4.886-2.688-3.234 0-4.788 1.624-4.928 3.304h2.436zm8.067 7.126h2.744l.91-2.156h4.48l.924 2.156h2.828l-4.634-10.164H208L203.184 249zm4.522-4.214l1.33-3.136 1.358 3.136h-2.688zm8.212 4.214h7.084c2.1 0 3.29-1.148 3.29-2.898 0-1.274-.588-2.128-1.764-2.506.91-.462 1.386-1.246 1.386-2.226 0-1.694-1.148-2.534-3.43-2.534h-6.566V249zm2.548-4.312h3.388c1.218 0 1.778.308 1.778 1.176 0 .924-.574 1.05-1.778 1.05h-3.388v-2.226zm0-3.766h3.01c1.218 0 1.778.154 1.778.938 0 .868-.574 1.05-1.778 1.05h-3.01v-1.988zm15.096-2.352c-3.738 0-6.09 2.128-6.09 5.348 0 3.22 2.352 5.348 6.09 5.348s6.076-2.128 6.076-5.348c0-3.22-2.338-5.348-6.076-5.348zm0 2.086c2.03 0 3.276 1.218 3.276 3.262 0 2.03-1.246 3.262-3.276 3.262s-3.29-1.232-3.29-3.262c0-2.03 1.26-3.262 3.29-3.262zm9.148-1.82v2.982c0 2.212-.196 4.214-1.442 5.096h-.798v4.242h2.436V249h7.868v2.156h2.436v-4.242h-1.204v-8.078h-9.296zm6.748 2.086v5.992h-5.572c.854-.602 1.288-2.296 1.288-5.026v-.966h4.284z" fill="#B9433A"/><defs><clipPath id="clip0"><path fill="#fff" transform="translate(60 21)" d="M0 0h179v179H0z"/></clipPath></defs></svg>