<svg width="33" height="32" fill="none" xmlns="http://www.w3.org/2000/svg"><g clip-path="url(#clip0)"><path d="M26.49 16.126L16.154 26.462 5.881 16.126 16.154 5.852 26.49 16.126zM24.799 7.48L20.915.277h-9.522L7.51 7.481.306 11.365v9.522l7.203 3.883 3.884 7.204h9.522l3.884-7.204 7.203-3.883v-9.522L24.8 7.481z" fill="#ED1C24"/><path d="M18.347 5.854l12.027 6.515v5.512L18.347 5.854zm1.629 24.556h-5.513L26.49 18.383 19.976 30.41zM1.872 19.949v-5.575L13.9 26.4 1.872 19.949zM12.333 1.845h5.513L5.88 13.935l6.452-12.09z" fill="#FD0"/></g><defs><clipPath id="clip0"><path fill="#fff" transform="translate(.306 .277)" d="M0 0h31.697v31.697H0z"/></clipPath></defs></svg>