<svg width="63" height="63" fill="none" xmlns="http://www.w3.org/2000/svg"><path fill="#C30215" d="M31.418 0l31.418 31.418-31.418 31.418L0 31.418z"/><path d="M40.304 31.5L31.5 40.304 22.749 31.5l8.751-8.751 8.804 8.751zm-1.44-7.364L35.555 18h-8.11l-3.309 6.136L18 27.445v8.11l6.136 3.309L27.445 45h8.11l3.309-6.136L45 35.555v-8.11l-6.136-3.309z" fill="#fff"/><path d="M33.37 22.751l10.245 5.55v4.695L33.37 22.751zm1.387 20.917H30.06l10.245-10.245-5.55 10.245zm-15.421-8.911v-4.75L29.58 40.254l-10.245-5.496zm8.911-15.421h4.696L22.75 29.634l5.496-10.298z" fill="#4F4F4F"/></svg>