<svg width="179" height="179" fill="none" xmlns="http://www.w3.org/2000/svg"><g clip-path="url(#clip0)"><path d="M147.87 89.5L89.5 147.87 31.484 89.5 89.5 31.484 147.87 89.5zm-9.552-48.818L116.385 0h-53.77L40.682 40.682 0 62.615v53.77l40.682 21.933L62.615 179h53.77l21.933-40.682L179 116.385v-53.77l-40.682-21.933z" fill="#B9433A"/></g><path d="M102.099 31.42l68.145 36.83v31.165L102.099 31.42zm9.228 138.824H80.094l68.145-67.995-36.912 67.995zM8.755 111.102V79.583L76.9 147.58 8.755 111.102zM68.027 8.755H99.26l-67.79 68.35 36.557-68.35z" fill="#fff"/><defs><clipPath id="clip0"><path fill="#fff" d="M0 0h179v179H0z"/></clipPath></defs></svg>