<svg width="32" height="32" fill="none" xmlns="http://www.w3.org/2000/svg"><g clip-path="url(#clip0)"><path fill-rule="evenodd" clip-rule="evenodd" d="M15.65 31.955C7.007 31.955 0 24.948 0 16.305 0 7.66 7.007.655 15.65.655c8.644 0 15.65 7.006 15.65 15.65 0 8.643-7.006 15.65-15.65 15.65z" fill="url(#paint0_linear)"/><path opacity=".51" fill-rule="evenodd" clip-rule="evenodd" d="M31.3 16.305c0 8.643-7.006 15.65-15.65 15.65C7.007 31.955 0 24.948 0 16.305 0 7.66 7.007.655 15.65.655c8.644 0 15.65 7.006 15.65 15.65z" fill="url(#paint1_linear)"/><path d="M26.213 11.528c0-3.456-2.453-6.092-5.91-6.092h-9.012c-3.456 0-6.31 2.93-6.31 6.387v9.012c0 3.456 2.56 5.833 6.015 5.833h9.602c3.457 0 5.615-2.377 5.615-5.833v-9.307zM24.15 20.73c0 2.212-1.445 3.875-3.657 3.875h-9.39c-2.211 0-4.057-1.663-4.057-3.875v-9.095c0-2.211 1.846-4.134 4.058-4.134h9.094c2.212 0 3.952 1.923 3.952 4.134v9.095z" fill="#fff"/><path d="M15.798 10.846a5.489 5.489 0 00-5.482 5.482 5.489 5.489 0 005.482 5.482 5.489 5.489 0 005.482-5.482 5.489 5.489 0 00-5.482-5.482zm3.306 5.482a3.31 3.31 0 01-3.306 3.306 3.31 3.31 0 01-3.306-3.306 3.31 3.31 0 013.306-3.306 3.31 3.31 0 013.306 3.306zm1.987-7.055a1.268 1.268 0 100 2.536 1.268 1.268 0 000-2.536z" fill="#fff"/></g><defs><linearGradient id="paint0_linear" x1="21.164" y1="6.287" x2="9.155" y2="28.104" gradientUnits="userSpaceOnUse"><stop stop-color="#FEC066"/><stop offset=".081" stop-color="#FA995A"/><stop offset=".199" stop-color="#F6654B"/><stop offset=".289" stop-color="#F34542"/><stop offset=".338" stop-color="#F2393E"/><stop offset=".673" stop-color="#B750A8"/><stop offset="1" stop-color="#5354D6"/></linearGradient><linearGradient id="paint1_linear" x1="5.633" y1="10.79" x2="27.449" y2="22.799" gradientUnits="userSpaceOnUse"><stop stop-color="#FEC066"/><stop offset=".081" stop-color="#FA995A"/><stop offset=".199" stop-color="#F6654B"/><stop offset=".289" stop-color="#F34542"/><stop offset=".338" stop-color="#F2393E"/><stop offset=".673" stop-color="#B750A8"/><stop offset="1" stop-color="#5354D6"/></linearGradient><clipPath id="clip0"><path fill="#fff" transform="translate(0 .654)" d="M0 0h31.301v31.301H0z"/></clipPath></defs></svg>