<svg width="14" height="16" fill="none" xmlns="http://www.w3.org/2000/svg"><path d="M11.196.215a2.536 2.536 0 00-2.402 3.308L4.626 5.847a2.504 2.504 0 00-1.583-.572A2.536 2.536 0 00.52 7.805c0 1.39 1.136 2.53 2.523 2.53.599 0 1.15-.212 1.583-.566L8.8 12.093c-.08.244-.127.502-.127.772 0 1.39 1.136 2.53 2.523 2.53a2.536 2.536 0 002.524-2.53c0-1.39-1.137-2.53-2.524-2.53a2.52 2.52 0 00-1.79.754L5.349 8.827a2.494 2.494 0 000-2.043L9.401 4.52a2.515 2.515 0 001.795.754 2.536 2.536 0 002.524-2.53c0-1.39-1.137-2.53-2.524-2.53zm0 1.168c.758 0 1.359.603 1.359 1.362a1.35 1.35 0 01-1.359 1.362 1.352 1.352 0 01-1.359-1.362c0-.76.602-1.362 1.36-1.362zm-8.153 5.06c.757 0 1.359.603 1.359 1.362 0 .76-.602 1.362-1.359 1.362a1.352 1.352 0 01-1.359-1.362c0-.76.602-1.362 1.36-1.362zm8.153 5.06c.758 0 1.359.603 1.359 1.362a1.35 1.35 0 01-1.359 1.362 1.352 1.352 0 01-1.359-1.362c0-.76.602-1.362 1.36-1.362z" fill="#333"/></svg>