<svg width="32" height="32" fill="none" xmlns="http://www.w3.org/2000/svg"><circle cx="15.65" cy="16.299" fill="#DC2727" r="15.65"/><g clip-path="url(#clip0)"><path d="M23.668 11.232c-.628-.746-1.787-1.05-4-1.05h-8.034c-2.264 0-3.442.324-4.068 1.118-.61.775-.61 1.916-.61 3.495v3.01c0 3.06.724 4.614 4.678 4.614h8.034c1.92 0 2.983-.268 3.671-.927.706-.675 1.007-1.777 1.007-3.686v-3.01c0-1.666-.047-2.814-.678-3.564zm-5.548 5.484l-3.648 1.907a.56.56 0 01-.82-.497v-3.801a.561.561 0 01.819-.498l3.648 1.894a.561.561 0 01.001.995z" fill="#fff"/></g><defs><clipPath id="clip0"><path fill="#fff" transform="translate(6.957 7.607)" d="M0 0h17.389v17.389H0z"/></clipPath></defs></svg>