<svg width="32" height="32" fill="none" xmlns="http://www.w3.org/2000/svg"><path d="M15.65 31.95c8.644 0 15.65-7.008 15.65-15.651 0-8.644-7.006-15.65-15.65-15.65C7.007.648 0 7.654 0 16.298c0 8.643 7.007 15.65 15.65 15.65z" fill="#4D76A1"/><path fill-rule="evenodd" clip-rule="evenodd" d="M15.06 23.165h1.228s.371-.041.56-.245c.175-.188.17-.54.17-.54s-.025-1.648.74-1.89c.754-.24 1.723 1.592 2.75 2.297.775.533 1.365.416 1.365.416l2.744-.038s1.436-.089.755-1.217c-.055-.093-.396-.835-2.04-2.362-1.721-1.597-1.49-1.338.582-4.101 1.263-1.683 1.767-2.71 1.61-3.15-.15-.419-1.08-.308-1.08-.308l-3.09.02s-.228-.032-.398.07c-.166.099-.273.331-.273.331s-.489 1.302-1.141 2.41c-1.376 2.336-1.926 2.46-2.151 2.314-.523-.338-.393-1.358-.393-2.083 0-2.264.344-3.208-.668-3.453-.336-.08-.583-.134-1.442-.143-1.103-.011-2.036.003-2.565.262-.351.172-.622.556-.457.578.204.027.667.125.912.459.317.43.305 1.398.305 1.398s.182 2.665-.425 2.996c-.416.227-.987-.236-2.214-2.356-.629-1.086-1.103-2.286-1.103-2.286s-.092-.224-.255-.344c-.198-.145-.475-.192-.475-.192l-2.936.02s-.44.012-.603.203c-.144.17-.011.524-.011.524s2.299 5.378 4.902 8.088c2.386 2.485 5.097 2.322 5.097 2.322z" fill="#fff"/></svg>