<svg width="66" height="66" fill="none" xmlns="http://www.w3.org/2000/svg"><circle cx="33" cy="33" r="32.4" stroke="#fff" stroke-opacity=".65" stroke-width="1.2"/><path d="M20.081 38.59l3.003.293 11.85-11.85V21.91c0-.882-1.012-1.371-1.73-.816l-8.422 6.887-4.701.457c-.98.098-1.73.915-1.73 1.894v6.365c0 .98.75 1.796 1.73 1.894zm28.792-18.966l-1.502-1.502a.414.414 0 00-.588 0l-28.66 28.661a.414.414 0 000 .588l1.501 1.502a.414.414 0 00.588 0l7.475-7.476 5.517 4.505c.685.555 1.73.066 1.73-.816V34.15l5.06-5.06a9.327 9.327 0 011.077 4.375c0 2.22-.75 4.244-2.057 5.843-.228.261-.163.653.066.882l1.142 1.044a.645.645 0 00.947-.098c1.697-2.089 2.71-4.766 2.71-7.704 0-2.35-.686-4.57-1.829-6.463l1.404-1.404a14.043 14.043 0 012.383 7.835c0 3.427-1.24 6.594-3.265 9.042a.623.623 0 00.066.881l1.142 1.045c.261.261.686.228.947-.065a16.91 16.91 0 003.95-10.903c0-3.69-1.175-7.084-3.167-9.891l3.395-3.395c.131-.066.13-.327-.032-.49z" fill="#C4C4C4"/></svg>