<svg width="66" height="66" fill="none" xmlns="http://www.w3.org/2000/svg"><circle cx="33" cy="33" r="32.4" stroke="#fff" stroke-opacity=".65" stroke-width="1.2"/><path d="M32.712 21.551l-8.448 6.912-4.736.448A1.907 1.907 0 0017.8 30.8v6.4c0 .992.736 1.824 1.728 1.888l4.736.448 8.448 6.912c.704.576 1.728.064 1.728-.832V22.351c-.032-.864-1.056-1.376-1.728-.8zm7.968 4.737a.67.67 0 00-.96-.096l-1.152 1.024c-.256.224-.288.608-.064.896a9.367 9.367 0 012.048 5.856 9.367 9.367 0 01-2.048 5.856.65.65 0 00.064.896l1.152 1.024c.288.256.704.224.96-.096a12.295 12.295 0 002.72-7.712c0-2.912-.992-5.536-2.72-7.648z" fill="#C4C4C4"/><path d="M44.2 23.024c-.224-.288-.672-.288-.928-.064l-1.152 1.056a.65.65 0 00-.064.896 14.134 14.134 0 013.264 9.056c0 3.424-1.216 6.592-3.264 9.056-.224.288-.192.672.064.896l1.152 1.056a.631.631 0 00.928-.064c2.496-2.976 4-6.784 4-10.976 0-4.192-1.504-7.936-4-10.912z" fill="#C4C4C4"/></svg>