<svg xmlns="http://www.w3.org/2000/svg"><symbol id="icon-arrow-popup" viewBox="0 0 68 8"><path d="M.646 3.771a.5.5 0 000 .708L3.828 7.66a.5.5 0 10.708-.708L1.707 4.125l2.829-2.828a.5.5 0 10-.708-.708L.646 3.771zM68 3.625H1v1h67v-1z" fill="#616161"/></symbol><symbol id="icon-fb" viewBox="0 0 8 15"><path d="M7.699.003L5.779 0C3.625 0 2.232 1.449 2.232 3.692v1.702H.301A.304.304 0 000 5.7v2.466c0 .169.135.305.302.305H2.23v6.223c0 .17.135.306.302.306H5.05a.304.304 0 00.302-.306V8.471h2.255a.304.304 0 00.302-.305L7.91 5.7a.308.308 0 00-.088-.217.3.3 0 00-.214-.09H5.352V3.952c0-.694.163-1.046 1.054-1.046h1.292A.304.304 0 008 2.599V.309a.304.304 0 00-.301-.306z"/></symbol><symbol id="icon-inst" viewBox="0 0 14 14"><path d="M7 4.947c-.391 0-.752.115-1.063.303.097-.03.198-.05.304-.05a1.04 1.04 0 11-1.04 1.041c0-.107.02-.207.05-.304A2.03 2.03 0 004.947 7a2.052 2.052 0 104.107 0c0-1.135-.92-2.053-2.054-2.053z"/><path d="M7 3.77a3.23 3.23 0 110 6.46 3.23 3.23 0 010-6.46zm0-1.078A4.313 4.313 0 002.692 7 4.313 4.313 0 007 11.307 4.313 4.313 0 0011.308 7 4.313 4.313 0 007 2.692z"/><path d="M11.375 0h-8.75A2.625 2.625 0 000 2.625v8.75A2.625 2.625 0 002.625 14h8.75A2.625 2.625 0 0014 11.375v-8.75A2.625 2.625 0 0011.375 0zm1.548 4.846h-3.52c.513.573.828 1.325.828 2.154a3.231 3.231 0 01-6.462 0c0-.829.315-1.582.828-2.154h-3.52V2.625a1.55 1.55 0 011.548-1.548h8.75a1.55 1.55 0 011.548 1.548v2.221z"/></symbol><symbol id="icon-mail-submit" viewBox="0 0 21 20"><path fill-rule="evenodd" clip-rule="evenodd" d="M.833 4.892v9.667c0 1.068.866 1.933 1.934 1.933h15.466a1.933 1.933 0 001.934-1.933V4.892a1.933 1.933 0 00-1.934-1.933H2.768A1.933 1.933 0 00.833 4.892zM19.2 4.91v-.017a.967.967 0 00-.966-.966H2.766a.967.967 0 00-.967.966v.017l7.955 4.77a1.45 1.45 0 001.492 0L19.2 4.91zM1.8 6.036v8.523c0 .534.433.967.967.967h15.466a.967.967 0 00.967-.967V6.036l-7.456 4.474c-.766.46-1.722.46-2.487 0L1.8 6.036z"/></symbol><symbol id="icon-news" viewBox="0 0 16 16"><path d="M15.176.058l-14.846 7a.577.577 0 00.045 1.063l5.468 2.03 2.033 5.464a.577.577 0 00.516.385h.025a.577.577 0 00.522-.33L15.944.825a.576.576 0 00-.77-.77l.002.002z"/></symbol><symbol id="icon-vk" viewBox="0 0 17 10"><path d="M16.91 9.031a1.177 1.177 0 00-.058-.114c-.295-.548-.858-1.22-1.69-2.017l-.018-.018-.009-.01-.009-.008h-.008c-.378-.371-.617-.62-.717-.749-.184-.243-.225-.49-.124-.739.07-.189.336-.587.796-1.195.242-.323.434-.581.575-.776 1.021-1.4 1.464-2.293 1.328-2.683l-.053-.09c-.035-.056-.126-.106-.274-.151a1.353 1.353 0 00-.567-.023l-2.549.018a.321.321 0 00-.177.005l-.115.027-.044.023-.035.027a.4.4 0 00-.098.096.634.634 0 00-.088.16c-.278.736-.593 1.42-.947 2.053-.219.377-.42.704-.602.981-.183.277-.337.48-.46.611a3.164 3.164 0 01-.337.315c-.1.08-.177.113-.23.1a6.25 6.25 0 01-.15-.036.6.6 0 01-.2-.224 1.024 1.024 0 01-.101-.356 4.047 4.047 0 01-.031-.37 7.953 7.953 0 01.004-.437c.006-.189.01-.317.01-.383 0-.232.003-.483.012-.753l.022-.644c.006-.158.01-.325.01-.502a2.13 2.13 0 00-.032-.415c-.02-.1-.051-.197-.092-.292A.488.488 0 009.67.243 1.006 1.006 0 009.374.12 5.773 5.773 0 008.179 0C7.08-.01 6.376.062 6.063.221a1.199 1.199 0 00-.336.273c-.106.134-.121.207-.045.219.355.055.605.186.753.392l.053.11c.041.08.083.22.124.42.041.2.068.423.08.666.029.444.029.824 0 1.14a14 14 0 01-.085.74 1.515 1.515 0 01-.225.63.155.155 0 01-.044.045.646.646 0 01-.24.046c-.082 0-.182-.043-.3-.128a2.15 2.15 0 01-.368-.351A4.697 4.697 0 015 3.797a11.02 11.02 0 01-.495-.949l-.141-.264A23.03 23.03 0 014 1.84a13.74 13.74 0 01-.407-.945.6.6 0 00-.213-.292L3.337.576a.917.917 0 00-.345-.137L.567.457C.319.457.15.515.062.631L.027.685A.303.303 0 000 .832c0 .066.018.149.053.246.354.858.74 1.685 1.155 2.482a28.33 28.33 0 001.084 1.925c.307.487.62.947.939 1.378.318.432.53.71.632.83.104.123.185.214.244.275l.221.219c.142.146.35.32.624.524.275.204.579.405.912.603.333.197.721.359 1.164.483a3.91 3.91 0 001.292.15h1.018c.206-.017.363-.084.47-.2l.034-.046a.615.615 0 00.067-.168.954.954 0 00.03-.251 3.097 3.097 0 01.058-.707 1.96 1.96 0 01.15-.475 1.165 1.165 0 01.342-.401.57.57 0 01.07-.032c.142-.049.309-.002.5.141.192.143.372.32.54.53.169.21.37.445.607.707.236.261.442.456.62.584l.176.11c.118.072.272.14.46.2a.97.97 0 00.496.046l2.266-.037c.224 0 .399-.038.522-.114.124-.076.198-.16.222-.25a.727.727 0 00.004-.311 1.173 1.173 0 00-.062-.242z"/></symbol><symbol id="icon-year-0" viewBox="0 0 186 212"><path d="M158.798 179.063c-16.673 19.67-38.684 29.505-66.035 29.505-27.35 0-49.362-9.741-66.035-29.224C10.243 159.674 2 135.321 2 106.284c0-28.662 8.43-52.828 25.29-72.498C44.15 13.929 66.162 4 93.325 4c27.351 0 49.269 9.835 65.754 29.505 16.673 19.67 25.009 43.93 25.009 72.779 0 28.662-8.43 52.922-25.29 72.779zm-91.887-33.72c6.744 9.929 15.549 14.893 26.414 14.893 10.865 0 19.576-4.964 26.133-14.893 6.557-10.116 9.835-23.136 9.835-39.059 0-15.736-3.466-28.662-10.397-38.778-6.744-10.116-15.455-15.174-26.133-15.174-10.865 0-19.576 4.964-26.133 14.893-6.557 9.929-9.835 22.948-9.835 39.059 0 15.923 3.372 28.943 10.116 39.059z"/></symbol><symbol id="icon-year-1" viewBox="0 0 98.3 199.1"><path class="st0" d="M44.2 198.6V51.4L11 58.9.6 16.8 58.2.5h39.6v198.1H44.2z"/></symbol><symbol id="icon-year-2" viewBox="0 0 156.7 201.1"><path class="st0" d="M.5 200.6v-41l73.6-56.2c9.2-6.9 15.6-13 19.4-18.3 3.9-5.4 5.9-11.1 5.9-17.1 0-6.2-2.1-11.1-6.2-14.6-3.9-3.6-9.2-5.3-15.7-5.3-6.4 0-12.6 2-18.5 5.9-5.8 3.7-12.6 10.2-20.5 19.4L1.6 42.7c11.2-14.6 22.9-25.3 34.8-32S63.5.5 81.7.5c21.5 0 39 5.9 52.3 17.7 13.5 11.6 20.2 26.8 20.2 45.5 0 14.8-3.6 27.2-10.7 37.1-7.1 9.7-18.7 20.3-34.8 31.8L75 156.2h81.2v44.4H.5z"/></symbol><symbol id="icon-year-3" viewBox="0 0 186 212"><path d="M96.738 209.634c-34.844 0-62.757-11.615-83.738-34.844l34.282-34.282c14.612 14.987 30.254 22.48 46.927 22.48 7.681 0 13.769-1.78 18.265-5.339 4.683-3.747 7.025-8.805 7.025-15.174s-2.81-11.334-8.43-14.893c-5.62-3.559-13.488-5.339-23.604-5.339H64.423l-7.868-28.381 45.241-40.745H26.488V9h142.186v39.059l-46.927 40.183c33.907 7.493 50.861 26.133 50.861 55.919 0 19.67-7.119 35.5-21.356 47.489-14.05 11.989-32.221 17.984-54.514 17.984z"/></symbol><symbol id="icon-year-4" viewBox="0 0 183.1 199.1"><path class="st0" d="M104.8 198.6v-38.2H9.5l-9-38.5L102.5.5h55.1v119.1h25v40.7h-25v38.2h-52.8zm-46.9-78.7h46.9V63.4l-46.9 56.5z"/></symbol><symbol id="icon-year-5" viewBox="0 0 186 212"><path d="M91.804 209.634c-30.91 0-57.511-10.397-79.804-31.191l31.191-36.53c16.86 14.237 32.783 21.356 47.77 21.356 8.992 0 16.017-2.061 21.075-6.182 5.245-4.309 7.868-10.116 7.868-17.422 0-6.931-2.716-12.458-8.149-16.579-5.245-4.121-12.177-6.182-20.794-6.182-10.116 0-20.607 3.278-31.472 9.835l-32.315-17.984L32.794 9h131.508v44.96H75.787l-1.686 29.786c9.929-4.683 20.42-7.025 31.472-7.025 19.108 0 35.125 5.433 48.051 16.298 12.926 10.678 19.389 26.227 19.389 46.646 0 21.543-7.493 38.591-22.48 51.142-14.799 12.551-34.376 18.827-58.729 18.827z"/></symbol><symbol id="icon-year-6" viewBox="0 0 164 207"><path d="M85.3 205.568c-25.103 0-45.147-7.493-60.134-22.48C9.056 166.977 1 142.249 1 108.904c0-32.034 7.774-57.98 23.323-77.837C40.059 11.022 62.726 1 92.325 1c24.353 0 46.178 7.212 65.473 21.637l-25.571 38.497c-13.301-9.929-26.32-14.893-39.059-14.893-11.053 0-19.67 3.747-25.852 11.24-6.182 7.493-9.929 17.703-11.24 30.629 13.3-10.116 27.444-15.174 42.431-15.174 18.171 0 33.533 5.526 46.084 16.579 12.551 11.053 18.827 26.133 18.827 45.241 0 21.543-7.493 38.778-22.48 51.704-14.987 12.739-33.533 19.108-55.638 19.108zm-22.48-49.737c5.058 4.871 11.802 7.306 20.232 7.306s15.08-2.342 19.951-7.025c4.871-4.871 7.306-11.146 7.306-18.827 0-7.119-2.529-13.113-7.587-17.984-5.058-4.871-11.802-7.306-20.232-7.306s-15.08 2.435-19.951 7.306c-4.87 4.683-7.306 10.772-7.306 18.265 0 7.306 2.529 13.394 7.587 18.265z"/></symbol><symbol id="icon-year-7" viewBox="0 0 186 212"><path d="M21.496 209.7l86.548-150.897H17V13h151.459v41.026L81.63 209.7H21.496z"/></symbol><symbol id="icon-year-8" viewBox="0 0 186 212"><path d="M151.095 193.708c-14.987 10.491-34.376 15.736-58.167 15.736-23.791 0-43.274-5.339-58.448-16.017C19.493 182.562 12 168.512 12 151.277c0-21.918 11.24-37.654 33.72-47.208-17.984-9.929-26.976-24.353-26.976-43.274 0-15.923 6.838-29.037 20.513-39.34C53.12 11.152 71.01 6 92.928 6s39.715 5.245 53.39 15.736c13.863 10.303 20.794 23.51 20.794 39.621 0 18.546-8.992 32.783-26.976 42.712 10.865 5.058 19.202 11.334 25.009 18.827 5.807 7.306 8.711 16.86 8.711 28.662 0 17.422-7.587 31.472-22.761 42.15zm-78.961-31.472c5.058 4.309 11.99 6.463 20.794 6.463 8.805 0 15.736-2.154 20.794-6.463 5.058-4.496 7.587-9.929 7.587-16.298 0-6.369-2.716-11.521-8.149-15.455-5.245-3.934-11.989-5.901-20.232-5.901-8.43 0-15.268 2.061-20.513 6.182-5.245 3.934-7.868 9.179-7.868 15.736 0 6.182 2.529 11.427 7.587 15.736zm3.091-79.242c4.496 4.121 10.397 6.182 17.703 6.182 7.306 0 13.113-1.967 17.422-5.901 4.496-4.121 6.744-9.46 6.744-16.017 0-5.62-2.248-10.49-6.744-14.612-4.496-4.121-10.303-6.182-17.422-6.182-7.306 0-13.207 2.06-17.703 6.182-4.309 3.934-6.463 8.898-6.463 14.893 0 6.182 2.154 11.334 6.463 15.455z"/></symbol><symbol id="icon-year-9" viewBox="0 0 163.4 205.6"><path class="st0" d="M71.9 205.1c-25.9 0-48.7-7.8-68.6-23.3l25.6-37.7c13.3 10.5 27.4 15.7 42.1 15.7 11.1 0 19.7-3.6 25.9-10.7 6.2-7.3 9.9-17.4 11.2-30.3-11.2 10.7-25.1 16-41.6 16-19.5 0-35.4-5.6-47.8-16.9C6.6 106.7.5 91.5.5 72.2c0-21.5 7.3-38.9 21.9-52C37.2 7.1 56 .5 78.9.5c13.9 0 25.4 1.9 34.6 5.6 9.4 3.7 18 9.6 25.9 17.4C155.1 38.9 163 63.3 163 96.8c0 33-8 59.3-23.9 79-16 19.5-38.4 29.3-67.2 29.3zm-11-116.6c5.2 4.9 12.1 7.3 20.5 7.3s15.1-2.4 20-7.3c5.1-4.9 7.6-11.1 7.6-18.8 0-7.7-2.6-14.1-7.9-19.1C96 45.5 89.3 43 80.9 43s-15.2 2.5-20.2 7.6c-4.9 4.9-7.3 11.3-7.3 19.4-.1 7.4 2.5 13.6 7.5 18.5z"/></symbol><symbol id="icon-youtube" viewBox="0 0 16 11"><path d="M13.292 0H2.708C1.99 0 1.3.283.793.788A2.68 2.68 0 000 2.688v5.623c0 .713.285 1.397.793 1.901A2.717 2.717 0 002.708 11h10.584c.718 0 1.407-.283 1.915-.788a2.68 2.68 0 00.793-1.9V2.688a2.68 2.68 0 00-.793-1.901A2.717 2.717 0 0013.292 0zM8.677 6.722l-2.4 1.222V3.056l2.4 1.222 2.4 1.222-2.4 1.222z"/></symbol><symbol id="icon-university" viewBox="0 0 48 36"><path d="M46.8 5.124h-2.566V.708c-1.956 2.17-9.42 2.957-13.076 3.222-5.01.362-6.476 2.47-6.476 2.47v25.266c2.933 0 11.012-.445 13.687-1.447 4.276-1.602 5.865-3.86 5.865-3.86V7.294h1.465v25.203H2.2V7.293h1.466V26.36s1.589 2.257 5.865 3.859c2.675 1.002 10.754 1.447 13.687 1.447V6.4s-1.465-2.109-6.476-2.47C13.085 3.665 5.62 2.879 3.665.708v4.416H1.101C.49 5.124 0 5.61 0 6.209v28.217c0 .6.493 1.087 1.1 1.087h45.702c.608 0 1.1-.487 1.1-1.087V6.21c0-.6-.494-1.085-1.101-1.085zm-5.106 18.024c-.098.038-2.467.946-8.11 1.732-4.155.58-5.341 1.96-5.38 2.008a.734.734 0 01-1.015.155.717.717 0 01-.169-1.01c.14-.194 1.513-1.91 6.36-2.586 5.435-.758 7.754-1.637 7.776-1.646a.738.738 0 01.95.409.722.722 0 01-.413.938zm0-5.423c-.098.038-2.467.945-8.11 1.732-4.155.58-5.341 1.96-5.38 2.008a.734.734 0 01-1.015.156.717.717 0 01-.169-1.01c.14-.193 1.513-1.91 6.36-2.586 5.435-.758 7.754-1.637 7.776-1.645a.736.736 0 01.95.41.72.72 0 01-.413.935zm0-5.421c-.098.037-2.467.944-8.11 1.732-4.155.579-5.341 1.96-5.38 2.008a.734.734 0 01-1.015.155.717.717 0 01-.169-1.01c.14-.193 1.513-1.91 6.36-2.586 5.435-.757 7.754-1.636 7.776-1.645a.738.738 0 01.95.409.72.72 0 01-.413.937zm0-5.423c-.098.039-2.467.945-8.11 1.732-4.155.58-5.341 1.959-5.38 2.008a.733.733 0 01-.588.29.737.737 0 01-.427-.136.717.717 0 01-.169-1.01c.14-.194 1.513-1.91 6.36-2.586 5.435-.758 7.754-1.636 7.776-1.645a.738.738 0 01.95.409.72.72 0 01-.413.938zm-35.9-.937a.736.736 0 01.95-.409c.022.009 2.34.887 7.777 1.646 4.845.676 6.218 2.391 6.359 2.586a.716.716 0 01-.17 1.01.735.735 0 01-.426.135.734.734 0 01-.588-.29c-.04-.049-1.226-1.427-5.381-2.008-5.641-.786-8.011-1.694-8.11-1.732a.72.72 0 01-.411-.938zm0 5.423a.736.736 0 01.95-.409c.022.009 2.34.888 7.777 1.645 4.845.676 6.218 2.393 6.359 2.586a.716.716 0 01-.17 1.01.736.736 0 01-1.014-.155c-.04-.048-1.226-1.429-5.381-2.008-5.641-.787-8.011-1.695-8.11-1.732a.719.719 0 01-.411-.937zm0 5.421a.736.736 0 01.95-.41c.022.01 2.34.888 7.777 1.646 4.845.676 6.218 2.393 6.359 2.586a.716.716 0 01-.17 1.01.735.735 0 01-1.014-.155c-.04-.049-1.226-1.428-5.381-2.01-5.641-.785-8.011-1.693-8.11-1.731a.717.717 0 01-.411-.936zm0 5.422a.736.736 0 01.95-.409c.022.009 2.34.888 7.777 1.646 4.845.675 6.218 2.392 6.359 2.587a.716.716 0 01-.17 1.01.736.736 0 01-1.014-.156c-.04-.048-1.226-1.427-5.381-2.008-5.641-.786-8.011-1.694-8.11-1.732a.72.72 0 01-.411-.938z" fill="#fff"/></symbol><symbol id="icon-arrow-next" viewBox="0 0 8 10"><path d="M1.135 10c-.175 0-.291-.112-.291-.224 0-.068.03-.113.087-.158l5.587-4.152-5.587-4.13c-.116-.089-.145-.224-.029-.313C1.02.933 1.193.91 1.31 1l.029.023 5.82 4.309c.116.09.116.224 0 .314l-5.82 4.287a.367.367 0 01-.204.067z" fill="#B3B2B3"/></symbol><symbol id="icon-arrow-prev" viewBox="0 0 7 10"><path d="M6.693 10c.175 0 .291-.112.291-.224 0-.068-.029-.113-.087-.158L1.31 5.467l5.587-4.13c.116-.09.145-.224.029-.314-.117-.09-.291-.112-.407-.022l-.03.022L.67 5.332c-.116.09-.116.224 0 .314l5.82 4.287a.367.367 0 00.204.067z" fill="#B2B2B2"/></symbol><symbol id="icon-play" viewBox="0 0 58 58"><circle cx="29" cy="29.082" r="27.223" stroke="#fff" stroke-width="2"/><path d="M34.898 27.349c1.334.77 1.334 2.694 0 3.464l-7.348 4.242c-1.334.77-3-.192-3-1.732v-8.485c0-1.54 1.666-2.502 3-1.732l7.348 4.243z" fill="#fff"/></symbol></svg>