<svg width="140" height="74" fill="none" xmlns="http://www.w3.org/2000/svg"><path fill-rule="evenodd" clip-rule="evenodd" d="M13.674 11.102v22.203c.958-.697 5.333-.943 7.4-.98.812.018 1.594.069 2.348.15V15.019h.762V32.57c4.176.584 7.453 2.143 10 4.21l-.44-2.708 13.997-2.277.01-.002c1.838-.286 3.247-.145 4.283.33.977.449 1.641 1.221 1.813 2.1.436 1.438-.199 2.602-.932 3.316-.709.69-1.618 1.102-2.234 1.292l-.106.032-.109.017-12.079 1.843-.452-2.965 11.956-1.825c.31-.11.691-.31.93-.544a.613.613 0 00.165-.224.283.283 0 00-.018-.096l-.05-.145a.902.902 0 00-.135-.074c-.311-.142-1.065-.326-2.565-.093l-13.772 2.24c5.646 4.755 7.581 12.03 7.744 16.443h5.55v.544h.545v-1.197h1.197l1.96 1.197 1.087-2.067h.98l1.633 1.523h2.503v1.089h3.768v-.92l.761-.217v-1.198h-.761v-1.197h.761v-.762h-.761v-2.068h1.741v5.442l-.435.218v.56l.803-.403h1.374V48.06h.87l-.323 5.925h1.846v-5.817h.653l-.277 5.817h7.72c-.957-.609-1.85-4.462-2.176-6.312-1.045-8.969.472-15.274 1.633-17.197l4.68-7.619v-3.809l1.85-3.7 1.741-3.483 10.667 1.741c2.873.435 1.632-.98.653-1.741L74.515.435c-1.915-.609-1.669.69-1.306 1.415l3.374 3.374H56.665l-.435-.435h-3.265l-.436.435H33.918l-.435-.435h-1.96l-.652.762h-9.796l-1.306-3.374h-4.027v2.068L13.674 7.51v3.592zm13.991 6.31h-1.524v7.184h1.524v-7.183zm28.192.656l-3.265 3.157v1.197h8.49v1.197h-.327v2.286h.326v1.415h-.326v5.442c.697-.958 2.104-.182 2.721.326l1.197.653.218 12.734h1.197v-12.19h1.089v12.19h.87l.762-12.19c2.177-.087 3.011-1.487 3.157-2.176.348-2.264-1.307-4.136-2.177-4.79v3.81c-.349.784-.653.69-.762.544v-1.088h-1.742V32c-.696.522-1.886.218-2.394 0v-1.415h-2.177v.87c0 .61-.508.037-.762-.326v-8.163l-.435-1.415h.762c-.087-1.915.544-3.338.87-3.81h-4.57c1.131 2.961-.182 3.556-.98 3.484-1.393 0-1.742-2.105-1.742-3.157zM80.02 4.9l3.48 4.79-.108-3.048L80.018 4.9zm6.856 4.025L84.589 7.29l-.109 2.83 2.395-1.197zm-.651 1.959l2.394-1.306 3.375 1.959-5.769-.653zm-3.156-.266L80.13 7.57l.327 8.054 2.612-5.006zM50.966 34.965a.03.03 0 00-.006-.007l.003.004.001.002.002.001zM31.855 15.08h1.259c-.349.348.58 1.524 1.088 2.068h2.177v-.435h9.034v1.85H34.202l-1.524-2.395h-1.306v-.509l-.061.074-.98-1.088H14.549v-.327h16.217l.545.762 2.068-2.938V5.828h.653v6.64l-2.177 2.611zm16.714-9.36h-.87v10.884h.87V5.72zm16.978 0h.653v10.884h1.96v.653h-9.795v-.653h7.182V5.719zM42.473 20.521h9.36v1.741h-9.36v-1.741zm9.36-1.086h-9.36v.87h9.36v-.87zm-9.36 7.945v-1.633c3.483-2.177 7.692-.907 9.36 0v1.633h-9.36zm.111-4.683h9.251v2.286c-1.523-.798-5.507-1.916-9.251 0v-2.286zm6.854-6.094h7.184v.653h-7.184v-.653zm-7.183 15.563h-8.49c-.87-.326-.435-.798-.218-.98h8.708a3.532 3.532 0 003.374-3.047h1.197c-.523 2.96-3.265 3.918-4.571 4.027zM41.93 44.25h2.94v.653h.979v-.653h3.591v.653h.762v-.653h3.483v.653h.87v-.653h3.484v.653h.98v-.653H62.5v-1.088h-2.72V42.4h-.98v.762h-3.483V42.4H54.12v.762h-2.83V42.4h-1.306v.762H46.61V42.4h-1.198v.762h-3.918l.435 1.088zm-.544-20.463h-6.53v1.306h6.53v-1.306zm11.973 0h6.53v1.306h-6.53v-1.306zm16.867-.762h4.572l.98-1.415 1.632-1.741v3.156c0 .943-.457 2.852-2.286 2.939H71.86v1.85c-.508-.58-1.61-1.698-1.96-1.524v-3.265h.327zm-38.852 1.2v1.959L29.305 30.1l3.048-.98v-2.938l.544-.871v-2.177h-.98l-.544 1.089zm10.991 3.915h.871c-.181.617-1.023 1.894-2.939 2.068h-7.51c-.725 0-2.372.283-3.156 1.415-.218-.036-.566-.218-.218-.653.29-.508 1.502-1.502 4.027-1.415h6.857c.617-.109 1.894-.544 2.068-1.415z" fill="#A0A1A2"/><path d="M108.91 70.701l.443-.443c3.277 0 10.001-2.14 12.953-3.542 12.931-8.06 14.245-21.958 13.286-27.9-1.594-14.26-14.762-21.146-21.146-22.807l.553-3.1c4.429-.62 8.562 3.654 10.075 5.868l1.107-1.55c2.657-.177 6.053 6.717 7.418 10.186l1.439-1.107c1.506-.443 2.325 7.417 2.547 11.403h1.771c1.063 4.251-1.329 10.26-2.657 12.732l2.103.443c1.24 2.657-4.354 8.193-7.307 10.628l1.108 1.993c.088 2.48-7.787 4.945-11.736 5.868-.037.516-.089 1.705 0 2.325.089.62-6.864 2.103-11.957-.997z" fill="#A0A1A2"/><path d="M103.706 15.677v-2.879c5.668-1.417 9.521 1.624 10.739 3.322-4.872-1.24-9.189-.812-10.739-.443zm7.983 54.571l-.116 2.876c-5.721 1.187-9.448-2.007-10.596-3.752 4.817 1.435 9.148 1.182 10.712.876z" fill="#A0A1A2"/><path d="M105.672 14.237l2.103 1.219c-3.277 0-11.729 2.804-14.68 4.207-12.932 8.06-14.246 21.958-13.286 27.9 1.594 14.259 13.943 19.927 20.327 21.588l-1.107 3.431c-5.093-.664-7.19-2.767-8.703-4.98L89.22 69.15c-2.657.177-6.052-6.717-7.417-10.185l-1.44 1.107c-1.505.442-2.325-7.418-2.546-11.404h-1.772c-1.062-4.251 1.329-10.26 2.657-12.732l-2.103-.442c-1.24-2.658 4.355-8.193 7.307-10.629l-1.107-1.993c-.089-2.48 6.968-4.724 10.917-5.646.037-.517-1.35-1.151-1.44-1.771-.088-.62 5.093-2.326 13.397-1.219zm10.407 4.651l-6.171 16.043 3.942 1.67 6.686-16.21-4.457-1.503z" fill="#A0A1A2"/><path d="M104.435 49.666l-6.042 16.645 3.86 1.734 6.547-16.818-4.365-1.56zm8.572-6.642a4.207 4.207 0 11-8.413 0 4.207 4.207 0 018.413 0z" fill="#A0A1A2"/><path fill-rule="evenodd" clip-rule="evenodd" d="M108.91 49.888a6.975 6.975 0 100-13.95 6.975 6.975 0 000 13.95zm0 1.55a8.525 8.525 0 100-17.05 8.525 8.525 0 000 17.05z" fill="#A0A1A2"/><path fill-rule="evenodd" clip-rule="evenodd" d="M106.889 69.372c14.492 0 26.239-11.747 26.239-26.239 0-14.49-11.747-26.238-26.239-26.238-14.49 0-26.238 11.747-26.238 26.238 0 14.492 11.747 26.24 26.238 26.24zm0 1.55c15.348 0 27.789-12.441 27.789-27.788 0-15.348-12.441-27.79-27.789-27.79-15.347 0-27.788 12.442-27.788 27.79 0 15.347 12.441 27.788 27.788 27.788z" fill="#A0A1A2"/><path d="M101.909 36.657L87.366 26.194l-2.507 3.488 14.877 10.462 2.173-3.487zm6.579-1.698l-4.434-17-4.084 1.248 4.687 17.2 3.831-1.448zm10.352 31.773l-5.166-17.254-4.13 1.103 5.433 17.465 3.863-1.314zM98.966 41.227l-17.472-.693.11 4.283 17.732.51-.37-4.1zm18.022-.345l17.69-.096.033 4.237-17.96-.094.237-4.047zm11.463-14.065l-15.055 9.725 2.734 3.487 15.158-10.031-2.837-3.18zM100.126 45.46l-15.37 10.655 2.68 3.647 15.481-10.982-2.791-3.32zm30.594 10.46l-14.165-10.462-2.442 3.487 14.49 10.463 2.117-3.488zM27.02 37.281l-3.918 11.04 2.504 1.15 4.245-11.155-2.83-1.035zm-9.204 19.376L13.898 68.09l2.503 1.191 4.245-11.553-2.83-1.072zm5.226-3.594a2.286 2.286 0 11-4.571 0 2.286 2.286 0 014.571 0z" fill="#A0A1A2"/><path fill-rule="evenodd" clip-rule="evenodd" d="M20.756 56.437a3.374 3.374 0 100-6.748 3.374 3.374 0 000 6.748zm0 1.524a4.898 4.898 0 100-9.796 4.898 4.898 0 000 9.796z" fill="#A0A1A2"/><path d="M17.598 49.253L8.13 42.397l-1.632 2.285 9.686 6.857 1.415-2.286zm3.156-.895l-3.347-11.415-2.734.747 3.522 11.555 2.559-.886zm6.623 20.337L23.563 56.89l-2.819.686 4 11.95 2.633-.832zm-10.991-16.8l-12.398-.159-.001 2.985 12.585.026-.186-2.852zm10.894.028l11.885-.146.003 2.86-12.065.018.178-2.732zm7.93-9.098l-9.887 6.855 1.723 2.346 9.96-7.065-1.795-2.136zM16.267 54.821l-9.888 6.855 1.723 2.346 9.96-7.065-1.795-2.136z" fill="#A0A1A2"/><path d="M36.817 61.498l-9.469-7.02-1.632 2.34 9.687 7.02 1.414-2.34z" fill="#A0A1A2"/><path fill-rule="evenodd" clip-rule="evenodd" d="M20.537 70.369c9.438 0 17.088-7.65 17.088-17.088s-7.65-17.088-17.088-17.088c-9.437 0-17.088 7.65-17.088 17.088 0 9.437 7.65 17.088 17.088 17.088zm0 .87c9.918 0 17.959-8.04 17.959-17.958s-8.04-17.959-17.959-17.959c-9.918 0-17.958 8.04-17.958 17.959 0 9.918 8.04 17.958 17.958 17.958z" fill="#A0A1A2"/><path fill-rule="evenodd" clip-rule="evenodd" d="M20.538 71.675c10.158 0 18.394-8.235 18.394-18.394 0-10.159-8.236-18.394-18.394-18.394-10.159 0-18.394 8.235-18.394 18.394 0 10.159 8.235 18.394 18.394 18.394zm0 1.523c11 0 19.917-8.917 19.917-19.917 0-11-8.917-19.918-19.917-19.918-11 0-19.918 8.918-19.918 19.918s8.918 19.917 19.918 19.917z" fill="#A0A1A2"/></svg>