<svg width="288" height="146" fill="none" xmlns="http://www.w3.org/2000/svg"><path fill-rule="evenodd" clip-rule="evenodd" d="M105.941 128.556c11.675 0 21.14-9.464 21.14-21.14 0-11.675-9.465-21.14-21.14-21.14-11.676 0-21.14 9.465-21.14 21.14 0 11.676 9.464 21.14 21.14 21.14zm0 17.346c21.255 0 38.486-17.23 38.486-38.486 0-21.255-17.231-38.486-38.486-38.486-21.255 0-38.486 17.23-38.486 38.486 0 21.256 17.23 38.486 38.486 38.486zm142.727-17.346c11.676 0 21.14-9.464 21.14-21.14 0-11.675-9.464-21.14-21.14-21.14s-21.14 9.465-21.14 21.14c0 11.676 9.464 21.14 21.14 21.14zm0 17.346c21.255 0 38.486-17.23 38.486-38.486 0-21.255-17.231-38.486-38.486-38.486-21.255 0-38.486 17.23-38.486 38.486 0 21.256 17.231 38.486 38.486 38.486z" fill="#A0A1A2"/><path fill-rule="evenodd" clip-rule="evenodd" d="M1.323 87.361L.24 89.53v4.879h46.076l6.504 8.944h11.655c5.854-30.572 29-37.493 39.841-37.131 36.21-.217 43.455 29.18 42.552 43.907h4.607l4.337 5.691h5.692l10.57-3.794v7.047h13.551l8.673-7.047h13.281c-2.385-22.116 13.461-36.138 21.682-40.384 21.032-13.226 42.371.452 50.412 8.944l2.981-2.439c-12.359-14.31-28.639-16.804-35.234-16.262-19.08-.433-34.511 15.72-39.841 23.851l-9.215-9.215-4.066 4.065h-7.046v-2.439l7.046-2.71v-5.15h4.066v-4.878h-7.86V43.454c-.217-3.686-3.343-5.33-4.879-5.691h-14.336v28.73h-53.664l-7.589-.813V37.222h1.897V62.97h11.925V35.867h-1.387l-2.71-2.71h30.083l-2.71 2.71h-20.566v23.85h24.664v-23.85l2.71-2.71V62.97h13.551V37.763h-1.654v-10.57h2.439v-7.319h-4.065V5.24l-2.71-2.71h-55.562l-3.794 3.794 2.168 2.168v26.561h-3.794l-3.795-5.15v-8.13h1.626V.902h-5.691v29l-4.337 7.86-84.561 7.59v42.01h-2.44zm31.74-35.232h2.168v36.318h-2.168V52.129zm13.009 11.384h-2.168v13.551h2.168V63.513zm3.796 0h2.168v13.551h-2.168V63.513zm8.13 0h-2.169v13.551h2.168V63.513zm3.795 0h2.169v13.551h-2.169V63.513zm8.13 0h-2.169v13.551h2.169V63.513zm3.796 0h2.168v13.551h-2.168V63.513zm16.802-9.216V52.13H40.109v2.168h50.412zm17.346 6.504v2.71h-8.131v-2.71h8.131zm0-2.167v-2.71h-8.131v2.71h8.131zm0-7.59v2.711h-8.131v-2.71h8.131zm0-2.167v-2.71h-8.131v2.71h8.131zm7.319-40.926l-2.439 1.626v20.057h9.215v-.27h25.447l1.897-3.252V8.495h-26.832l-.921 1.536-.946-2.08h-5.421zm37.1 21.14V8.223h4.879c3.252 0 4.065 2.71 4.065 4.066V29.09h-8.944zM24.089 58.633v-2.168H9.453v2.169h14.636zm0 4.88v2.169H9.453v-2.168h14.636zm0 15.719v-2.168H9.453v2.168h14.636zm0 4.88v2.168H9.453v-2.168h14.636zM7.556 67.578h3.523l1.897 2.44h10.57v2.98h-10.57l-1.897 1.898H7.556v-7.318z" fill="#A0A1A2"/><circle cx="105.552" cy="108.263" r="10.07" fill="#A0A1A2"/><circle cx="249.091" cy="108.263" r="10.07" fill="#A0A1A2"/></svg>