<svg width="140" height="83" fill="none" xmlns="http://www.w3.org/2000/svg"><path fill-rule="evenodd" clip-rule="evenodd" d="M12.202 49.934c2.217-.23 6.858-.436 7.684.574v-.574l6.996-.459v1.033h4.243v-1.033h2.18v1.492h3.44l1.032 2.867 4.473 3.326 9.634 1.032.688 3.326h9.29v-5.505l.573-.918h3.44v3.097h4.932l4.588-8.143H80.9c-.153-3.67 1.1-11.973 7.34-15.827l5.046-5.39.459-9.863-1.262-1.606h-1.72l-1.147 1.606v8.716H88.24v-5.506H69.317v-2.982H88.24v-1.834l-.459-1.262h13.992l2.408 4.817h-5.505v6.767c10.858-1.644 33.099.71 35.21 23.282h5.734v-5.735c-1.72-8.105-10.735-24.314-33.03-24.314V5.894c-.344-.459-1.308-1.1-2.409 0v1.72l-2.408 5.39H31.125V3.372h.918V.504h-5.161V3.37h1.147v9.634h-6.422V16.1h-3.785l-1.262-.573v-.803h-.803v.803l-2.293 2.18v20.758H6.008v1.95h7.454v5.16l-.917.918-.344 3.44zm16.745-22.937H27.8v11.24h1.147v-11.24zM27.8 39.383h1.147v2.752H27.8v-2.752zm1.147-15.597H27.8v2.752h1.147v-2.752zm4.817-7.8H75.74v1.147H33.764v-1.147zM90.65 28.832H69.317v1.147H90.65v-1.147zm-54.361 1.146h1.376v15.139h-1.377v-15.14zm3.897 0H38.81v12.157h1.376V29.978zm.002-1.606h-3.212v-5.046h7.226v.917h-1.835c-1.927-.183-2.256 2.676-2.18 4.129zM21.15 23.326h5.161v1.605h-3.67v19.153l.918 1.032h5.505v1.72H22.64c-.23-.42-1.032-1.284-2.408-1.375V23.326h.917zm22.936 2.523h22.02v7.799h-22.02v-7.799zm24.086 12.386h4.817v9.405h-4.817v-9.405zm9.402.918h-3.44v8.487h3.44v-8.487z" fill="#A0A1A2"/><path d="M18.511 66.677a2.294 2.294 0 11-4.587 0 2.294 2.294 0 014.587 0z" fill="#A0A1A2"/><path fill-rule="evenodd" clip-rule="evenodd" d="M16.216 70.807a4.129 4.129 0 100-8.257 4.129 4.129 0 000 8.257zm0 2.065a6.193 6.193 0 100-12.386 6.193 6.193 0 000 12.386z" fill="#A0A1A2"/><path fill-rule="evenodd" clip-rule="evenodd" d="M16.103 80.211c7.41 0 13.418-6.007 13.418-13.418 0-7.41-6.007-13.419-13.418-13.419-7.41 0-13.419 6.008-13.419 13.419 0 7.41 6.008 13.418 13.419 13.418zm0 2.065c8.55 0 15.483-6.932 15.483-15.483S24.654 51.31 16.103 51.31.62 58.242.62 66.793c0 8.55 6.932 15.483 15.483 15.483z" fill="#A0A1A2"/><path d="M14.84 80.442v-8.028h2.982v8.028H14.84zm0-19.498v-8.029h2.982v8.029H14.84zm-4.586 6.882H2.226v-2.18h8.028v2.18zm1.069-4.081L5.896 57.83 7.5 56.356l5.428 5.916-1.606 1.473zm16.17 13.305l-5.427-5.917 1.606-1.473 5.427 5.916-1.606 1.473zM5.438 75.29l5.723-5.63 1.528 1.553-5.723 5.63-1.528-1.553zM21.61 61.986l5.723-5.63 1.528 1.553-5.723 5.63-1.528-1.553zm10.78 5.84h-8.028v-2.18h8.028v2.18z" fill="#A0A1A2"/><path fill-rule="evenodd" clip-rule="evenodd" d="M106.067 77c11.464 0 20.758-9.293 20.758-20.758 0-11.464-9.294-20.758-20.758-20.758-11.465 0-20.759 9.294-20.759 20.758 0 11.465 9.294 20.759 20.759 20.759zm0 2.524c12.858 0 23.281-10.424 23.281-23.282S118.925 32.96 106.067 32.96c-12.858 0-23.282 10.424-23.282 23.282s10.424 23.282 23.282 23.282z" fill="#A0A1A2"/><path fill-rule="evenodd" clip-rule="evenodd" d="M106.642 64.826a8.45 8.45 0 100-16.898 8.45 8.45 0 000 16.898zm0-5.451a2.998 2.998 0 100-5.996 2.998 2.998 0 000 5.996z" fill="#A0A1A2"/><path d="M105.824 33.385V49.12h2.523V33.385l-1.321-3.991-1.202 3.99zm21.16 10.516l-13.615 8.002 1.217 2.072 13.616-8.002 2.815-3.115-4.033 1.043zm-39.766-.451l13.615 8.002-1.218 2.072L86 45.522l-2.815-3.115 4.033 1.043zm-4.113 11.564h15.736v2.293H83.105l-3.99-1.201 3.99-1.092zm47.414 0h-15.735v2.293h15.735l3.991-1.201-3.991-1.092zm-33.71-18.865l7.79 13.737-2.091 1.186-7.79-13.738-.88-4.105 2.97 2.92zm21.691-.399l-7.79 13.739 2.091 1.185 7.79-13.738.881-4.105-2.972 2.92zm-12.676 42.085V62.1h2.523v15.735l-1.321 3.991-1.202-3.99zM85.838 66.286l13.615-8.002 1.218 2.072-13.615 8.002-4.091.944 2.873-3.016zm42.334-.047l-13.615-8.002-1.218 2.072 13.615 8.002 4.091.944-2.873-3.016zm-8.038 8.634l-7.79-13.738-2.091 1.186 7.79 13.738 3.071 2.863-.98-4.049zm-25.962.42l7.79-13.738 2.091 1.185-7.79 13.738-3.07 2.863.98-4.048z" fill="#A0A1A2"/></svg>