<svg viewBox="0 0 22 40" fill="none" xmlns="http://www.w3.org/2000/svg"><ellipse cx="10.65" cy="30.484" rx="4.65" ry="4.742" fill="#5CB3DC"/><path d="M18.7 30.484c0 4.757-3.777 8.583-8.4 8.583-4.622 0-8.4-3.826-8.4-8.583 0-4.758 3.778-8.584 8.4-8.584 4.623 0 8.4 3.827 8.4 8.584z" stroke="#5CB3DC" stroke-opacity=".11" stroke-width="1.801"/><path d="M10.872 0C4.877 0 0 4.973 0 11.086c0 7.587 9.73 18.724 10.143 19.195a.967.967 0 001.457 0c.415-.47 10.144-11.608 10.144-19.195C21.744 4.973 16.867 0 10.872 0zm0 16.664c-3.016 0-5.47-2.502-5.47-5.578 0-3.075 2.454-5.577 5.47-5.577 3.016 0 5.47 2.502 5.47 5.577 0 3.076-2.454 5.578-5.47 5.578z" fill="#000"/></svg>