<svg width="20" height="35" fill="none" xmlns="http://www.w3.org/2000/svg"><ellipse cx="9.318" cy="26.67" rx="4.068" ry="4.149" fill="#F4BEC1"/><path d="M16.248 26.67c0 4.102-3.257 7.397-7.236 7.397-3.98 0-7.237-3.295-7.237-7.397s3.257-7.397 7.237-7.397 7.236 3.295 7.236 7.397z" stroke="#E51C26" stroke-opacity=".11" stroke-width="1.801"/><path d="M9.512 0C4.267 0 0 4.351 0 9.7c0 6.637 8.512 16.38 8.875 16.793a.846.846 0 001.274 0c.362-.412 8.874-10.156 8.874-16.794C19.023 4.351 14.757 0 9.512 0zm0 14.58c-2.639 0-4.786-2.19-4.786-4.88 0-2.691 2.147-4.88 4.786-4.88 2.638 0 4.785 2.189 4.785 4.88 0 2.69-2.147 4.88-4.785 4.88z" fill="#E51C26"/></svg>